<svg width="90" height="114" viewBox="0 0 90 114" fill="none" xmlns="http://www.w3.org/2000/svg">
<path d="M49.5256 106.133H47.3927C47.2483 106.189 47.088 106.189 46.9436 106.133C46.6739 106.489 46.43 106.864 46.2139 107.254C48.3469 114.824 58.8996 112.076 64.4005 110.338C66.2528 109.722 68.049 108.993 70.0136 108.264C71.9782 107.535 73.9428 106.806 75.6267 105.965C80.847 103.554 90.5016 98.4516 86.853 91.4429H86.5162C87.5265 96.0966 83.5413 98.9001 79.8366 101.255C78.9946 101.76 78.0965 100.526 78.9385 100.021C81.9696 98.0591 85.8426 95.8163 85.0007 91.8354L83.6535 92.9568C79.3184 97.5599 74.0114 101.141 68.1179 103.439C62.2244 105.738 55.8924 106.696 49.5818 106.245L49.5256 106.133Z" fill="#804929"/>
<path d="M67.1501 101.423L63.165 102.881C64.5652 102.583 65.9227 102.113 67.2063 101.479L67.1501 101.423Z" fill="#DF0068"/>
<path d="M71.36 99.6846L67.4307 101.311C68.7928 100.929 70.1101 100.403 71.36 99.7407V99.6846Z" fill="#DF0068"/>
<path d="M82.1952 90.7141C82.1952 90.7141 82.1951 90.7141 81.8018 90.4341L82.1952 90.7141Z" fill="#DF0068"/>
<path d="M57.1583 75.1266L49.0192 77.7058C47.0902 78.3345 45.0926 78.7298 43.0693 78.8832C46.6271 82.921 48.9801 87.8743 49.8612 93.1808C50.131 94.5094 50.2627 95.8622 50.2541 97.2178C50.2541 98.5074 49.8051 99.797 49.8051 101.031C49.835 101.273 49.835 101.517 49.8051 101.759C51.8973 101.592 53.9996 101.592 56.0918 101.759C59.6477 101.597 63.1457 100.799 66.42 99.4045C69.86 98.1204 73.0366 96.2204 75.7939 93.7976L77.6463 92.0595C75.5133 88.9196 72.5383 86.4525 70.4614 83.2566C68.5779 79.8023 67.0725 76.1555 65.971 72.3792C65.6342 71.4821 67.0936 70.9214 67.4303 71.8185C68.5583 75.9596 70.2988 79.9093 72.5944 83.537C74.776 85.9181 76.8368 88.4069 78.7689 90.9941C79.3296 90.497 79.9303 90.047 80.5651 89.6485L80.0038 89.1439C79.1618 88.1907 77.9269 87.5739 77.0849 86.6207C76.152 85.6244 75.3243 84.5346 74.6152 83.3687C71.6481 78.8907 70.031 73.6556 69.9562 68.2861C68.3494 69.5393 66.5966 70.5936 64.7361 71.426L57.1583 75.1266ZM53.7343 87.2936C54.8524 89.9036 55.5896 92.6604 55.9234 95.4797C56.3558 96.6947 56.3558 98.0214 55.9234 99.2363C54.913 101.423 53.5659 100.918 52.8361 99.2363C52.7909 99.0521 52.7909 98.8598 52.8361 98.6756C52.8106 98.3771 52.8106 98.077 52.8361 97.7786C52.6618 95.237 52.1523 92.7296 51.3207 90.3213C50.198 87.5179 47.223 83.593 47.3353 80.8456C46.2688 77.7057 50.198 80.4531 51.04 81.4063C52.348 83.1544 53.2666 85.1617 53.7343 87.2936V87.2936Z" fill="#FF97B6"/>
<path d="M79.8379 93.237C80.2587 92.8731 80.6529 92.4796 81.0175 92.0596C80.5573 92.379 80.1579 92.7777 79.8379 93.237V93.237Z" fill="#DF0068"/>
<path d="M63.8934 60.6607C62.2447 61.8034 60.4978 62.7979 58.6733 63.6324C56.9893 64.4734 55.3053 65.2584 53.6214 65.9313C51.7852 66.6491 49.9114 67.2667 48.0082 67.7815C46.1772 68.3828 44.2999 68.8329 42.3951 69.1272C40.0937 69.1272 37.0626 69.1272 35.491 71.1457C35.3617 71.4891 35.3617 71.8676 35.491 72.211V72.5474C38.0169 79.6682 45.314 77.3694 50.7587 75.5191C52.611 74.9023 54.6318 74.3416 56.3718 73.7809C58.1119 73.2202 60.0204 71.8746 61.985 71.0896C67.2613 68.7908 74.1655 65.4827 71.1344 58.5862C71.1344 58.5862 71.1344 58.3058 71.1344 58.1937L70.5731 57.4087C68.0472 57.0723 65.7458 59.259 63.8934 60.6607ZM39.5885 74.7341C37.9046 74.7341 37.231 73.3324 36.8942 71.7624C37.6566 71.1521 38.6121 70.834 39.5885 70.8653C43.366 69.7445 47.2699 69.104 51.2078 68.959C52.6672 71.8185 43.4616 75.2948 39.5885 74.7341V74.7341Z" fill="#FFACC5"/>
<path d="M42.0602 67.9496C24.3788 67.9496 13.2649 65.3705 4.05931 49.3347C-4.5288 34.4202 1.02816 21.3 15.8469 13.7306C28.5887 7.45089 46.4385 -2.69764 60.1346 0.666513C75.683 4.53529 78.2089 23.4867 76.6933 37.5601C75.1778 51.6335 54.5776 70.7531 38.9169 69.015L42.0602 67.9496Z" fill="#FFFFEB"/>
<path d="M73.1002 12.7775C72.7634 12.2729 71.9214 12.7775 72.3143 13.3943C76.2923 19.7951 78.1029 27.3047 77.4784 34.8128C77.1461 38.9393 76.2975 43.008 74.9525 46.9237C73.8276 49.7695 71.8719 52.2115 69.3394 53.9324C73.4557 48.2549 75.9578 41.5709 76.5804 34.5885C76.7235 30.0612 76.1553 25.5394 74.8964 21.1879C74.2525 18.4729 73.3503 15.8256 72.2021 13.2821C71.0795 10.9833 69.6201 8.79659 68.4974 6.49775C68.4974 5.88099 67.2625 6.49774 67.5432 6.83415C69.7177 10.685 71.5942 14.6963 73.1564 18.833C74.6386 23.4194 75.4331 28.1997 75.5139 33.0186C75.5045 37.618 74.469 42.1575 72.4827 46.307C73.7448 42.1311 74.2579 37.7653 73.9983 33.411C73.8288 22.4342 70.3033 11.7716 63.8946 2.85323C63.7598 2.71622 63.5795 2.63333 63.3877 2.62025C63.1958 2.60717 63.0058 2.66482 62.8536 2.78227C62.7015 2.89972 62.5977 3.06883 62.562 3.25757C62.5263 3.44631 62.561 3.64159 62.6597 3.80642C68.6779 12.2465 72.0748 22.2699 72.4266 32.6261C72.8001 37.3454 72.2276 42.0917 70.7427 46.5873C70.2354 47.8631 69.6351 49.1 68.9465 50.2879C69.5117 49.0997 69.9627 47.8606 70.2936 46.5873C71.3661 41.5223 71.7439 36.335 71.4163 31.1683C71.0087 25.7855 69.7979 20.4939 67.8239 15.4688C65.5455 10.7835 62.6988 6.39584 59.348 2.40469C59.0112 1.844 58.1692 2.40467 58.5621 3.02144C61.3593 6.56917 63.8921 10.3172 66.1399 14.2353C68.2796 19.0793 69.6615 24.2229 70.2375 29.4862C70.7154 34.6139 70.4888 39.7828 69.5639 44.8492C68.597 49.4256 66.2456 53.5946 62.8282 56.7919C66.7986 52.2903 69.0456 46.5301 69.171 40.5318C70.35 30.8278 68.3826 21.0018 63.5578 12.4972C62.9965 11.6561 61.7616 12.4972 62.3229 13.4503C66.7261 21.3508 68.5695 30.4203 67.5993 39.4105C67.5479 41.2932 67.3414 43.1685 66.9819 45.0174C67.7392 40.1499 67.7392 35.1947 66.9819 30.3272C66.2346 25.3542 64.7594 20.5178 62.6036 15.9735C61.694 13.7225 60.506 11.594 59.0673 9.63762C57.4395 7.50699 55.5311 5.60064 53.9594 3.47C53.5665 2.90931 52.7245 3.47 53.1174 4.08677C54.5207 5.99313 56.1485 7.73128 57.664 9.6937C59.3005 11.7395 60.6421 14.0043 61.6494 16.422C63.8694 21.182 65.3641 26.2469 66.0837 31.4486C66.777 36.3101 66.6823 41.2513 65.8031 46.0827C65.3814 48.1736 64.6631 50.1938 63.6701 52.0821C63.123 53.0528 62.6538 54.0652 62.2668 55.1099L61.1442 56.3434C63.9381 49.5109 65.0358 42.1047 64.3437 34.7567C64.4216 24.3778 60.5493 14.3568 53.5103 6.72201C52.7806 6.04918 51.8264 7.22664 52.4999 7.95554C59.1574 15.2744 62.8405 24.8118 62.8282 34.7006C63.2677 39.7372 62.8885 44.8116 61.7055 49.7272C61.7055 49.1105 61.7055 48.4937 61.7055 47.933C62.1459 42.9658 62.0519 37.9657 61.4249 33.0186C60.1957 27.4522 58.3115 22.0507 55.8118 16.9267C55.0064 14.7282 53.9317 12.6377 52.6122 10.703C50.9283 8.34804 48.4024 6.83417 46.55 4.59139C46.101 4.08677 45.3152 4.5914 45.7081 5.20816C47.2236 7.00238 49.1321 8.29196 50.7038 9.97404C52.3552 11.8757 53.6483 14.0602 54.5207 16.422C56.8278 21.5278 58.7053 26.8166 60.1338 32.2336C60.9469 36.9361 61.1168 41.727 60.639 46.4752C60.749 49.9736 60.0377 53.4491 58.5621 56.6237C59.0897 54.5656 59.428 52.4636 59.5726 50.344C60.0974 45.4498 59.9463 40.5069 59.1235 35.6538C57.0498 24.376 51.5643 14.0043 43.4067 5.93705C42.7331 5.26421 41.4421 5.93706 42.1718 6.89024C49.7034 14.3269 54.9434 23.7641 57.2711 34.0839C58.2996 38.9278 58.6023 43.8974 58.1693 48.8301C58.2444 51.9126 57.7887 54.985 56.8221 57.9133C57.4677 51.8812 57.2978 45.7898 56.3169 39.8029C55.7556 36.4388 54.8575 33.0746 53.9594 29.7105C53.0613 26.3463 50.5353 22.5336 49.2443 18.4966C49.2443 17.8798 48.0656 18.4966 48.2901 18.8891C49.3566 22.085 51.1528 24.9446 52.4438 28.0844C53.69 31.5961 54.5923 35.2202 55.1381 38.9058C56.2513 44.914 56.497 51.0505 55.8679 57.1284C55.8679 54.2688 55.2504 51.5214 55.0258 48.4937C54.6107 43.154 53.4195 37.9032 51.4896 32.9064C48.2901 24.0475 45.5396 14.2353 38.1864 7.78734C37.4567 7.11451 36.5025 8.29196 37.2322 8.96479C44.1363 15.0203 46.8307 24.3839 49.8057 32.7382C51.5933 37.2554 52.7822 41.9866 53.342 46.8116C53.342 48.8862 53.3419 50.9607 53.9032 53.0353C52.9182 47.2402 51.5112 41.5247 49.6934 35.9342C48.4585 31.6168 46.9429 27.4677 45.3151 23.3186C43.732 19.6593 41.8548 16.1341 39.702 12.7775C39.3652 12.2168 38.5232 12.7775 38.86 13.3943C40.9813 16.6913 42.8574 20.1395 44.4732 23.711C45.9887 27.5798 47.4481 31.4486 48.6269 35.4295C50.4825 41.2267 51.9268 47.1474 52.949 53.1475C51.658 47.8209 50.0863 42.4943 48.2901 37.2798C46.4939 32.0654 44.2486 27.2434 42.2279 22.1972C40.7834 17.97 38.3824 14.1326 35.2114 10.9833C34.4817 10.3105 33.5275 11.4879 34.2572 12.1607C36.3134 14.1032 37.9721 16.4265 39.1407 19.0012C38.7751 18.2967 38.3016 17.6535 37.7374 17.0949C37.2884 16.6463 36.6709 17.4313 37.12 17.9359C39.14 20.7082 40.4154 23.9511 40.8246 27.3555C41.7799 31.1602 42.9608 34.9047 44.3609 38.5694C45.708 42.2139 47.392 45.7463 48.7391 49.4469C49.9953 52.545 50.9539 55.7554 51.6019 59.0347L33.0785 11.544C33.0785 10.9272 31.8436 11.544 32.1243 11.9365L50.8722 59.9318C47.392 53.7081 44.6977 47.0919 41.7789 40.5879C38.6335 34.005 36.0789 27.1564 34.145 20.1226C34.145 19.4498 33.0223 19.5619 33.1346 20.1226C34.9578 27.0162 37.439 33.7192 40.544 40.1394C43.519 46.8116 46.1571 53.7081 49.8057 60.1C49.2469 59.2729 48.7407 58.4114 48.2901 57.5209L45.2028 51.9139C42.9267 47.6546 40.8842 43.2747 39.0845 38.7937C37.4006 34.5885 35.885 30.3833 34.2572 26.122C32.4816 22.1188 31.6188 17.7714 31.7313 13.3943C31.7313 12.385 30.328 12.1608 30.2157 13.3943C30.0391 17.7959 30.8444 22.1816 32.5733 26.2342C34.4817 31.3365 36.2218 36.4949 38.1864 41.429C40.3847 46.494 42.8583 51.4355 45.5958 56.2313C42.2987 51.1106 39.3543 45.7716 36.7831 40.2515C34.9308 36.4949 33.3592 32.6821 31.8436 29.0376C30.6358 25.373 29.6978 21.625 29.037 17.8238C29.037 17.207 27.8582 17.3191 28.0266 17.8238C28.6621 21.7825 29.6195 25.6828 30.8894 29.4862C32.5172 33.6914 34.2573 37.7844 36.5025 41.7654C38.9682 47.105 41.8196 52.2584 45.0344 57.1844C43.7995 55.5023 42.4524 53.9324 41.2175 52.2503C38.3656 48.3002 36.0268 44.0047 34.2572 39.4665C30.7771 31.2804 26.4549 22.6457 27.4092 13.5064C27.4092 12.5532 25.9498 12.2729 25.8937 13.5064C24.8833 23.2064 29.4861 32.2896 33.1346 40.9804C35.1012 45.9603 37.7865 50.6261 41.1053 54.8295C42.9015 57.0723 44.4171 59.5954 46.3255 61.7821C41.7464 57.7171 37.7765 53.0152 34.5379 47.8209C32.3731 44.7465 30.4943 41.4809 28.9247 38.0648C27.8021 34.8688 27.1286 31.5608 25.7814 28.533C25.5007 27.9162 24.5465 28.2526 24.8272 28.8694C26.455 32.57 27.0163 36.607 28.8125 40.0833C30.6087 43.5596 32.0681 46.1948 33.9204 49.1105C37.2368 53.9628 41.1604 58.3719 45.5958 62.2307C42.8272 60.7924 40.322 58.8967 38.1864 56.6237C34.5238 53.3694 31.3648 49.5903 28.8125 45.4099C24.2774 37.5497 21.7699 28.6866 21.5154 19.618C21.813 21.1128 21.9448 22.6359 21.9083 24.1596C21.9083 24.8324 22.9187 25.0006 22.9187 24.1596C22.8817 21.3684 22.5619 18.5882 21.9644 15.8613C21.9373 15.7529 21.8812 15.654 21.8021 15.575C21.723 15.496 21.6239 15.4399 21.5154 15.4128V14.9642C21.5154 14.011 19.9998 14.1792 19.9437 14.9642C19.4075 26.4267 22.4052 37.7776 28.5319 47.4844C31.211 51.6372 34.4397 55.4093 38.1303 58.6983C39.7046 60.1416 41.3942 61.4543 43.1822 62.6232C39.9408 61.289 37.0573 59.2151 34.7625 56.5677C31.2034 53.3917 28.0882 49.752 25.5007 45.7463C22.8824 40.7681 20.7037 35.5714 18.9895 30.2151C18.0443 27.8759 17.5125 25.3907 17.4178 22.87C17.4178 20.5711 17.9791 18.3284 17.8668 15.9735C17.8668 15.3006 16.8004 15.4128 16.8565 15.9735C16.8565 18.8891 16.183 21.5804 16.5197 24.6081C16.8543 26.9192 17.4764 29.1795 18.372 31.3365C19.9954 36.8057 22.276 42.0584 25.1639 46.9798C28.026 51.0756 31.3398 54.8372 35.0431 58.1937L36.3902 59.4833C32.1213 56.642 28.3319 53.1406 25.1639 49.1105C18.5745 41.8347 14.8804 32.4004 14.7796 22.5896C14.7796 21.5804 13.3202 21.3561 13.2641 22.5896C13.2014 32.9762 17.0941 42.9981 24.1535 50.6243C28.5848 56.4839 34.3598 61.1949 40.993 64.3613H39.3091C38.3397 63.841 37.3252 63.4094 36.278 63.0717C34.2722 62.3591 32.3812 61.358 30.6648 60.1C26.7435 57.1608 23.3304 53.6001 20.5611 49.559C17.5631 45.2421 15.2354 40.4974 13.657 35.4856C12.7328 33.0181 12.1658 30.4316 11.973 27.8041C11.973 25.4492 11.9731 23.0943 11.5802 20.7394C11.5802 20.6055 11.5269 20.4772 11.4321 20.3825C11.3374 20.2879 11.209 20.2347 11.075 20.2347C10.941 20.2347 10.8125 20.2879 10.7177 20.3825C10.623 20.4772 10.5697 20.6055 10.5697 20.7394C10.8504 23.3746 10.5698 26.0659 11.0188 28.7012C11.253 31.1166 11.8002 33.4913 12.6467 35.7659C14.1694 40.5815 16.3814 45.1518 19.214 49.3347C21.9498 53.4301 25.3009 57.08 29.1493 60.1561C27.6552 59.0706 26.2477 57.8708 24.9395 56.5677C18.1186 50.5748 13.3158 42.6248 11.1872 33.8035C11.1872 32.8503 9.50331 33.0185 9.6717 33.8035C11.8861 43.2705 17.0797 51.7793 24.4904 58.0816C28.6248 62.2709 34.1162 64.8546 39.9826 65.3705C35.3648 65.3912 30.8612 63.9374 27.1286 61.2214C23.0649 58.2015 19.4381 54.6355 16.3513 50.6243C13.1606 46.3983 10.6773 41.6833 8.99807 36.663C7.97908 32.276 7.32206 27.8129 7.03352 23.3186C7.03352 22.6457 5.91085 22.7579 6.02311 23.3186C6.28073 28.5085 7.16658 33.6483 8.66129 38.6255C10.5997 43.6651 13.3074 48.3746 16.6881 52.5867C19.9059 56.6351 23.6862 60.2035 27.9144 63.1838C29.0084 63.9358 30.1975 64.5391 31.4506 64.9781C30.1395 64.6003 28.8627 64.1126 27.6337 63.5203C23.4743 61.2349 19.826 58.1248 16.9126 54.381C10.0678 46.4891 5.76421 36.719 4.56372 26.3463C4.56372 25.337 2.87979 25.5052 2.99205 26.3463C4.32408 37.2488 8.96659 47.4824 16.2952 55.6706C19.041 59.0736 22.3896 61.9435 26.1743 64.1371C21.9103 62.4358 18.0765 59.8125 14.948 56.4555C11.7484 52.8251 9.10066 48.7445 7.08962 44.3446C5.41676 40.2558 4.08377 36.0363 3.10425 31.729C3.10425 31.1122 1.98163 31.4486 2.15003 32.1214C2.87973 34.5885 3.27272 37.1677 4.05856 39.6347C4.9303 42.271 6.0387 44.8232 7.37029 47.2602C9.42323 51.3778 12.092 55.1591 15.2848 58.474C20.4416 63.2183 26.815 66.4402 33.696 67.7815C30.6773 68.2726 27.5804 67.8224 24.8272 66.492C21.1581 64.5538 17.7609 62.1406 14.7235 59.3151C9.17521 54.206 5.43343 47.4388 4.05856 40.0272C4.05856 39.4105 2.87979 39.4665 2.99205 40.0272C4.43376 47.9793 8.55326 55.2002 14.6674 60.4925C17.9286 63.663 21.7304 66.2264 25.8937 68.0619C28.6023 68.8789 31.4579 69.0894 34.2572 68.6787C33.7207 69.6181 33.4386 70.6809 33.4386 71.7625C33.4386 72.844 33.7207 73.9069 34.2572 74.8463C34.3041 74.9631 34.3804 75.0658 34.4788 75.1444C34.5772 75.223 34.6942 75.2748 34.8186 75.2948C35.4399 76.2467 36.2664 77.0478 37.2376 77.6395C38.2087 78.2313 39.3001 78.5988 40.4317 78.7151C44.6336 82.7872 47.3254 88.1648 48.0656 93.9659C48.6277 96.3632 48.6277 98.8577 48.0656 101.255C47.3359 103.33 45.4836 104.731 44.5855 106.862C44.5605 106.914 44.5475 106.972 44.5475 107.03C44.5475 107.088 44.5605 107.146 44.5855 107.198C46.943 117.066 60.0777 113.59 66.6451 111.179L70.462 109.609C71.753 109.161 73.044 108.712 74.3351 108.151C80.7902 105.516 92.8023 99.1804 88.0311 90.4896C87.9176 90.3225 87.763 90.1873 87.5821 90.0972C85.5614 89.2 83.26 89.4804 81.2954 88.4711C79.2181 87.1434 77.4711 85.3601 76.1874 83.2567C72.8536 78.5913 71.1746 72.9477 71.4163 67.2208C72.1692 66.2841 72.726 65.2059 73.0538 64.0501C73.3817 62.8943 73.4738 61.6845 73.3247 60.4925C73.4156 60.258 73.4156 59.9981 73.3247 59.7636C73.1133 58.7043 72.6295 57.7182 71.9209 56.9022C71.2123 56.0862 70.3033 55.4685 69.2833 55.1099C71.5598 53.4852 73.4717 51.4036 74.8964 48.9983C76.7156 44.8037 77.7978 40.3275 78.0959 35.7659C79.0816 27.7593 77.3205 19.6553 73.1002 12.7775V12.7775ZM50.2547 52.0261C48.9076 47.7087 47.1113 43.6156 45.4274 39.4665C43.8028 35.336 42.4527 31.1029 41.3859 26.7948C41.0303 25.0469 40.5615 23.3238 39.9826 21.6365L40.8246 23.711C42.5647 27.9162 44.3048 32.0654 45.9326 36.2706C47.5604 40.4758 49.0198 45.466 50.3108 50.0636C50.8721 52.1943 51.3774 54.3249 51.9387 56.4555C52.5689 58.0389 52.7627 59.7621 52.4999 61.4457C52.2865 58.1841 51.5276 54.9812 50.2547 51.97V52.0261ZM48.9637 103.554V103.217V103.554ZM84.9439 91.7792C85.7859 95.7601 81.9128 98.0029 78.8817 99.9654C78.0397 100.47 78.8817 101.703 79.7798 101.199C83.4845 98.8439 87.4698 96.0405 86.4595 91.3867H86.7962C90.3887 98.3954 80.7341 103.498 75.57 105.909C73.7381 106.734 71.8645 107.464 69.9568 108.095C67.9361 108.936 66.1399 109.665 64.3437 110.282C58.7305 112.02 48.2901 114.768 46.1571 107.198C46.3733 106.808 46.6171 106.433 46.8868 106.077C47.0312 106.133 47.1915 106.133 47.3359 106.077H49.4689C55.7795 106.528 62.1115 105.569 68.005 103.271C73.8985 100.972 79.2055 97.3915 83.5406 92.7885L84.9439 91.7792ZM50.8722 103.89C51.4088 103.777 51.9633 103.777 52.4999 103.89H50.8722ZM63.2211 102.993C64.5121 102.432 65.8592 101.928 67.1502 101.479C65.9064 102.127 64.5865 102.616 63.2211 102.937V102.993ZM67.4309 101.423C68.7219 100.806 70.0129 100.302 71.3601 99.7411C70.1113 100.42 68.7943 100.965 67.4309 101.367V101.423ZM79.836 93.2931L80.8463 92.0596C80.6059 92.5253 80.26 92.9285 79.836 93.237V93.2931ZM81.8006 90.4896H82.2496C81.8006 90.5457 81.8006 90.4896 81.8006 90.4336V90.4896ZM74.5596 83.5931C75.2688 84.759 76.0965 85.8488 77.0294 86.8451C77.8714 87.7983 79.1062 88.4151 79.9482 89.3683L80.5096 89.8729C79.8748 90.2714 79.274 90.7214 78.7133 91.2185C76.7812 88.6313 74.7205 86.1425 72.5389 83.7613C70.2433 80.1337 68.5027 76.1839 67.3748 72.0428C67.038 71.1457 65.5786 71.7064 65.9153 72.6035C67.0169 76.3798 68.5224 80.0267 70.4059 83.481C72.4827 86.6209 75.4577 89.0879 77.5907 92.2838L75.7383 94.022C73.0311 96.301 69.9307 98.0681 66.589 99.2364C63.2519 100.696 59.6752 101.532 56.0362 101.704C53.944 101.536 51.8418 101.536 49.7496 101.704C49.7795 101.461 49.7795 101.217 49.7496 100.975C49.7496 99.7411 50.1986 98.4515 50.1986 97.1619C50.2072 95.8063 50.0755 94.4535 49.8057 93.1249C48.9709 87.765 46.6358 82.7501 43.0699 78.659C45.0932 78.5056 47.0908 78.1103 49.0198 77.4815L56.9344 75.0145L64.6804 71.37C66.541 70.5376 68.2939 69.4833 69.9007 68.2301C69.9323 73.6761 71.5512 78.9951 74.5596 83.537V83.5931ZM70.6305 57.4648L71.1917 58.2498C71.1917 58.2498 71.1917 58.2498 71.1917 58.6422C74.2228 65.5388 67.3186 68.8469 62.0423 71.1457C60.1899 71.9307 58.3937 72.8839 56.4291 73.837C54.4645 74.7902 52.3877 74.9584 50.816 75.5752C45.2028 77.4255 38.0742 79.7243 35.5483 72.6035V72.2671C35.521 71.9687 35.521 71.6684 35.5483 71.37C37.3445 69.1833 40.3755 69.4075 42.6769 69.1833C44.5817 68.889 46.4591 68.4389 48.2901 67.8376C50.0966 67.3512 51.8765 66.771 53.6225 66.0995C55.5871 65.3145 57.2711 64.5295 59.2357 63.6885C61.0602 62.8539 62.8072 61.8595 64.456 60.7168C66.3083 59.3151 68.4413 57.1284 70.911 57.4648H70.6305Z" fill="#333333"/>
<path d="M46.8327 14.347C45.0188 12.3113 43.4199 10.0942 42.0614 7.73086C41.7246 7.17017 40.9387 7.73086 41.2755 8.34762C42.6713 10.767 44.3075 13.04 46.1591 15.132C46.6643 15.6366 47.2817 14.7956 46.8327 14.347Z" fill="#333333"/>
<path d="M28.7562 14.2912C28.5372 13.4074 28.5372 12.4836 28.7562 11.5998C28.8083 11.4734 28.808 11.3316 28.7553 11.2054C28.7026 11.0792 28.6019 10.979 28.4753 10.927C28.3486 10.875 28.2064 10.8753 28.08 10.9278C27.9536 10.9804 27.8533 11.081 27.8012 11.2074C27.5767 12.2609 27.5767 13.3498 27.8012 14.4033C27.9697 15.0201 28.7562 14.964 28.7562 14.2912Z" fill="#333333"/>
<path d="M36.8953 11.8805C37.3444 12.3851 38.1864 11.8805 37.7374 11.2637L35.5482 8.46021C35.0991 7.95557 34.257 8.46021 34.7061 9.07698C35.1552 9.69375 36.1656 10.9834 36.8953 11.8805Z" fill="#333333"/>
<path d="M24.6605 22.0853C23.9803 19.3353 23.8279 16.4816 24.2114 13.6749C24.2114 13.0021 23.257 12.8339 23.2008 13.6749C22.8062 16.6705 22.9777 19.7135 23.7061 22.646C23.8745 23.0946 24.885 22.5899 24.6605 22.0853Z" fill="#333333"/>
<path d="M50.4807 4.92784C50.9859 5.32033 51.6033 4.53536 51.0982 4.0868C50.593 3.63824 49.6949 3.24575 49.0774 2.68505C48.4599 2.12435 47.9548 3.07754 48.4599 3.47003C48.9651 3.86252 49.8632 4.36714 50.4807 4.92784Z" fill="#333333"/>
<path d="M60.4727 9.91824C60.4948 9.98083 60.5291 10.0384 60.5735 10.0878C60.6179 10.1372 60.6716 10.1773 60.7315 10.206C60.7914 10.2346 60.8565 10.2512 60.9228 10.2547C60.9892 10.2583 61.0556 10.2487 61.1182 10.2266C61.1809 10.2045 61.2386 10.1703 61.288 10.126C61.3374 10.0816 61.3776 10.028 61.4063 9.96808C61.4349 9.9082 61.4515 9.84329 61.4551 9.77701C61.4586 9.71074 61.4491 9.6444 61.427 9.58182C60.6411 6.8344 58.2835 5.09624 56.8801 2.74131C56.8801 2.12455 55.7575 2.74132 56.0943 3.35808C57.4415 5.76908 59.6868 7.33904 60.4727 9.91824Z" fill="#333333"/>
<path d="M9.72925 30.3833C9.72925 27.9163 9.27993 25.5614 9.72925 23.0943C9.72925 22.4775 8.71827 22.2533 8.66211 23.0943C8.66211 25.5614 9.11144 27.9723 8.94295 30.3833C8.66213 30.8879 9.67308 31.0561 9.72925 30.3833Z" fill="#333333"/>
<path d="M18.0373 21.1873C18.0547 22.6434 18.2431 24.0925 18.5986 25.5047C18.6433 25.6311 18.7364 25.7346 18.8574 25.7924C18.9785 25.8503 19.1175 25.8577 19.2441 25.8131C19.3706 25.7685 19.4743 25.6755 19.5322 25.5546C19.5901 25.4337 19.5975 25.2947 19.5528 25.1683C19.2465 23.8245 19.0773 22.4531 19.0477 21.0752C19.0328 20.9414 18.9653 20.8189 18.86 20.7348C18.7547 20.6507 18.6203 20.6118 18.4863 20.6266C18.3524 20.6415 18.2298 20.7089 18.1455 20.8141C18.0613 20.9192 18.0224 21.0535 18.0373 21.1873V21.1873Z" fill="#333333"/>
<path d="M14.8923 20.9629C14.8923 20.1219 14.8923 19.2248 14.8923 18.3837C14.8923 17.5427 13.9376 17.5427 13.8814 18.3837C13.8252 19.2248 13.8814 20.1219 13.8814 20.9629C13.8814 21.8039 14.8923 21.6357 14.8923 20.9629Z" fill="#333333"/>
<path d="M16.6897 32.906L18.2051 36.7187C18.2497 36.8451 18.3428 36.9485 18.4639 37.0064C18.5849 37.0642 18.7241 37.0717 18.8506 37.027C18.9771 36.9824 19.0807 36.8894 19.1386 36.7685C19.1965 36.6476 19.2039 36.5086 19.1593 36.3822L17.6438 32.5135C17.5316 31.8968 16.4651 32.2892 16.6897 32.906Z" fill="#333333"/>
<path d="M59.4597 21.412L57.6634 16.9265C57.6634 16.3097 56.4846 16.9265 56.7091 17.319L58.4493 21.8045C58.5224 21.9039 58.6263 21.9764 58.7449 22.0109C58.8634 22.0453 58.99 22.0398 59.1051 21.9951C59.2202 21.9504 59.3173 21.869 59.3814 21.7636C59.4456 21.6582 59.4731 21.5347 59.4597 21.412V21.412Z" fill="#333333"/>
<path d="M46.6089 81.2382C47.6619 84.5143 49.0936 87.6567 50.8748 90.6018C51.6745 92.9446 52.2018 95.3715 52.4465 97.8347C52.3752 98.2051 52.3752 98.5857 52.4465 98.9561C52.4465 98.9561 52.4465 99.3486 52.4465 99.5168C53.2884 100.919 54.6355 101.423 55.6459 99.5168C56.0783 98.3018 56.0783 96.9751 55.6459 95.7602C55.3121 92.9409 54.5749 90.184 53.4568 87.574C52.818 85.5039 51.7466 83.5928 50.3135 81.9671C49.7522 80.7336 45.5985 77.9862 46.6089 81.2382Z" fill="#FFD5E2"/>
<path d="M36.8955 71.7623C37.2323 73.3323 37.9059 74.734 39.702 74.7901C43.4628 75.2947 52.6683 71.8184 51.2089 69.1831C47.271 69.3281 43.3672 69.9687 39.5898 71.0895C38.6406 70.9937 37.6878 71.2316 36.8955 71.7623V71.7623Z" fill="#FFC1D3"/>
</svg>
