<svg width="333" height="452" viewBox="0 0 333 452" fill="none" xmlns="http://www.w3.org/2000/svg">
<path d="M315.939 238.547C315.518 233.356 313.766 228.36 310.85 224.041C307.935 219.722 303.955 216.224 299.293 213.884C291.156 210.445 282.139 209.653 273.525 211.621C266.593 212.958 259.997 216.765 252.91 217.407C248.813 217.793 244.819 216.482 240.645 216.97C227.969 218.769 216.317 224.916 207.688 234.355C199.751 243.562 196.788 257.86 203.384 268.07C208.744 276.351 218.845 280.208 228.457 282.24C242.713 285.226 257.426 285.322 271.721 282.523C283.061 280.697 293.723 275.935 302.643 268.713C311.223 261.203 317.021 249.914 315.939 238.547Z" fill="#E2A9A0"/>
<path d="M213.331 120.712C219.077 104.356 211.012 82.4966 198.901 71.567C163.856 40.0123 111.728 81.8537 86.3719 107.853C65.7575 129.07 56.2491 162.245 45.9419 189.479C42.0767 199.766 38.2115 210.207 38.8041 221.059C39.3968 231.912 45.7615 243.227 56.2748 246.133C66.7882 249.039 77.4819 242.97 84.2589 234.766C91.0359 226.563 94.7722 216.379 99.7197 206.941C114.269 179.108 138.758 157.742 168.34 147.072C182.718 141.928 205.549 138.354 212.429 122.975C212.764 122.229 213.073 121.483 213.331 120.712Z" fill="#C5A28C"/>
<path d="M221.989 163.145C216.425 163.268 210.92 164.32 205.704 166.257C203.127 167.182 200.55 169.574 205.575 169.754C207.787 169.719 209.985 169.408 212.12 168.828C224.369 166.309 236.986 166.126 249.303 168.288C248.633 165.845 244.278 164.919 240.645 164.482C234.468 163.577 228.232 163.13 221.989 163.145Z" stroke="#606060" stroke-width="0.62" stroke-linecap="round" stroke-linejoin="round"/>
<path d="M210.754 203.829C216.369 206.925 222.795 208.244 229.178 207.609C235.62 207.111 241.712 204.487 246.494 200.151C246.677 199.974 246.922 199.875 247.177 199.875C247.432 199.875 247.677 199.974 247.86 200.151C248.036 200.329 248.135 200.57 248.135 200.82C248.135 201.07 248.036 201.311 247.86 201.489C242.852 206.31 236.38 209.331 229.462 210.078C222.523 210.983 215.472 209.744 209.26 206.529C209.076 206.432 208.914 206.299 208.782 206.139C208.65 205.979 208.551 205.794 208.492 205.596C208.432 205.397 208.412 205.189 208.433 204.983C208.454 204.777 208.516 204.577 208.615 204.395C208.817 204.03 209.154 203.758 209.554 203.638C209.953 203.518 210.384 203.559 210.754 203.752V203.829Z" fill="#606060"/>
<path d="M248.71 352.987C265.468 341.621 277.698 324.746 283.269 305.304C288.839 285.862 287.397 265.086 279.193 246.596C274.323 235.692 267.082 225.405 265.588 213.447C263.552 197.117 272.648 181.686 273.705 165.279C274.838 147.277 265.974 129.918 253.709 116.803C245.205 107.75 234.434 103.07 226.343 93.6576C217.658 83.498 211.316 71.5583 207.764 58.6826C219.727 59.1544 231.459 62.1209 242.204 67.3912C252.949 72.6615 262.469 80.1188 270.151 89.2831C277.833 98.4474 283.508 109.116 286.81 120.601C290.111 132.086 290.966 144.134 289.32 155.97C286.743 175.772 272.055 207.403 269.685 227.231" stroke="#606060" stroke-width="0.75" stroke-linecap="round" stroke-linejoin="round"/>
<path d="M209.568 59.8659C222.452 47.0074 243.299 43.4842 260.486 49.5791C277.673 55.674 290.944 70.6927 297.283 87.8201C303.622 104.948 299.628 122.255 295.118 139.948C288.496 165.665 276.617 192.951 282.775 218.873C288.264 242.019 310.321 259.455 313.027 283.166C314.779 298.416 308.028 313.332 300.401 326.653C292.773 339.974 283.909 353.09 280.74 368.108C279.93 371.919 279.61 375.816 279.786 379.707" stroke="#606060" stroke-width="0.75" stroke-linecap="round" stroke-linejoin="round"/>
<path d="M205.961 58.8628C206.94 78.8448 207.919 99.0583 204.106 118.706C200.292 138.354 191.067 157.693 175.323 169.96C160.712 181.249 142.056 185.39 124.998 192.539C105.363 200.614 86.9901 213.113 75.1884 230.729C63.3866 248.345 58.9545 271.696 66.788 291.292C75.2399 312.483 95.8801 326.524 106.419 346.763C112.396 358.604 114.94 371.875 113.763 385.081" stroke="#606060" stroke-width="0.75" stroke-linecap="round" stroke-linejoin="round"/>
<path d="M150.534 381.456C150.534 368.88 145.999 356.768 140.51 345.452C135.021 334.137 128.502 323.336 123.89 311.66C113.969 286.458 108.893 257.655 117.499 231.475C124.918 210.181 139.293 191.994 158.316 179.835" stroke="#606060" stroke-width="0.75" stroke-linecap="round" stroke-linejoin="round"/>
<path d="M208.924 57.5259C196.891 59.0946 186.584 66.8097 178.003 75.2962C163.022 90.1229 151.23 107.844 143.348 127.375C135.466 146.907 131.66 167.838 132.162 188.888" stroke="#606060" stroke-width="0.75" stroke-linecap="round" stroke-linejoin="round"/>
<path d="M221.087 50.7878C196.221 28.0541 156.383 24.9938 126.647 40.7583C96.9108 56.5227 77.3013 88.8488 73.8484 122.384C71.5808 144.654 75.4975 168.263 66.3241 188.682C57.1507 209.101 35.9952 221.779 27.466 241.993C17.7411 265.19 15.1924 290.76 20.1478 315.415C23.1579 331.904 30.5132 347.295 41.458 360.008C53.4402 372.802 69.8649 380.547 87.3766 381.661" stroke="#606060" stroke-width="0.75" stroke-linecap="round" stroke-linejoin="round"/>
<path d="M212.067 55.674C201.313 46.8642 187.523 42.6184 173.665 43.8495C159.806 45.0806 146.985 51.6904 137.959 62.2575C126.775 75.3217 122.498 93.1178 121.003 110.117C119.509 127.115 119.895 144.603 116.417 161.55C112.986 177.137 106.41 191.864 97.0906 204.832C87.5564 218.488 73.4613 227.514 60.8092 238.264C49.7805 247.728 39.396 258.272 32.4644 271.053C20.2246 293.915 20.1988 327.63 33.4693 349.489" stroke="#606060" stroke-width="0.75" stroke-linecap="round" stroke-linejoin="round"/>
<path d="M124.972 215.273C105.735 229.571 92.781 250.738 88.819 274.347C84.8571 297.957 90.194 322.181 103.714 341.954" stroke="#606060" stroke-width="0.75" stroke-linecap="round" stroke-linejoin="round"/>
<path d="M75.1116 109.911C48.97 146.104 33.7195 188.99 31.1514 233.532" stroke="#606060" stroke-width="0.75" stroke-linecap="round" stroke-linejoin="round"/>
<path d="M295.814 137.222C293.031 147.946 294.216 162.116 296.613 172.943C299.009 183.77 302.436 194.365 303.957 205.346C306.059 220.555 304.377 236.047 299.061 250.454" stroke="#606060" stroke-width="0.75" stroke-linecap="round" stroke-linejoin="round"/>
<path d="M70.1113 298.236C82.9953 322.744 86.8605 336.297 88.1489 363.891C88.4101 369.814 88.1947 375.748 87.5047 381.636" stroke="#606060" stroke-width="0.75" stroke-linecap="round" stroke-linejoin="round"/>
<path d="M152.415 294.841C158.342 295.896 162.155 287.692 168.417 290.444C170.659 291.421 172.334 293.735 174.756 293.838C177.745 293.838 179.909 290.649 182.77 290.161C187.434 289.389 190.809 295.818 195.654 295.458" stroke="#606060" stroke-width="0.75" stroke-linecap="round" stroke-linejoin="round"/>
<path d="M168.107 309.783C171.467 310.897 175.109 310.816 178.415 309.551" stroke="#606060" stroke-width="0.75" stroke-linecap="round" stroke-linejoin="round"/>
<path d="M159.14 260.92C158.875 260.593 158.542 260.327 158.164 260.14C157.786 259.954 157.372 259.851 156.95 259.84C154.656 259.84 156.331 261.358 157.362 262.052C159.217 263.286 161.253 264.315 163.186 265.447C161.588 264.521 160.429 262.232 159.14 260.92Z" fill="#606060" stroke="#606060" stroke-width="0.75" stroke-linecap="round" stroke-linejoin="round"/>
<path d="M185.45 260.92C185.717 260.595 186.05 260.331 186.428 260.145C186.806 259.958 187.219 259.855 187.64 259.84C190.01 259.84 188.181 261.435 187.15 262.103C185.295 263.312 183.285 264.469 181.327 265.498C182.821 263.981 184.007 262.412 185.45 260.92Z" fill="#606060" stroke="#606060" stroke-width="0.75" stroke-linecap="round" stroke-linejoin="round"/>
<path d="M126.982 318.809C138.165 330.382 158.058 342.366 174.137 342.674C188.413 342.957 202.276 337.248 214.001 329.147C225.725 321.046 235.594 310.605 245.386 300.267" stroke="#606060" stroke-width="0.75" stroke-linecap="round" stroke-linejoin="round"/>
</svg>
