<svg width="207" height="320" viewBox="0 0 207 320" fill="none" xmlns="http://www.w3.org/2000/svg">
<path d="M164.468 66.4753C164.468 66.2814 164.468 66.0875 164.166 65.8936C164.116 65.8009 164.046 65.7185 163.959 65.6518C163.871 65.5851 163.77 65.5356 163.66 65.5064C163.55 65.4772 163.435 65.4689 163.322 65.4822C163.208 65.4954 163.099 65.5299 163.001 65.5834C162.311 65.1956 161.665 64.769 160.931 64.42C160.749 64.3114 160.536 64.2531 160.317 64.2522C160.098 64.2513 159.884 64.308 159.701 64.4151C159.518 64.5222 159.373 64.6752 159.285 64.8552C159.197 65.0352 159.17 65.2344 159.206 65.4283C161.492 80.9401 148.641 98.0807 142.603 112.158C138.29 121.736 134.625 133.68 142.603 142.251C142.582 142.625 142.582 143 142.603 143.375C142.625 143.459 142.67 143.536 142.735 143.6C142.799 143.663 142.881 143.711 142.972 143.738C143.062 143.765 143.159 143.771 143.253 143.755C143.347 143.739 143.435 143.702 143.509 143.647C141.569 149.837 141.113 156.327 142.172 162.687C139.11 157.724 135.789 152.837 132.296 148.067C132.315 147.991 132.315 147.911 132.296 147.835C132.555 139.458 126.819 133.06 123.153 125.847C123.153 124.994 123.498 124.179 123.714 123.326C127.035 110.606 132.9 95.5212 127.164 82.7239C127.083 82.5811 126.968 82.4567 126.825 82.3604C126.683 82.2641 126.518 82.1985 126.343 82.1685C126.168 82.1386 125.988 82.1451 125.816 82.1876C125.645 82.2301 125.486 82.3075 125.353 82.4137C118.616 87.1811 112.789 92.9052 108.102 99.3604C106.334 95.9865 104.523 92.6515 102.712 89.3552C102.821 89.3076 102.913 89.2332 102.978 89.1406C103.042 89.048 103.077 88.941 103.077 88.8317C103.077 88.7225 103.042 88.6154 102.978 88.5228C102.913 88.4302 102.821 88.3558 102.712 88.3082L101.936 87.9592C101.72 87.4938 101.461 87.0672 101.202 86.6019C102.194 67.9489 107.154 48.9857 97.7954 31.4574C91.7578 20.095 80.5452 6.25067 66.0981 2.95441C65.1403 1.94472 64.1026 0.998603 62.993 0.123491C62.3893 -0.303084 61.7855 0.472512 62.1736 0.976646C62.5618 1.48078 62.9067 1.94612 63.2949 2.45026H62.9068L61.3111 1.94613C61.2707 1.90487 61.2209 1.87182 61.1651 1.84918C61.1093 1.82654 61.0488 1.81483 60.9876 1.81483C60.9264 1.81483 60.866 1.82654 60.8102 1.84918C60.7545 1.87182 60.7047 1.90487 60.6642 1.94613L59.1979 1.63589C58.4217 1.63589 58.1629 2.64416 58.9392 2.87684L59.6292 3.10953C59.5872 3.26235 59.5872 3.42205 59.6292 3.57487C72.5669 30.992 64.3299 73.3781 99.2186 88.347C99.2186 89.4328 99.4773 90.4798 99.6929 91.5656C99.9086 92.6515 100.944 92.1473 100.987 91.5656V90.5186C103.1 94.0088 105.299 97.4602 107.154 100.873C104.647 104.471 102.497 108.26 100.728 112.196C91.7147 99.244 79.1652 89.2389 66.2275 79.1562C67.9094 78.6908 68.3837 77.0621 68.6856 75.6661C68.9875 74.27 68.9013 71.7881 69.3325 69.9267C69.7852 70.5564 70.3894 71.0865 71.1006 71.4779L71.8337 72.1759C71.9618 72.2628 72.1086 72.3249 72.2646 72.3584C72.4207 72.3919 72.5827 72.396 72.7407 72.3705C72.8986 72.3451 73.049 72.2905 73.1823 72.2103C73.3157 72.1301 73.4292 72.026 73.5157 71.9044C73.6239 71.8265 73.7084 71.7251 73.7612 71.6098C73.814 71.4945 73.8334 71.3691 73.8175 71.2452V71.2452C73.8572 71.079 73.8572 70.9072 73.8175 70.741C73.8175 70.741 73.8175 70.741 73.8175 70.741C73.4468 69.7853 72.7902 68.94 71.92 68.2979C71.7169 68.0784 71.4472 67.9168 71.1438 67.8326L70.0656 67.1346C69.9813 67.0572 69.8807 66.9957 69.7696 66.9537C69.6585 66.9118 69.5392 66.8901 69.4187 66.8901C69.2982 66.8901 69.179 66.9118 69.0679 66.9537C68.9568 66.9957 68.8562 67.0572 68.7719 67.1346C67.9042 68.8772 67.477 70.7711 67.5212 72.68C67.5212 74.0761 67.7368 77.6826 65.8824 78.303C65.827 78.3181 65.7756 78.343 65.7312 78.3764C65.6867 78.4097 65.6502 78.4507 65.6237 78.497L62.0443 75.6661C59.904 70.8761 58.1598 65.9507 56.826 60.9298C56.9225 60.7973 56.9739 60.6423 56.9739 60.4838C56.9739 60.3254 56.9225 60.1705 56.826 60.0379C56.6974 59.8353 56.5534 59.6409 56.3948 59.4562V59.2623V58.9521C62.2599 56.0436 55.4029 46.0385 49.5809 51.4288C49.3839 51.5666 49.2244 51.743 49.1147 51.9447C49.005 52.1463 48.948 52.3678 48.948 52.5922C48.948 52.8167 49.005 53.0381 49.1147 53.2398C49.2244 53.4414 49.3839 53.6178 49.5809 53.7556C50.317 54.2941 51.2489 54.5684 52.1966 54.5255C53.1444 54.4825 54.0408 54.1253 54.7129 53.5229C55.6185 54.6087 55.6185 56.6253 53.7641 57.0519C53.5098 57.0885 53.2712 57.1865 53.074 57.3355C52.8767 57.4844 52.7281 57.6787 52.644 57.8976C52.5599 58.1166 52.5435 58.3519 52.5964 58.5786C52.6494 58.8053 52.7698 59.0148 52.9447 59.1848C53.721 59.8052 54.4973 60.4645 55.2304 61.1625L55.6185 61.3952C57.3048 64.8879 58.5909 68.5262 59.4567 72.2534C59.4567 72.7964 59.888 73.3781 60.1036 73.921C56.0498 70.6247 52.0391 67.2121 48.2872 63.6444C48.394 63.6158 48.4877 63.5569 48.5543 63.4766C48.6209 63.3962 48.6569 63.2987 48.6569 63.1985C48.6569 63.0982 48.6209 63.0007 48.5543 62.9203C48.4877 62.84 48.394 62.7811 48.2872 62.7525C43.5002 61.2401 42.2927 52.5147 42.6377 47.008C42.8895 46.9036 43.1105 46.7474 43.2828 46.5521C43.4551 46.3567 43.5739 46.1276 43.6296 45.8834C43.9746 44.0607 43.3277 40.7645 40.3521 41.6952C37.3764 42.6259 38.4977 46.7365 40.3521 48.3652C40.4128 48.4304 40.4886 48.4829 40.5743 48.5188C40.66 48.5548 40.7534 48.5735 40.848 48.5735C40.9425 48.5735 41.036 48.5548 41.1216 48.5188C41.2073 48.4829 41.2832 48.4304 41.3439 48.3652C41.383 51.4248 41.7295 54.4749 42.379 57.4784C39.2243 54.0999 36.3419 50.523 33.7538 46.7753C34.8285 45.5579 35.3521 44.0205 35.2201 42.4707C35.3305 41.6818 35.2317 40.8805 34.9319 40.1324C34.6321 39.3843 34.1397 38.7106 33.495 38.1662C32.3013 37.5052 30.8741 37.2737 29.4988 37.5182C28.1236 37.7626 26.9017 38.465 26.0775 39.4847L25.6893 40.0664C25.5382 40.0236 25.3766 40.0211 25.224 40.0592C25.0714 40.0973 24.9343 40.1743 24.8294 40.281C24.7244 40.3877 24.6561 40.5194 24.6327 40.6603C24.6093 40.8011 24.6317 40.9451 24.6974 41.0747L25.0855 41.5788C24.9803 42.1263 24.9961 42.6871 25.1321 43.2291C25.2681 43.7711 25.5216 44.2837 25.8781 44.7375C26.2346 45.1913 26.687 45.5775 27.2096 45.8739C27.7322 46.1704 28.3147 46.3712 28.9237 46.4651H29.3119C29.7626 46.8566 30.3109 47.1454 30.9111 47.3074C31.5114 47.4693 32.146 47.4996 32.7619 47.3958H32.9775C36.6706 53.202 41.0051 58.6587 45.9152 63.6832C40.1795 65.6222 33.6676 62.8301 27.4144 62.0545C27.685 60.93 27.685 59.7664 27.4144 58.6418C27.3248 58.4403 27.17 58.2675 26.9702 58.1458C26.7703 58.0241 26.5344 57.959 26.293 57.959C26.0517 57.959 25.8159 58.0241 25.616 58.1458C25.4161 58.2675 25.2614 58.4403 25.1718 58.6418C25.1116 59.135 24.9352 59.6109 24.6543 60.0379C24.6281 60.1229 24.6237 60.212 24.6415 60.2987C24.6593 60.3854 24.6987 60.4674 24.7569 60.5383C24.8151 60.6093 24.8904 60.6674 24.9772 60.7084C25.064 60.7493 25.1601 60.7721 25.2581 60.7747C25.3002 61.0579 25.3002 61.3448 25.2581 61.6279C24.5387 61.1464 23.6514 60.9125 22.7568 60.9686C22.4484 61.0552 22.167 61.2056 21.9348 61.4076C21.7027 61.6097 21.5263 61.8577 21.4199 62.132C21.1957 62.2025 21.007 62.3431 20.8883 62.5281C20.7696 62.7132 20.7287 62.9304 20.773 63.1403C20.8543 63.4046 20.9552 63.6637 21.0749 63.9159C21.0023 64.4073 21.09 64.9071 21.3273 65.3546C21.5646 65.8021 21.9414 66.1779 22.4118 66.4365C22.9634 66.5646 23.5421 66.5646 24.0937 66.4365C24.6332 66.5074 25.184 66.4436 25.6859 66.2521C26.1879 66.0606 26.6217 65.7488 26.94 65.3507C27.1815 65.1064 27.3419 64.8061 27.4029 64.4839C27.4639 64.1616 27.4231 63.8304 27.285 63.528C34.0126 64.2649 41.4302 67.406 47.1659 64.3812C51.9529 69.1899 57.0848 73.7659 62.4324 78.2255C62.7343 78.846 62.993 79.5052 63.338 80.1257C63.3936 80.2327 63.4819 80.3233 63.5926 80.3867C63.7034 80.4501 63.832 80.4839 63.9633 80.4839C64.0946 80.4839 64.2233 80.4501 64.3341 80.3867C64.4448 80.3233 64.5331 80.2327 64.5887 80.1257C67.78 82.8015 71.0575 85.4385 74.2919 88.1143C69.4187 88.1143 64.7611 85.6324 60.1898 84.2363C55.6185 82.8402 51.2628 81.7544 46.9503 80.3584C50.0984 76.8294 45.6134 69.6552 40.1364 72.6024C34.6595 75.5497 37.4195 84.0425 43.4139 81.7932C43.9039 82.1604 44.4783 82.4253 45.0958 82.5688C45.3761 82.6555 45.6831 82.6389 45.9498 82.5227C46.2165 82.4064 46.4211 82.1999 46.519 81.9483C52.1253 83.8485 57.861 85.3221 63.7693 87.0284C67.8231 88.2694 71.1869 90.2859 75.4563 89.045C84.9545 96.4459 93.6213 104.668 101.332 113.592C98.947 119.16 97.4936 125.015 97.0192 130.966C89.7741 129.802 80.7176 129.259 74.68 125.032C78.7339 122.628 76.4051 115.997 70.3675 115.531C61.1386 114.795 60.9661 126.079 69.5481 124.567C69.5551 124.773 69.6128 124.975 69.7169 125.159C69.8211 125.343 69.9692 125.503 70.1507 125.629C70.3321 125.755 70.5423 125.844 70.7662 125.888C70.9901 125.932 71.2221 125.931 71.4456 125.886V125.886H72.6963C79.6718 130.295 88.0681 132.517 96.5879 132.207C95.7666 144.1 100.164 155.809 108.836 164.82C109.137 165.945 109.482 167.069 109.828 168.194C110.173 169.319 109.267 169.357 108.922 169.939C108.275 171.103 110.129 172.266 110.819 171.103C111.941 174.244 113.234 177.268 114.658 180.255C109.115 176.115 103.102 172.515 96.7173 169.513C93.7416 168.155 90.8953 166.682 88.0921 165.208C88.1367 165.039 88.128 164.863 88.0671 164.698C88.0061 164.534 87.8953 164.388 87.7471 164.277C79.122 158.266 74.3351 148.766 68.5131 140.583C64.2603 135.039 58.8569 130.285 52.5997 126.584C37.6805 116.718 19.4845 111.687 0.978304 112.313C0.773699 112.315 0.574974 112.375 0.409358 112.483C0.243742 112.591 0.119347 112.742 0.0532236 112.916C-0.0128994 113.09 -0.0175295 113.279 0.0399969 113.455C0.0975233 113.632 0.214387 113.788 0.374547 113.903C16.0292 124.024 23.3605 141.048 38.1958 152.139C51.8235 162.3 70.7125 160.399 86.3671 166.178L88.0059 167.108C103.31 174.452 117.107 184.091 128.803 195.611C134.102 201.161 138.972 207.03 143.379 213.178C139.374 210.43 135.033 208.101 130.442 206.237C130.362 206.106 130.242 205.998 130.097 205.927C107.197 189.872 73.1707 158.538 44.3627 181.263C43.8452 180.953 43.414 181.573 43.7159 181.961L42.6808 182.814C41.732 183.628 43.069 185.063 44.0609 184.21L45.3115 183.163C57.1503 192.204 70.3291 199.722 84.4696 205.5C99.4773 211.356 114.054 204.53 129.32 207.672C129.516 207.731 129.728 207.731 129.924 207.672C135.55 209.819 140.83 212.636 145.622 216.048C150.538 223.106 154.98 230.435 159.163 237.881C159.266 238.066 159.447 238.207 159.665 238.272C159.883 238.338 160.122 238.322 160.328 238.23C160.533 238.137 160.69 237.975 160.763 237.779C160.836 237.582 160.819 237.368 160.716 237.183C149.934 216.862 135.875 196.077 116.555 181.185C114.701 177.036 113.019 172.925 111.682 168.776C116.535 158.242 119.785 147.168 121.342 135.852C132.145 148.865 141.396 162.864 148.942 177.617C149.155 178.048 149.342 178.488 149.503 178.936C140.576 175.058 133.719 168.117 125.051 163.773C124.663 163.773 124.102 163.773 124.102 164.2C124.102 164.626 124.102 164.2 124.102 164.2C122.981 163.734 121.644 165.208 122.636 166.061L122.895 166.294C123.565 166.897 124.375 167.361 125.266 167.651C125.486 167.802 125.676 167.986 125.827 168.194C125.886 168.358 126.001 168.502 126.156 168.604C126.311 168.705 126.498 168.76 126.69 168.76C126.882 168.76 127.069 168.705 127.224 168.604C127.379 168.502 127.494 168.358 127.552 168.194C127.652 168.149 127.736 168.08 127.794 167.994C127.853 167.908 127.884 167.81 127.884 167.709C127.884 167.609 127.853 167.51 127.794 167.425C127.736 167.339 127.652 167.27 127.552 167.225L126.905 166.759C126.548 166.335 126.144 165.945 125.698 165.596C125.051 164.626 127.983 166.837 128.242 166.992C130.959 168.659 133.503 170.598 136.091 172.499C140.288 175.754 144.978 178.457 150.021 180.526C156.565 196.795 160.119 213.914 160.543 231.211L160.931 237.803C160.899 237.871 160.883 237.943 160.883 238.017C160.883 238.09 160.899 238.163 160.931 238.23V240.169C160.908 240.297 160.908 240.428 160.931 240.557C163.131 269.409 169.168 298.455 193.276 319.395C194.224 320.171 195.734 319.008 194.785 318.193C177.535 303.069 170.419 284.61 166.84 265.027C171.799 262.041 172.144 255.758 173.524 250.601C173.748 250.644 173.982 250.623 174.191 250.539C174.4 250.455 174.575 250.314 174.688 250.135C174.914 249.662 175.008 249.146 174.963 248.633C174.918 248.12 174.735 247.624 174.43 247.188C174.357 247.048 174.241 246.93 174.096 246.847C173.95 246.764 173.782 246.72 173.61 246.72C173.438 246.72 173.27 246.764 173.125 246.847C172.98 246.93 172.864 247.048 172.791 247.188C171.928 249.98 171.325 252.772 170.635 255.603C170.149 258.535 168.639 261.251 166.322 263.359C165.071 256.068 164.252 248.623 163.605 241.138C163.77 241.134 163.932 241.093 164.075 241.019C164.218 240.944 164.338 240.839 164.425 240.712C171.076 230.205 174.942 218.461 175.724 206.392C176.467 205.814 177.019 205.062 177.319 204.22C179.398 200.477 181.777 196.874 184.435 193.44C186.462 190.415 188.402 187.39 190.472 184.443C190.472 184.831 190.472 185.218 190.817 185.606C191.162 185.994 192.111 186.265 192.154 185.606C192.289 184.575 192.289 183.534 192.154 182.504C192.287 182.27 192.446 182.049 192.629 181.844C192.686 181.794 192.732 181.734 192.763 181.667C192.794 181.6 192.81 181.529 192.81 181.457C192.81 181.384 192.794 181.313 192.763 181.246C192.732 181.18 192.686 181.119 192.629 181.069L191.464 180.565C191.033 180.565 190.516 180.759 190.472 181.146C190.427 181.831 190.427 182.517 190.472 183.202C189.869 183.977 188.92 184.869 188.532 185.412C186.505 188.321 184.607 191.345 182.667 194.293C181.2 196.542 179.562 198.675 178.009 200.846C178.009 201.118 176.974 202.592 176.241 203.716C176.241 202.475 176.5 201.234 176.586 199.838C176.76 199.728 176.882 199.565 176.93 199.379C176.977 199.192 176.947 198.997 176.845 198.83V198.52C177.104 194.293 177.319 190.066 177.535 185.878C177.584 185.861 177.628 185.835 177.666 185.802C177.703 185.769 177.733 185.73 177.753 185.686C177.773 185.643 177.783 185.596 177.783 185.549C177.782 185.502 177.771 185.455 177.75 185.412C177.75 185.412 177.75 185.141 177.75 184.986L178.009 180.448C185.729 176.57 188.704 168.815 191.594 161.64C191.755 161.668 191.923 161.654 192.075 161.599C192.228 161.544 192.36 161.45 192.456 161.33V161.097H192.801H193.319C194.166 160.963 194.974 160.672 195.691 160.244C196.886 159.421 197.677 158.21 197.894 156.87C198.112 155.53 197.739 154.167 196.855 153.07C196.066 152.344 195.014 151.898 193.889 151.813C192.765 151.727 191.644 152.008 190.731 152.605C190.069 153.079 189.578 153.718 189.317 154.442C189.056 155.166 189.038 155.943 189.265 156.677C189.155 156.709 189.058 156.77 188.989 156.854C188.919 156.937 188.88 157.038 188.877 157.142C188.836 157.709 188.935 158.278 189.166 158.808C189.397 159.337 189.755 159.814 190.214 160.205V160.205C187.756 167.302 184.564 175.291 177.578 179.595C177.578 176.919 177.966 174.244 178.225 171.607C181.028 170.87 182.537 168.039 183.055 165.324C183.16 165.426 183.293 165.501 183.439 165.543C183.586 165.586 183.742 165.593 183.894 165.566C184.045 165.539 184.186 165.478 184.303 165.388C184.42 165.298 184.51 165.183 184.564 165.053C184.714 164.233 184.676 163.394 184.454 162.587C184.231 161.78 183.829 161.023 183.27 160.361C183.145 160.119 182.934 159.923 182.67 159.801C182.407 159.679 182.106 159.64 181.815 159.689C181.524 159.737 181.259 159.872 181.062 160.071C180.865 160.269 180.747 160.521 180.726 160.787C180.555 161.568 180.555 162.372 180.726 163.153C180.769 163.313 180.858 163.46 180.985 163.579C180.656 165.471 179.893 167.281 178.742 168.892C179.581 161.464 181.435 154.157 184.262 147.137C184.471 147.316 184.702 147.473 184.952 147.602C185.807 148.071 186.817 148.258 187.809 148.131C188.8 148.003 189.712 147.57 190.386 146.904C190.939 146.389 191.363 145.773 191.629 145.099C191.894 144.424 191.996 143.705 191.926 142.992C191.857 142.279 191.618 141.588 191.226 140.965C190.834 140.342 190.297 139.801 189.653 139.381C188.557 138.72 187.287 138.329 185.97 138.248C184.653 138.166 183.336 138.396 182.149 138.915C181.519 139.3 181.007 139.82 180.66 140.429C180.313 141.039 180.143 141.717 180.164 142.401C180.186 143.085 180.398 143.753 180.783 144.344C181.168 144.934 181.712 145.428 182.365 145.779C182.532 145.836 182.716 145.836 182.882 145.779C179.427 153.751 177.319 162.143 176.629 170.676C176.241 174.554 175.982 178.199 175.81 182C172.748 176.648 168.565 171.684 165.244 166.488C165.332 166.453 165.403 166.391 165.443 166.312C165.483 166.233 165.489 166.144 165.46 166.061C165.353 165.531 165.149 165.019 164.856 164.549C164.856 164.549 164.856 164.549 164.856 164.549C166.032 163.403 166.685 161.901 166.685 160.341C166.685 158.782 166.032 157.28 164.856 156.134C163.872 155.563 162.704 155.306 161.538 155.405C160.373 155.503 159.278 155.951 158.43 156.677C157.844 157.112 157.436 157.711 157.272 158.378C157.108 159.046 157.197 159.744 157.524 160.361C157.413 160.373 157.305 160.408 157.21 160.461C157.114 160.515 157.033 160.587 156.971 160.672C156.91 160.757 156.869 160.853 156.853 160.953C156.837 161.053 156.845 161.155 156.878 161.252C157.222 162.464 158.017 163.533 159.132 164.281C160.246 165.029 161.612 165.411 163.001 165.363C166.811 172.087 171.134 178.566 175.939 184.753C175.939 185.529 175.939 186.304 175.939 187.08C175.939 190.182 175.637 193.284 175.422 196.387L174.645 195.03C174.606 194.887 174.514 194.76 174.386 194.669C174.257 194.578 174.097 194.529 173.934 194.529C173.77 194.529 173.611 194.578 173.482 194.669C173.353 194.76 173.262 194.887 173.222 195.03L171.454 193.246C169.803 191.765 168.355 190.112 167.141 188.321H167.443C167.529 188.329 167.615 188.317 167.694 188.285C167.772 188.253 167.839 188.202 167.888 188.138C167.936 188.075 167.965 188 167.97 187.923C167.976 187.846 167.957 187.769 167.918 187.7C167.659 187.041 167.443 186.071 166.796 185.645H167.055C167.572 185.288 168 184.839 168.313 184.325C168.626 183.812 168.817 183.245 168.874 182.662C168.93 182.078 168.852 181.491 168.643 180.936C168.434 180.382 168.099 179.872 167.659 179.44C166.924 178.626 165.942 178.02 164.832 177.696C163.723 177.373 162.532 177.346 161.406 177.617C160.892 177.797 160.437 178.09 160.083 178.47C159.729 178.849 159.486 179.303 159.379 179.789C159.276 180.487 159.347 181.197 159.586 181.867C159.824 182.538 160.225 183.152 160.759 183.667C160.826 183.736 160.914 183.786 161.013 183.81C161.111 183.834 161.215 183.831 161.312 183.802C161.409 183.773 161.494 183.719 161.557 183.647C161.619 183.574 161.657 183.487 161.664 183.396C161.535 182.521 161.535 181.634 161.664 180.759C161.721 180.543 161.808 180.334 161.923 180.138C161.923 179.867 161.923 179.905 162.225 179.867C162.527 179.828 162.225 179.867 162.743 179.867C163.26 179.867 163.39 179.867 163.346 179.867C163.956 179.977 164.522 180.231 164.985 180.604C165.453 180.841 165.805 181.228 165.973 181.687C166.14 182.146 166.111 182.645 165.891 183.085C165.632 183.628 164.813 184.598 164.08 184.443C163.346 184.288 162.743 183.085 162.656 182.387C162.626 182.301 162.566 182.225 162.485 182.171C162.403 182.117 162.305 182.088 162.204 182.088C162.102 182.088 162.004 182.117 161.923 182.171C161.841 182.225 161.781 182.301 161.751 182.387C161.561 182.966 161.544 183.579 161.703 184.165C161.862 184.751 162.191 185.288 162.656 185.722C162.974 186.005 163.366 186.21 163.796 186.319C164.226 186.427 164.68 186.436 165.115 186.343C163.95 188.127 165.718 189.639 166.926 191.113C169.449 194.128 172.156 197.015 175.033 199.761C174.732 203.871 174.343 207.982 173.74 212.092C173.06 216.565 172.008 220.985 170.592 225.316C169.341 229.194 164.381 234.236 164.252 238.307L163.864 237.726C163.817 237.6 163.726 237.491 163.605 237.416C163.001 230.474 162.484 223.532 161.751 216.669C160.336 204.302 156.952 192.182 151.702 180.681C151.754 180.609 151.787 180.528 151.799 180.443C151.812 180.358 151.803 180.272 151.774 180.191C151.746 180.109 151.697 180.035 151.633 179.972C151.568 179.909 151.489 179.86 151.401 179.828V179.828C149.287 175.174 146.872 170.598 144.285 166.139C143.34 162.926 142.89 159.612 142.948 156.289C142.983 156.354 143.038 156.41 143.107 156.448C143.176 156.487 143.255 156.507 143.336 156.507C143.417 156.507 143.497 156.487 143.565 156.448C143.634 156.41 143.689 156.354 143.724 156.289C145.708 144.888 156.662 138.877 165.761 131.896C173.107 126.054 178.122 118.208 180.036 109.559C184.262 93.4659 179.174 75.9763 164.468 66.4753ZM32.0719 44.371V44.1383C32.0205 44.056 31.9348 43.9955 31.8337 43.97C31.7326 43.9446 31.6244 43.9563 31.5329 44.0026C31.4414 44.0488 31.374 44.1259 31.3457 44.2168C31.3174 44.3077 31.3304 44.405 31.3819 44.4873C31.4793 44.6037 31.5524 44.7351 31.5976 44.8751C30.5934 44.5025 29.6946 43.9327 28.9669 43.2076L27.7594 42.083C27.7717 41.6589 27.9384 41.2503 28.2338 40.9196C28.6646 40.3588 29.2844 39.9374 30.0019 39.7174C30.545 39.5396 31.1406 39.5396 31.6838 39.7174C31.9722 39.9816 32.1946 40.2982 32.3359 40.646C32.4773 40.9938 32.5343 41.3647 32.5032 41.734C32.61 42.5066 32.61 43.2881 32.5032 44.0607C32.5032 44.0607 32.1151 44.3322 32.0719 44.3322V44.371ZM43.5002 78.9235L42.5945 78.5745C41.9908 78.3031 41.4302 78.846 41.387 79.3501C41.1339 79.2843 40.8984 79.1728 40.6948 79.0224C40.4911 78.872 40.3237 78.686 40.2027 78.4755C40.0816 78.2651 40.0095 78.0346 39.9907 77.7983C39.9719 77.562 40.0068 77.3247 40.0933 77.1009C40.1796 73.8046 47.0796 77.1397 43.5002 78.9235V78.9235ZM70.9712 122.434H70.7125H70.3675C70.1897 122.436 70.015 122.475 69.8575 122.549C69.7 122.623 69.5644 122.73 69.4619 122.861V122.861C68.785 122.772 68.1362 122.557 67.557 122.23C66.9778 121.903 66.4809 121.47 66.0981 120.961C66.0981 118.362 67.4349 117.47 70.1518 118.324C72.8688 119.177 73.6019 121.891 70.9712 122.434V122.434ZM6.28274 114.678C34.1419 117.277 48.244 135.774 65.7962 151.674C59.3273 147.447 52.8585 143.026 46.6915 138.45C35.0907 130.113 22.843 120.805 8.5684 116.385L6.28274 114.678ZM39.317 150.898C30.6919 145.198 24.6543 136.317 18.5305 128.6C17.5817 127.437 14.951 123.83 12.1047 120.534C31.6407 136.046 52.8153 152.682 76.4913 161.64C76.9226 161.64 77.2245 161.214 76.8363 160.981C63.8986 153.535 50.961 146.827 38.7995 138.528C29.2688 132.013 20.2124 125.032 11.0266 118.168C34.8751 127.592 54.1523 145.818 75.7151 159.74C77.4832 161.059 79.2514 162.3 81.1058 163.618C66.8743 159.081 51.7372 158.926 39.2739 150.743L39.317 150.898ZM76.9657 158.654C55.4029 140.622 38.1526 115.997 6.45528 114.097C24.8299 114.628 42.4812 120.661 56.6104 131.237C67.8231 138.993 71.92 152.333 81.4508 161.33C79.8983 160.283 78.6045 159.352 76.9226 158.46L76.9657 158.654ZM50.7885 179.518C63.7037 176.813 77.2662 178.296 89.084 183.706C99.5635 187.972 107.197 195.96 116.728 201.428C104.307 196.813 93.9572 189.562 81.882 184.404C75.8501 181.897 69.293 180.575 62.648 180.526C58.415 179.59 54.0175 179.419 49.7103 180.022L50.7885 179.518ZM101.849 196.813C98.4238 195.686 95.0694 194.392 91.8009 192.935C85.2458 189.833 78.3458 185.955 71.1438 183.279C77.5631 184.449 83.6883 186.67 89.2134 189.833C93.2673 191.694 97.4504 194.331 101.806 196.619L101.849 196.813ZM46.2171 182.659L46.7777 182.232C46.8161 182.324 46.8886 182.401 46.9828 182.451C47.0771 182.5 47.1875 182.519 47.2953 182.504C52.8633 182.134 58.4512 182.069 64.028 182.31C74.4213 184.869 84.254 190.958 93.5691 195.107C101.21 198.287 109.059 201.045 117.073 203.367C103.329 203.112 89.8779 199.751 77.9576 193.595C67.9525 189.057 57.7748 183.977 46.519 182.698L46.2171 182.659ZM104.221 206.508C83.6071 208.564 64.4593 194.525 48.1578 183.939C60.7707 187.702 72.9932 192.452 84.6852 198.132C95.0785 202.669 107.585 206.896 119.186 204.065L122.42 205.112C116.317 205.168 110.225 205.57 104.178 206.314L104.221 206.508ZM122.032 203.367C100.469 190.492 81.1058 172.343 54.2385 177.85C76.362 168.892 100.857 187.08 118.409 200.071L123.541 203.949L122.032 203.367ZM100.167 40.8032C104.178 52.0493 101.289 63.5669 100.167 75.0068C98.0248 61.0267 94.5623 47.2359 89.8172 33.7841C86.2378 23.6627 80.502 12.2615 70.7125 5.90164C84.8577 11.4083 95.8548 28.4713 100.167 40.8032ZM69.9794 7.45282C93.3104 22.1115 92.7929 56.1211 98.4423 80.6686C90.4574 66.9833 84.305 52.495 80.1139 37.507C77.6558 28.8204 75.3701 16.4109 69.7206 7.45282H69.9794ZM71.8769 43.2464C71.1869 40.0664 70.6263 36.8865 70.0656 33.7066C75.2407 51.8554 81.537 69.8491 94.8197 84.12C80.2433 74.5414 74.982 59.3011 71.6182 43.2464H71.8769ZM99.3048 86.5631L97.2348 85.3997C97.2614 85.3515 97.2752 85.2984 97.2752 85.2446C97.2752 85.1908 97.2614 85.1377 97.2348 85.0895C78.1302 60.3869 73.7744 32.6983 63.1224 5.12606C63.1105 5.02617 63.1215 4.92515 63.1546 4.82922C63.1877 4.73328 63.2423 4.64445 63.315 4.56817C63.3877 4.4919 63.477 4.42979 63.5774 4.38569C63.6777 4.34158 63.787 4.31641 63.8986 4.31169L65.7099 5.08727C73.9038 17.3804 77.0088 31.7676 80.4589 45.7282C84.5661 60.035 90.8192 73.7726 99.0461 86.5631H99.3048ZM108.232 161.834C97.8385 149.696 96.2429 134.689 100.469 119.836C102.536 113.154 105.705 106.788 109.871 100.95C113.09 96.7707 116.743 92.8753 120.781 89.3165C106.895 107.853 91.4559 140.699 107.844 160.942C107.844 161.214 107.887 161.524 107.973 161.834H108.232ZM109.698 161.485C108.267 155.677 107.515 149.75 107.456 143.802C107.456 128.29 113.666 115.299 121.515 101.997C121.549 101.902 121.548 101.799 121.512 101.704C121.476 101.609 121.407 101.527 121.314 101.47C121.222 101.413 121.112 101.385 121 101.389C120.889 101.393 120.782 101.43 120.695 101.493C107.067 117.005 103.661 138.179 107.369 157.84C95.0354 135.774 109.698 108.396 122.722 88.9287C122.773 88.8482 122.804 88.7591 122.814 88.667C122.825 88.5749 122.813 88.4819 122.78 88.3941C122.748 88.3063 122.695 88.2257 122.626 88.1574C122.556 88.0891 122.471 88.0348 122.377 87.9979C122.672 87.7662 122.99 87.5586 123.326 87.3775C124.318 102.889 119.013 116.229 113.45 131.121C109.068 140.964 107.915 151.73 110.129 162.144L109.698 161.485ZM119.445 132.982C117.889 143.458 115.247 153.779 111.553 163.812C104.394 137.132 132.123 112.584 124.49 86.6794C125.655 86.2529 126.474 86.3692 126.819 87.455C130.528 100.058 123.541 115.648 120.523 127.902C119.919 129.647 119.531 131.315 119.186 132.982H119.445ZM121.687 134.223C122.161 131.896 122.679 129.531 123.196 127.204C127.499 133.057 130.366 139.667 131.606 146.594C128.199 142.522 124.878 138.334 121.428 134.223H121.687ZM192.586 155.978C192.587 155.629 192.742 155.294 193.017 155.048C193.262 154.87 193.557 154.757 193.87 154.723C194.183 154.689 194.5 154.734 194.785 154.854C195.017 154.982 195.198 155.171 195.303 155.397C195.467 156.021 195.391 156.678 195.087 157.258C194.937 157.603 194.705 157.913 194.407 158.168C194.109 158.422 193.752 158.615 193.362 158.732V158.538C193.291 158.416 193.194 158.308 193.075 158.222C192.956 158.135 192.819 158.071 192.672 158.034C192.622 157.341 192.507 156.653 192.327 155.978H192.586ZM183.141 142.251C183.124 142.043 183.171 141.835 183.278 141.65C183.385 141.465 183.546 141.311 183.745 141.203C184.41 140.891 185.15 140.728 185.901 140.728C186.652 140.728 187.392 140.891 188.057 141.203C188.39 141.319 188.692 141.497 188.942 141.725C189.192 141.954 189.384 142.228 189.507 142.529C189.629 142.831 189.679 143.152 189.652 143.472C189.625 143.791 189.523 144.102 189.351 144.383C188.532 146.284 186.893 146.167 185.47 145.314C185.815 144.577 184.78 144.151 184.219 144.5C183.893 144.206 183.604 143.881 183.357 143.53C183.117 143.132 182.956 142.699 182.882 142.251H183.141ZM161.276 163.541C160.622 163.344 160.03 163.008 159.55 162.563C159.07 162.118 158.715 161.575 158.516 160.981C158.878 161.23 159.313 161.378 159.767 161.408C159.885 161.42 160.004 161.404 160.112 161.36C160.22 161.316 160.312 161.246 160.379 161.158C160.445 161.07 160.484 160.967 160.49 160.861C160.496 160.754 160.47 160.648 160.414 160.554C159.896 159.624 159.379 159.12 160.414 158.305C160.813 157.948 161.317 157.7 161.866 157.591C162.416 157.481 162.989 157.513 163.519 157.685C165.201 158.305 164.726 161.563 164.123 162.571C163.999 162.825 163.817 163.053 163.591 163.241C163.364 163.43 163.097 163.574 162.805 163.665C162.514 163.756 162.205 163.792 161.897 163.77C161.589 163.749 161.29 163.671 161.018 163.541H161.276ZM162.786 67.5223L163.648 67.9877C164.079 68.8992 164.453 69.8313 164.77 70.7799C163.863 69.6088 162.869 68.4946 161.794 67.4448C161.794 67.4448 162.01 67.2509 162.527 67.5999L162.786 67.5223ZM163.088 71.09C164.055 72.3235 164.92 73.6197 165.675 74.968C167.702 89.2777 157.697 105.759 153.169 118.479C150.495 126.041 146.614 133.991 144.199 142.444L143.81 141.979C140.705 127.592 151.573 116.385 157.956 104.014C162.958 93.6985 166.451 82.0259 162.829 71.09H163.088ZM151.142 99.4379C154.382 93.111 157.261 86.6393 159.767 80.0482C160.669 77.515 161.347 74.9216 161.794 72.2923C161.794 72.0984 161.794 71.8656 161.794 71.633C166.581 88.4633 156.791 102.889 148.252 117.432C143.763 124.155 141.629 131.939 142.129 139.769C135.099 127.592 145.665 110.257 150.883 99.4379H151.142ZM144.716 147.951C144.232 148.82 143.842 149.729 143.552 150.666C145.449 136.938 152.996 122.434 157.869 110.723C161.794 101.299 167.4 89.4328 167.443 78.3806C171.725 89.4735 171.891 101.515 167.918 112.701C163.26 125.459 151.314 135.503 144.587 147.369C144.493 147.438 144.429 147.533 144.406 147.639C144.382 147.746 144.4 147.856 144.457 147.951H144.716ZM166.667 128.561C161.837 132.943 154.506 137.054 149.417 142.095C157.654 130.888 168.737 120.495 171.325 107.194C173.647 96.2612 172.265 84.9534 167.357 74.7353C167.357 73.9597 167.098 73.1842 166.969 72.4086C175.249 85.2058 174.645 99.5542 170.721 113.941C170.721 114.023 170.749 114.102 170.802 114.168C170.855 114.234 170.93 114.284 171.016 114.309C171.102 114.335 171.194 114.336 171.281 114.312C171.367 114.287 171.443 114.239 171.497 114.174C174.84 106.956 176.106 99.0974 175.179 91.3233C174.252 83.5492 171.161 76.1105 166.193 69.694C185.47 82.4912 182.106 114.135 166.408 128.561H166.667Z" fill="#CFC6AF"/>
<path d="M28.233 56.3928C28.3719 56.3757 28.5052 56.3323 28.6242 56.2655C28.7431 56.1986 28.845 56.1098 28.9229 56.005V56.005C30.8204 56.8969 32.2436 55.6172 32.7611 54.0272C33.2786 52.4372 32.7611 49.4899 30.2167 49.1021C29.2119 49.0273 28.2038 49.2053 27.3051 49.6162C26.4065 50.0271 25.6526 50.6548 25.128 51.429C24.8037 51.926 24.63 52.4907 24.6242 53.0669C24.6184 53.6432 24.7806 54.2107 25.0948 54.7129C25.409 55.2151 25.8641 55.6346 26.4147 55.9293C26.9653 56.2241 27.5923 56.3839 28.233 56.3928V56.3928ZM29.4405 51.3514C29.7445 51.2393 30.0853 51.2393 30.3892 51.3514C30.3892 51.3514 30.3892 51.3514 30.3892 51.6229C30.4255 51.8284 30.4255 52.0378 30.3892 52.2433C30.3892 52.7087 30.3892 54.415 29.6561 54.2599C28.6267 53.8671 27.8072 53.1302 27.3704 52.2045C27.9312 51.7151 28.6621 51.4139 29.4405 51.3514V51.3514Z" fill="#CFC6AF"/>
<path d="M61.8296 62.1708C62.0299 62.4146 62.2458 62.6477 62.4765 62.8688C62.5838 63.4899 62.8334 64.0841 63.2096 64.6139C63.5546 65.0405 64.1584 64.6139 64.374 64.6139C64.5896 64.6139 64.374 64.3037 64.374 64.1098C64.6531 64.1985 64.9575 64.1985 65.2365 64.1098C66.7459 63.4505 66.7891 61.8218 66.5735 60.5032C66.5475 60.3546 66.4886 60.2121 66.4002 60.0843C66.3119 59.9565 66.196 59.8459 66.0592 59.7591C65.9225 59.6723 65.7678 59.6111 65.6042 59.579C65.4407 59.547 65.2716 59.5447 65.1072 59.5725C64.5461 59.6839 64.0211 59.9097 63.5725 60.2325C63.1239 60.5552 62.7637 60.9663 62.5196 61.434C62.3214 61.4536 62.1391 61.541 62.0106 61.6782C61.8822 61.8154 61.8173 61.9918 61.8296 62.1708Z" fill="#CFC6AF"/>
<path d="M77.9157 116.501C77.4575 116.92 77.111 117.426 76.9025 117.983C76.6939 118.54 76.6287 119.132 76.7118 119.714C76.7948 120.297 77.024 120.855 77.382 121.346C77.74 121.838 78.2173 122.249 78.7782 122.551C78.8811 122.581 78.9906 122.589 79.0978 122.575C79.2049 122.56 79.3068 122.523 79.395 122.466C79.4832 122.41 79.5553 122.335 79.6055 122.249C79.6557 122.162 79.6825 122.066 79.6838 121.969C80.0597 122.392 80.5792 122.694 81.1632 122.827C81.7472 122.96 82.3636 122.917 82.9183 122.706C84.1258 122.24 84.7727 120.495 84.9021 119.371C84.9536 118.883 84.8792 118.392 84.6848 117.934C84.4903 117.477 84.1809 117.066 83.7808 116.734C82.9813 116.096 81.9621 115.724 80.8941 115.682C79.8262 115.639 78.7745 115.929 77.9157 116.501ZM81.9264 118.091C82.1165 118.181 82.2765 118.314 82.3902 118.477C82.5039 118.641 82.5671 118.829 82.5733 119.022C82.5585 119.704 82.2846 120.361 81.797 120.883C81.3227 121.31 80.0288 119.875 79.1232 118.75C79.0848 118.61 79.0848 118.464 79.1232 118.324C79.4756 117.984 79.9496 117.767 80.4621 117.711C80.9746 117.654 81.493 117.761 81.9264 118.013V118.091Z" fill="#CFC6AF"/>
<path d="M73.8183 132.517C74.3358 133.176 75.5433 132.866 76.1902 132.517C76.4176 132.402 76.5909 132.217 76.6782 131.996C76.7654 131.775 76.7606 131.533 76.6645 131.315C76.2333 130.655 75.5002 130.384 74.9827 129.841C74.4652 129.298 72.7833 129.841 73.3008 130.849C73.3222 131.043 73.3222 131.238 73.3008 131.431C73.2936 131.635 73.3361 131.838 73.4255 132.026C73.5149 132.213 73.649 132.381 73.8183 132.517V132.517Z" fill="#CFC6AF"/>
<path d="M124.49 161.718C124.861 162.14 125.376 162.439 125.956 162.571C126.648 162.685 127.361 162.617 128.011 162.376C128.661 162.136 129.22 161.732 129.622 161.214C131.002 159.507 129.191 157.607 127.595 156.754C126.767 156.218 125.793 155.891 124.777 155.809C123.76 155.728 122.737 155.893 121.816 156.288C121.431 156.582 121.143 156.965 120.983 157.396C120.824 157.827 120.799 158.289 120.911 158.732C121.032 159.428 121.339 160.088 121.804 160.655C122.269 161.222 122.88 161.68 123.584 161.989C123.748 162.029 123.922 162.025 124.083 161.976C124.244 161.928 124.386 161.838 124.49 161.718V161.718ZM123.714 158.809C123.694 158.681 123.694 158.55 123.714 158.421H124.318C124.855 158.495 125.378 158.639 125.87 158.848L126.517 159.158L127.078 159.507L127.336 159.74C127.15 159.915 126.931 160.06 126.689 160.167C125.956 160.593 125.094 159.546 124.619 159.12C124.507 159.044 124.371 159.003 124.231 159.003C124.091 159.003 123.955 159.044 123.843 159.12L123.714 158.809Z" fill="#CFC6AF"/>
<path d="M199.098 158.732C198.472 159.046 197.938 159.488 197.539 160.023C197.141 160.558 196.889 161.171 196.805 161.811C196.721 162.45 196.806 163.099 197.055 163.703C197.304 164.307 197.709 164.85 198.236 165.286C198.517 165.746 198.899 166.15 199.36 166.473C199.82 166.796 200.348 167.032 200.913 167.166C201.477 167.301 202.066 167.33 202.644 167.254C203.222 167.177 203.776 166.996 204.273 166.721C204.892 166.378 205.425 165.922 205.836 165.383C206.248 164.844 206.53 164.234 206.664 163.591C206.798 162.948 206.781 162.288 206.614 161.651C206.448 161.015 206.135 160.417 205.697 159.895C204.837 159.152 203.758 158.648 202.588 158.441C201.418 158.235 200.206 158.336 199.098 158.732ZM203.67 164.161C202.591 166.023 200.392 164.937 199.098 163.541C199.055 163.102 199.055 162.661 199.098 162.222C199.145 161.979 199.232 161.744 199.357 161.524C199.496 161.331 199.671 161.16 199.874 161.02C200.413 160.745 201.023 160.6 201.643 160.6C202.263 160.6 202.872 160.745 203.411 161.02C203.857 161.264 204.181 161.653 204.316 162.106C204.489 162.881 204.015 163.541 203.67 164.161Z" fill="#CFC6AF"/>
<path d="M195.043 183.512C194.568 184.093 194.352 184.812 194.44 185.529C194.467 185.725 194.543 185.913 194.66 186.081C194.778 186.248 194.934 186.39 195.119 186.497C195.304 186.604 195.512 186.674 195.73 186.701C195.948 186.728 196.17 186.712 196.38 186.654C196.491 186.596 196.586 186.517 196.66 186.424C196.735 186.33 196.786 186.223 196.811 186.111C197.674 187.468 199.011 189.058 200.693 188.476C202.375 187.895 201.685 186.227 201.383 185.335C201.113 184.25 200.463 183.271 199.528 182.543C199.166 182.333 198.76 182.192 198.335 182.127C197.91 182.062 197.475 182.075 197.055 182.166C196.636 182.257 196.242 182.423 195.896 182.654C195.55 182.885 195.26 183.177 195.043 183.512V183.512ZM199.356 186.266V186.498C198.561 186.038 197.884 185.429 197.372 184.715C197.287 184.696 197.198 184.696 197.113 184.715C197.415 184.366 197.76 184.21 198.148 184.366C198.536 184.521 198.709 184.986 198.881 185.258C199.072 185.581 199.23 185.918 199.356 186.266Z" fill="#CFC6AF"/>
<path d="M176.327 175.95C175.036 171.238 174.072 166.459 173.438 161.64L174.084 162.222C174.559 162.571 175.335 162.222 175.378 161.64V161.446C175.67 161.357 175.914 161.171 176.058 160.926C176.202 160.681 176.237 160.395 176.154 160.128C175.999 159.589 175.812 159.058 175.594 158.538C176.422 157.825 176.935 156.867 177.038 155.84C177.141 154.814 176.827 153.788 176.154 152.954C175.6 152.179 174.808 151.566 173.875 151.188C172.941 150.809 171.905 150.682 170.893 150.821C168.219 151.403 168.176 154.699 169.729 156.134C170.077 157.08 170.703 157.924 171.54 158.577C172.202 164.471 173.458 170.299 175.292 175.989C175.298 176.112 175.358 176.228 175.459 176.312C175.56 176.396 175.694 176.44 175.831 176.435C175.968 176.429 176.098 176.375 176.191 176.285C176.284 176.194 176.333 176.073 176.327 175.95V175.95ZM171.066 153.613C171.066 153.613 171.281 153.225 171.066 153.264C171.442 153.143 171.854 153.143 172.23 153.264C172.695 153.451 173.108 153.729 173.438 154.078C173.739 154.346 173.942 154.69 174.019 155.064C174.096 155.439 174.044 155.826 173.869 156.172C173.608 155.831 173.32 155.507 173.006 155.203C172.893 155.094 172.751 155.013 172.593 154.967C172.436 154.921 172.268 154.91 172.105 154.937C171.942 154.964 171.789 155.028 171.66 155.122C171.531 155.215 171.431 155.337 171.368 155.474C171.187 155.547 171.036 155.669 170.936 155.823L170.333 155.009C170.893 154.582 170.936 154.078 171.066 153.613Z" fill="#CFC6AF"/>
<path d="M193.321 175.058C193.496 175.107 193.681 175.118 193.862 175.091C194.042 175.063 194.213 174.997 194.36 174.899C194.507 174.801 194.626 174.673 194.708 174.525C194.79 174.378 194.831 174.215 194.83 174.05C194.965 173.866 195.038 173.65 195.038 173.43C195.038 173.209 194.965 172.993 194.83 172.809C194.562 172.29 194.213 171.806 193.795 171.374C193.613 171.148 193.341 170.994 193.036 170.944C192.731 170.893 192.416 170.95 192.156 171.103V171.103C191.873 171.192 191.637 171.372 191.494 171.608C191.35 171.845 191.31 172.121 191.38 172.383C191.449 172.785 191.58 173.176 191.768 173.546C190.878 174.012 190.052 174.572 189.31 175.214C187.341 177.192 185.127 178.961 182.712 180.488C182.108 180.837 182.367 181.767 183.143 181.612C183.957 181.45 184.751 181.216 185.515 180.914C185.609 180.873 185.685 180.805 185.732 180.721C185.779 180.637 185.793 180.541 185.774 180.449C186.507 179.983 187.197 179.479 187.844 178.975C188.49 178.471 191.854 174.787 193.321 175.058Z" fill="#CFC6AF"/>
<path d="M52.2969 90.3635C52.0911 89.9932 51.7301 89.7117 51.2934 89.5808C50.8566 89.4499 50.3799 89.4804 49.9682 89.6655C49.5564 89.8506 49.2433 90.1752 49.0977 90.568C48.9521 90.9607 48.986 91.3893 49.1919 91.7596V91.9923C48.7221 92.093 48.2957 92.3158 47.9659 92.6331C47.6362 92.9504 47.4176 93.348 47.3375 93.7762C47.1219 95.056 48.2863 95.8704 49.4075 96.3358C50.144 96.5859 50.9567 96.5859 51.6932 96.3358C52.6935 97.6359 53.9865 98.7325 55.4883 99.5546C55.6097 99.6157 55.7488 99.6423 55.8874 99.6311C56.0259 99.6198 56.1574 99.5711 56.2647 99.4914C56.3719 99.4118 56.4499 99.3048 56.4883 99.1846C56.5268 99.0643 56.5239 98.9365 56.4801 98.8177C55.5314 96.995 54.5826 95.2499 53.677 93.466C53.5994 92.9736 53.4545 92.4916 53.2457 92.0311C53.8063 91.7596 54.367 91.4882 54.9708 91.2555C58.3777 89.8594 62.259 89.937 65.6659 88.5796C65.7892 88.5084 65.8859 88.4055 65.9436 88.2843C66.0013 88.1631 66.0172 88.0291 65.9893 87.8997C65.9615 87.7703 65.8912 87.6513 65.7874 87.5582C65.6836 87.4651 65.5511 87.4022 65.4072 87.3774C60.8422 87.4684 56.3596 88.4894 52.2969 90.3635Z" fill="#CFC6AF"/>
<path d="M187.411 197.24V197.628C185.739 198.243 184.259 199.214 183.098 200.459C181.546 201.932 178.225 205.112 178.225 207.361C178.263 207.495 178.349 207.613 178.47 207.697C178.591 207.782 178.74 207.828 178.894 207.828C179.047 207.828 179.196 207.782 179.317 207.697C179.438 207.613 179.524 207.495 179.562 207.361C179.562 206.198 182.279 203.949 183.098 202.979C183.918 202.01 186.289 199.45 188.144 199.101C188.527 199.503 189.04 199.787 189.61 199.916H189.955C190.731 200.459 192.241 199.916 191.853 199.024C191.393 197.818 190.642 196.718 189.653 195.805C188.661 194.525 186.893 195.883 187.411 197.24Z" fill="#CFC6AF"/>
<path d="M131.219 180.061C131.206 179.405 131.045 178.758 130.744 178.16V177.889L131.176 177.501C133.882 176.424 136.862 176.022 139.801 176.338C140.318 176.338 140.792 175.64 140.189 175.368C137.879 174.403 135.259 174.224 132.814 174.864C132.669 174.576 132.431 174.334 132.131 174.168C131.832 174.002 131.484 173.921 131.132 173.933C130.116 173.922 129.133 174.261 128.387 174.881C127.641 175.502 127.188 176.356 127.122 177.269C127.068 177.713 127.117 178.163 127.267 178.589C127.418 179.016 127.665 179.409 127.993 179.745C128.322 180.081 128.725 180.351 129.176 180.539C129.628 180.727 130.118 180.828 130.615 180.836C130.712 180.822 130.805 180.791 130.888 180.744C130.971 180.697 131.043 180.636 131.099 180.563C131.156 180.491 131.195 180.409 131.216 180.323C131.236 180.237 131.237 180.147 131.219 180.061V180.061Z" fill="#CFC6AF"/>
</svg>
