<svg width="63" height="60" viewBox="0 0 63 60" fill="none" xmlns="http://www.w3.org/2000/svg">
<path d="M31.4533 24.0843C28.7257 23.6111 26.1593 22.466 23.9864 20.7524C23.7106 20.9819 23.4009 21.1675 23.0684 21.3027L23.252 21.5166C25.8571 22.679 28.5234 23.6995 31.2391 24.5734C31.3309 24.5123 31.3615 24.2983 31.4533 24.0843Z" fill="#F1DDCA"/>
<path d="M2.56628 7.02723C2.59749 7.00484 2.63496 6.99281 2.67339 6.99281C2.71182 6.99281 2.74927 7.00484 2.78049 7.02723C4.73415 7.08686 6.67923 7.31183 8.59484 7.69974L7.8604 6.99668C6.82808 6.54607 5.71256 6.31696 4.58601 6.32418C3.75068 6.26303 2.91199 6.26303 2.07666 6.32418C2.21592 6.5743 2.37994 6.80982 2.56628 7.02723V7.02723Z" fill="#F28FAD"/>
<path d="M2.53467 3.69537L4.34019 3.90907C3.60573 3.5122 2.9631 3.35956 2.53467 3.69537Z" fill="#DF0068"/>
<path d="M1.83043 5.71278C2.84737 5.59997 3.87369 5.59997 4.89063 5.71278C5.57137 5.75698 6.24708 5.85924 6.91037 6.01846L6.42073 5.55993C4.85515 4.99204 3.18177 4.7831 1.52441 4.94857C1.59316 5.21537 1.69601 5.47222 1.83043 5.71278V5.71278Z" fill="#F28FAD"/>
<path d="M1.83154 4.42854C3.09138 4.37301 4.35354 4.45491 5.59556 4.67278L5.28952 4.42854C4.06546 4.42854 2.99441 4.24537 1.95395 4.21484C1.90183 4.279 1.86049 4.35117 1.83154 4.42854V4.42854Z" fill="#DF0068"/>
<path d="M5.96246 10.7262C5.99838 10.7012 6.0411 10.6878 6.08487 10.6878C6.12864 10.6878 6.17136 10.7012 6.20728 10.7262C8.28032 11.2237 10.411 11.4396 12.5419 11.3682L11.7462 10.6651C9.48167 10.39 7.40075 10.2982 5.31982 10.2065L5.96246 10.7262Z" fill="#F28FAD"/>
<path d="M8.6254 13.4164C10.8903 13.4819 13.1442 13.7582 15.3578 14.2418L14.6234 13.3247C14.5895 13.339 14.5531 13.3464 14.5163 13.3464C14.4795 13.3464 14.4431 13.339 14.4092 13.3247C12.2493 13.3093 10.0925 13.1561 7.95215 12.8662L8.6254 13.4164Z" fill="#F28FAD"/>
<path d="M7.30852 12.0709C9.52677 12.5834 11.7948 12.8499 14.0716 12.8657L13.0311 11.857C10.7903 11.9406 8.54804 11.7351 6.35986 11.2456C6.72709 11.5207 7.0331 11.7958 7.30852 12.0709Z" fill="#F28FAD"/>
<path d="M4.52473 9.32012L4.83077 9.59524C6.87813 9.60212 8.92277 9.74508 10.9511 10.0232L10.3697 9.50354C10.341 9.51714 10.3096 9.52418 10.2779 9.52418C10.2461 9.52418 10.2148 9.51714 10.1861 9.50354C8.17029 9.08723 6.12289 8.84182 4.06572 8.76992C3.6985 8.76992 3.6067 8.21969 4.06572 8.21969C5.93529 8.29935 7.79665 8.51388 9.63525 8.86162C9.45164 8.67821 9.17622 8.43367 8.87021 8.09742C8.56419 7.76117 8.8702 8.09742 8.62539 8.09742C6.68047 7.68957 4.70493 7.44416 2.71924 7.36377C3.28265 8.05025 3.88549 8.70347 4.52473 9.32012Z" fill="#F28FAD"/>
<path d="M19.704 23.0141C20.5915 23.2586 21.5402 22.1888 21.7544 21.3023C21.7382 21.269 21.7297 21.2324 21.7297 21.1953C21.7297 21.1582 21.7382 21.1216 21.7544 21.0883V20.9049C21.5935 20.8139 21.4651 20.6749 21.3872 20.5075C21.2434 20.0002 21.0269 19.5163 20.7445 19.0708L19.8877 18.062C19.7594 18.0045 19.6524 17.9083 19.5817 17.7869C19.5875 17.7157 19.5875 17.6442 19.5817 17.573C18.9696 16.8088 18.327 16.0446 17.8067 15.2498C17.7787 15.1707 17.7787 15.0844 17.8067 15.0052C16.7357 13.9659 15.6034 12.9877 14.5017 11.9484C14.4641 11.8834 14.4443 11.8096 14.4443 11.7345C14.4443 11.6593 14.4641 11.5855 14.5017 11.5205C13.3389 10.3895 12.2678 9.22788 11.1967 8.00516C9.69194 6.21558 7.97597 4.61439 6.08619 3.23652C3.94406 1.86095 0.608446 1.73867 1.06748 4.85662C1.55822 6.72891 2.6294 8.39811 4.12767 9.62527C2.60173 8.39701 1.52571 6.69877 1.06748 4.7955C1.06748 4.7955 1.06748 4.45926 1.06748 4.39812V4.00072C1.03901 3.96525 1.021 3.92256 1.01548 3.87744C1.00996 3.83232 1.01714 3.78657 1.03621 3.7453C1.05528 3.70403 1.08548 3.66888 1.12344 3.64381C1.16139 3.61873 1.20559 3.60472 1.25108 3.60334C1.43469 3.29766 1.58771 3.29766 1.74072 3.38937C1.82574 3.20141 1.95109 3.03442 2.10793 2.90027C3.45442 1.95265 5.44354 3.5422 6.60642 4.58152C7.76929 5.62084 9.42181 7.39379 10.9213 8.73879C13.3374 10.6558 15.4074 12.9717 17.0417 15.586C17.0417 15.586 17.3171 15.8917 17.2253 16.0446C17.3612 16.4458 17.3631 16.8803 17.2307 17.2827C17.0982 17.6851 16.8386 18.0336 16.4909 18.276C15.1444 19.1931 13.2164 18.0315 11.87 17.1144L11.1355 16.5642C12.329 17.6647 13.4919 18.8263 14.7159 19.9267C16.016 21.2684 17.5928 22.3115 19.3368 22.9835C19.3368 22.9835 19.5204 22.9835 19.704 23.0141Z" fill="#A79573"/>
<path d="M23.7725 31.3593C23.7687 31.0672 23.8399 30.779 23.9792 30.5222C24.1184 30.2654 24.3212 30.0484 24.5681 29.892C23.6351 27.6799 22.3768 25.6193 20.8347 23.7783C20.6624 23.8063 20.4867 23.8063 20.3145 23.7783C20.3012 23.8251 20.2779 23.8685 20.2462 23.9054C20.2145 23.9424 20.1751 23.972 20.1309 23.9923C20.1467 24.0627 20.1467 24.1358 20.1309 24.2063C20.8694 25.3287 21.4366 26.5547 21.8139 27.8439C22.2588 29.1198 22.9215 30.3091 23.7725 31.3593V31.3593Z" fill="#F1DDCA"/>
<path d="M19.428 14.4552C20.8393 15.6336 21.8981 17.1778 22.4882 18.9182C22.4882 19.285 21.9985 19.2544 21.9067 18.9182C21.4484 17.4468 20.6154 16.1196 19.4892 15.0666C19.4365 15.2372 19.3647 15.4013 19.2749 15.5556C19.6439 15.9245 19.9817 16.3233 20.2848 16.7478C20.3771 16.7947 20.4521 16.8696 20.499 16.9618V17.1758C20.9024 17.7268 21.2606 18.3095 21.5701 18.9182C21.9191 19.4327 22.2261 19.9745 22.4882 20.5383C23.4062 20.2937 24.3549 19.3155 24.0794 18.4902C24.0794 18.3068 24.0794 18.1845 24.0794 18.1234C23.2661 16.4276 22.0972 14.9264 20.652 13.7216L17.1328 10.3896L17.7143 11.0927C18.5964 12.0262 19.1913 13.1934 19.428 14.4552V14.4552Z" fill="#A79573"/>
<path d="M13.1548 6.56873L11.1045 4.7041C11.9001 5.43772 12.604 6.11021 13.1548 6.56873Z" fill="#DF0068"/>
<path d="M46.9072 48.7532L48.7127 49.9148C51.4319 51.7316 54.0379 53.712 56.5162 55.845C53.6789 52.9863 50.6081 50.3688 47.3357 48.0195C47.3314 48.1679 47.29 48.3128 47.2151 48.4409C47.1403 48.5691 47.0344 48.6765 46.9072 48.7532V48.7532Z" fill="#DFC799"/>
<path d="M21.2935 23.4729C22.8416 25.3823 24.109 27.5027 25.0575 29.7699C25.4575 29.7518 25.8533 29.8587 26.1898 30.0755C26.4958 30.2589 26.1898 30.7175 25.9755 30.5341C25.7857 30.4038 25.563 30.3296 25.3329 30.3201C25.3329 30.5035 25.0269 30.5646 24.8433 30.3201C24.6135 30.5071 24.4445 30.7578 24.3573 31.0408C24.2702 31.3237 24.2689 31.626 24.3536 31.9096L25.6695 33.1323C27.2608 34.5079 28.9745 35.7307 30.5964 37.0451C32.2183 38.3595 34.2992 40.1019 36.2578 41.508C39.5016 43.8618 42.8678 46.0932 46.2646 48.2636C46.7848 48.2636 47.0602 47.6828 46.4482 47.2548C43.2044 44.8399 39.8994 42.5473 36.778 40.0102C33.2644 37.3169 30.0621 34.2412 27.2302 30.8397C25.0575 28.1498 24.7209 24.7261 22.7011 21.8833C22.2693 22.4451 21.799 22.9762 21.2935 23.4729V23.4729Z" fill="#F8EEE5"/>
<path d="M10.4005 15.0667C10.4005 15.0667 10.4005 15.0667 10.6147 15.0667C11.7215 15.3469 12.8462 15.5512 13.9809 15.6781C14.7384 15.8242 15.5054 15.9161 16.2761 15.9532C16.1449 15.5926 15.981 15.2447 15.7864 14.9138C13.6233 14.4278 11.4218 14.1312 9.20703 14.0273L10.4005 15.0667Z" fill="#F28FAD"/>
<path d="M7.06383 12.8659C6.5742 12.3463 5.87035 11.7043 5.07471 10.9707L7.06383 12.8659Z" fill="#DF0068"/>
<path d="M3.48399 1.06567C3.65402 1.01725 3.8342 1.01725 4.00422 1.06567C5.65672 0.546014 7.79886 1.95215 9.69618 3.57227C8.39381 2.08233 6.64409 1.05296 4.70808 0.637721C4.28538 0.538729 3.84547 0.538729 3.42278 0.637721C3.38629 0.706335 3.37258 0.784744 3.38358 0.861655C3.39458 0.938567 3.42974 1.01001 3.48399 1.06567Z" fill="#DF0068"/>
<path d="M15.8461 12.1629C16.8043 13.008 17.704 13.9169 18.5391 14.8835C19.0899 13.7525 17.2844 11.8267 16.55 10.8485C15.3843 9.54614 14.1153 8.33991 12.7554 7.24152L9.38915 4.18472C8.25689 3.23711 5.83933 1.12791 4.33984 1.64757C6.6572 2.83295 8.73284 4.43978 10.4602 6.38559C12.1739 8.40308 14.0712 10.3289 15.8461 12.1629Z" fill="#A79573"/>
<path d="M16.3666 16.6565V16.4119C15.6569 16.3917 14.9504 16.3099 14.255 16.1674C13.2266 16.0618 12.2049 15.8985 11.1948 15.6782L11.6232 16.0145L12.3271 16.5648C13.643 16.5648 14.8365 16.5648 15.9687 16.5648C15.999 16.5556 16.031 16.5532 16.0623 16.5578C16.0936 16.5624 16.1235 16.5739 16.1498 16.5915C16.1762 16.609 16.1983 16.6321 16.2146 16.6592C16.2309 16.6863 16.241 16.7167 16.2441 16.7482L16.3666 16.6565Z" fill="#F28FAD"/>
<path d="M51.1304 44.7785C53.6051 47.7447 56.3172 50.5049 59.2399 53.032C56.9518 50.6965 54.8058 48.2262 52.8135 45.6344L51.8648 44.3506C51.8648 44.3506 51.8648 44.3506 51.8648 44.534C51.7655 44.6225 51.6491 44.6898 51.5228 44.7318C51.3965 44.7739 51.263 44.7898 51.1304 44.7785V44.7785Z" fill="#DFC799"/>
<path d="M25.1189 18.9795C25.1058 19.0228 25.0821 19.0622 25.0501 19.0942C25.0181 19.1262 24.9786 19.1498 24.9353 19.1629C24.9003 19.6703 24.6829 20.148 24.3232 20.5079C26.5149 22.2117 29.1064 23.3271 31.8513 23.7481C31.9107 23.7271 31.9755 23.7271 32.0349 23.7481C32.4388 23.5152 32.8871 23.3694 33.3508 23.3202C33.6874 23.3202 33.9016 23.7787 33.565 23.8398C33.1877 23.8379 32.8175 23.9432 32.4978 24.1434C32.1781 24.3437 31.9221 24.6307 31.7595 24.9709L32.5552 25.4905C36.0949 28.1156 39.3466 31.1076 42.256 34.4164C45.3161 37.4732 47.8255 40.9274 50.6103 44.1676C50.8551 44.1676 51.1917 44.3204 51.3447 44.1676C51.3754 44.068 51.3754 43.9615 51.3447 43.8619C48.866 40.4994 46.326 37.1064 43.6331 33.8967C42.103 32.0626 40.5728 30.2897 38.8285 28.5473C37.0842 26.8049 36.0744 25.4905 34.6055 23.901C33.0872 22.244 31.1699 21.0024 29.0359 20.2939C27.7061 19.9927 26.4276 19.4983 25.2413 18.8267C25.2413 18.8267 25.2107 18.9795 25.1189 18.9795Z" fill="#F8EEE5"/>
<path d="M12.9702 17.023C14.0719 17.7261 15.3571 18.3068 16.0304 17.5426C16.1131 17.4553 16.1758 17.351 16.214 17.237H15.8468C15.7703 17.2489 15.692 17.2342 15.6251 17.1952C15.5582 17.1562 15.5068 17.0954 15.4795 17.023C14.6533 17.0536 13.7965 16.9924 12.9702 17.023Z" fill="#F28FAD"/>
<path d="M18.9378 24.176C20.1128 25.8501 21.0212 27.6959 21.6308 29.6477C22.5468 31.2318 23.7507 32.6314 25.1806 33.7743C26.7413 35.1805 28.4857 36.3727 30.077 37.6871C31.6683 39.0015 33.8104 40.7439 35.7383 42.15C39.5329 44.9623 43.5418 47.4994 47.4588 50.006C51.3759 52.5126 55.3541 56.1196 59.3018 59.1764C59.669 59.4516 60.2198 59.1764 59.8832 58.6873C53.7628 50.9842 45.3473 46.0322 37.7274 40.0408C33.9968 37.2248 30.5986 33.9944 27.5982 30.4119C26.4964 28.7022 25.6316 26.8513 25.0276 24.9096C24.7551 24.2274 24.4382 23.5636 24.079 22.9227C24.7455 23.2468 25.4301 23.5326 26.1293 23.7786C28.1229 24.2491 30.0394 25.0005 31.8213 26.0101C35.6043 28.7605 39.0549 31.9405 42.1035 35.4862C48.5911 42.6697 54.0688 50.7702 62.1784 56.3336C62.6374 56.6393 62.9434 56.0891 62.6374 55.7222C59.3324 51.9929 55.7825 48.5387 52.8448 44.5343C49.907 40.5299 47.3058 36.984 44.2762 33.4075C42.7155 31.5735 41.216 29.8005 39.4411 28.0581C37.6662 26.3157 36.7176 25.0013 35.2487 23.4118C33.9983 22.068 32.516 20.9601 30.8726 20.141C28.8672 19.6627 26.9475 18.8791 25.1806 17.8178C25.1167 17.777 25.0423 17.7553 24.9664 17.7553C24.8905 17.7553 24.8162 17.777 24.7522 17.8178C23.8073 15.9371 22.5086 14.2558 20.927 12.8658C18.8154 10.94 16.7957 8.95307 14.8066 6.99671C12.7125 4.8283 10.4173 2.86315 7.95176 1.12764C7.23532 0.577393 6.39308 0.213828 5.50094 0.0697478C4.60879 -0.0743321 3.69477 0.00558773 2.84125 0.302287L2.44341 0.638538L2.01498 1.24989C2.01498 1.24989 2.01498 1.49444 2.01498 1.58614C1.62482 1.69485 1.26348 1.88821 0.956691 2.15239C0.649898 2.41658 0.40522 2.74509 0.24009 3.11455C-0.0321189 3.97826 -0.0736671 4.89803 0.11957 5.78273C0.312807 6.66742 0.734101 7.48633 1.34174 8.15829C3.23241 10.4956 5.35475 12.6361 7.67636 14.547C9.75729 16.4728 11.8994 18.3986 13.7967 20.355C15.1861 21.8318 16.8489 23.0256 18.693 23.8703C18.7106 23.9353 18.7414 23.9961 18.7835 24.0487C18.8256 24.1013 18.8782 24.1446 18.9378 24.176V24.176ZM56.517 55.8445C54.0386 53.7115 51.4326 51.7312 48.7135 49.9143L46.908 48.7527C47.0352 48.676 47.141 48.5687 47.2159 48.4405C47.2907 48.3123 47.3322 48.1674 47.3364 48.0191C50.6089 50.3684 53.6797 52.9859 56.517 55.8445V55.8445ZM22.6407 22.0362C24.7216 24.879 25.0582 28.4249 27.231 31.2066C30.0628 34.6081 33.2652 37.6838 36.7788 40.3771C39.839 42.9142 43.2052 45.2068 46.4184 47.5911C47.061 48.0497 46.7856 48.6304 46.4184 48.6304C43.0216 46.4601 39.6554 44.2286 36.4116 41.8749C34.453 40.4688 32.5863 38.8181 30.7502 37.412C28.9141 36.0058 27.4146 34.8748 25.8233 33.4992L24.5074 32.2765C24.4227 31.9929 24.4239 31.6905 24.5111 31.4076C24.5982 31.1247 24.7673 30.874 24.997 30.687C25.1806 30.8398 25.4867 30.687 25.4867 30.687C25.7168 30.6965 25.9395 30.7707 26.1293 30.901C26.4659 31.0844 26.6495 30.6258 26.3435 30.4424C26.007 30.2255 25.6113 30.1187 25.2112 30.1368C24.2628 27.8696 22.9954 25.7492 21.4472 23.8397C22.0142 23.414 22.4406 22.8285 22.6713 22.1585L22.6407 22.0362ZM23.2527 21.6083L23.0691 21.3943C23.4017 21.2591 23.7113 21.0736 23.9872 20.8441C26.16 22.5576 28.7264 23.7028 31.454 24.176C31.454 24.3899 31.454 24.6039 31.2398 24.7873C28.5197 23.8434 25.8534 22.7515 23.2527 21.5166V21.6083ZM52.8142 45.7265C54.8065 48.3183 56.9525 50.7885 59.2406 53.124C56.3179 50.597 53.6058 47.8367 51.1311 44.8706C51.3572 44.8622 51.5735 44.7757 51.7431 44.626C51.7431 44.626 51.7431 44.626 51.7431 44.4426L52.8142 45.7265ZM29.1283 20.2938C31.2623 21.0022 33.1795 22.2439 34.6978 23.9009C36.1667 25.4293 37.4826 26.9577 38.9209 28.5472C40.3592 30.1367 42.1953 32.0625 43.7254 33.8966C46.4184 37.1063 48.9583 40.4993 51.4371 43.8618C51.4678 43.9614 51.4678 44.0679 51.4371 44.1675C51.2841 44.412 50.9475 44.3509 50.7026 44.1675C47.9179 40.9273 45.2555 37.5648 42.3483 34.4163C39.3718 31.0959 36.0478 28.1036 32.4333 25.4904L31.6376 24.9707C31.8002 24.6306 32.0563 24.3436 32.376 24.1433C32.6957 23.943 33.0658 23.8377 33.4432 23.8397C33.7798 23.8397 33.4432 23.2589 33.2289 23.3201C32.7652 23.3693 32.3169 23.515 31.9131 23.748C31.8537 23.727 31.7888 23.727 31.7294 23.748C28.9845 23.327 26.393 22.2116 24.2014 20.5078C24.561 20.1478 24.7784 19.6702 24.8134 19.1628C24.8568 19.1497 24.8962 19.1261 24.9282 19.0941C24.9602 19.0621 24.9839 19.0227 24.997 18.9794C24.997 18.9794 25.1806 18.9794 25.2112 18.9794C26.4495 19.5776 27.7694 19.9896 29.1283 20.2021V20.2938ZM20.7128 13.8134C22.1579 15.0182 23.3268 16.5194 24.1402 18.2152C24.1402 18.2152 24.1402 18.3986 24.1402 18.582C24.4156 19.4074 23.4669 20.3855 22.5795 20.6912C22.3399 20.1447 22.0314 19.6311 21.6614 19.1628C21.3649 18.4926 20.9954 17.8571 20.5598 17.2676V17.0536C20.5128 16.9615 20.4378 16.8866 20.3455 16.8396C20.0424 16.4151 19.7047 16.0163 19.3357 15.6475C19.4254 15.4931 19.4973 15.329 19.5499 15.1584C20.6761 16.2114 21.5092 17.5386 21.9674 19.01C21.9674 19.3462 22.6101 19.3768 22.5489 19.01C21.9588 17.2696 20.9 15.7255 19.4887 14.547C19.252 13.2853 18.6571 12.118 17.775 11.1845L17.1935 10.4815L20.7128 13.8134ZM4.27954 1.76957C5.84024 1.24991 8.25778 3.32854 9.39006 4.27615L12.7563 7.33296C14.1162 8.43136 15.3852 9.63762 16.5509 10.94C17.2853 11.7959 19.0909 13.9968 18.54 14.975C17.705 14.0084 16.8052 13.0994 15.8471 12.2544C13.9191 10.4203 12.1748 8.49455 10.3693 6.56876C8.6749 4.58476 6.60552 2.95393 4.27954 1.76957V1.76957ZM13.1541 6.56876C12.6032 6.11024 11.8994 5.43774 11.1038 4.7041L13.1541 6.56876ZM3.42267 0.91364C3.84536 0.814648 4.28527 0.814648 4.70797 0.91364C6.61689 1.27065 8.3633 2.22318 9.69607 3.63422C7.79875 2.01411 5.65662 0.577413 4.00411 1.12764C3.95294 1.09813 3.89489 1.08258 3.8358 1.08258C3.77671 1.08258 3.71866 1.09813 3.66749 1.12764C3.45328 1.00537 3.45327 0.944208 3.42267 0.91364ZM5.07517 11.0011C5.87082 11.7348 6.57467 12.3767 7.0643 12.8964L5.07517 11.0011ZM14.7148 19.9881C13.4907 18.8877 12.3278 17.7261 11.1344 16.6257L11.8688 17.1759C13.2153 18.0929 15.1432 19.2545 16.4897 18.3375C16.8376 18.103 17.0963 17.7584 17.224 17.359C17.3517 16.9597 17.341 16.529 17.1935 16.1366C17.2537 16.0693 17.2871 15.9822 17.2871 15.892C17.2871 15.8018 17.2537 15.7147 17.1935 15.6475C15.5593 13.0331 13.4893 10.7173 11.0731 8.80021C9.57365 7.45522 8.25778 5.95738 6.75829 4.64295C5.25879 3.32852 3.69809 2.01411 2.2598 2.96172C2.1422 3.05858 2.03915 3.17183 1.95379 3.29797C1.73958 3.29797 1.58656 3.29795 1.46415 3.5425C1.34174 3.78704 1.12754 3.90933 1.21935 4.06217V4.45955C1.21935 4.45955 1.21935 4.73465 1.21935 4.85693C1.67758 6.76019 2.75361 8.45844 4.27954 9.68669C2.78128 8.45954 1.7101 6.79036 1.21935 4.91808C0.760321 1.86127 4.09593 1.86127 6.23806 3.29797C8.00973 4.69651 9.61187 6.29687 11.012 8.06659C12.083 9.28931 13.1541 10.4509 14.317 11.5819C14.2794 11.647 14.2596 11.7208 14.2596 11.7959C14.2596 11.871 14.2794 11.9448 14.317 12.0099C15.4186 12.9881 16.5509 13.9662 17.622 15.0667C17.594 15.1458 17.594 15.2321 17.622 15.3112C18.1422 16.106 18.7848 16.8702 19.3969 17.6344C19.4027 17.7056 19.4027 17.7772 19.3969 17.8484C19.4676 17.9697 19.5746 18.066 19.7029 18.1235L20.5598 19.1322C20.8422 19.5777 21.0586 20.0616 21.2024 20.5689C21.2512 20.7025 21.3499 20.8121 21.4778 20.8746C21.506 20.9642 21.506 21.0602 21.4778 21.1497C21.4616 21.1831 21.4531 21.2197 21.4531 21.2567C21.4531 21.2938 21.4616 21.3304 21.4778 21.3637C21.2636 22.2502 20.3149 23.3201 19.4275 23.0755C19.2439 23.0755 19.1215 23.0755 19.0602 23.0755C17.4121 22.3604 15.9319 21.3087 14.7148 19.9881V19.9881ZM4.89157 4.49013C5.07178 4.48919 5.24606 4.55446 5.38121 4.67353C4.20948 4.4705 3.01992 4.38854 1.83138 4.42898C1.82133 4.358 1.82133 4.28597 1.83138 4.215C2.87184 4.24557 3.94291 4.42899 4.89157 4.49013ZM2.44341 3.69535C2.87183 3.3591 3.51449 3.51194 4.24893 3.90932L2.44341 3.69535ZM6.45227 5.59058L6.94189 6.04908C6.2786 5.88986 5.60291 5.7876 4.92218 5.7434C3.90524 5.63059 2.87893 5.63059 1.86199 5.7434C1.77206 5.50694 1.71041 5.26069 1.67836 5.00978C3.32332 4.83916 4.98568 5.0376 6.54408 5.59058H6.45227ZM4.49375 6.23251C5.54673 6.23805 6.58769 6.45641 7.55394 6.87443C7.92117 7.14955 8.13537 7.39408 8.38019 7.60806C6.46458 7.22016 4.51948 6.99518 2.56582 6.93556C2.5346 6.91317 2.49715 6.90114 2.45872 6.90114C2.42029 6.90114 2.38282 6.91317 2.35161 6.93556C2.15988 6.68926 1.99571 6.42276 1.86199 6.14081C2.77084 6.09924 3.68157 6.1299 4.58556 6.23251H4.49375ZM8.71681 8.18886C8.71681 8.18886 8.93103 8.18886 8.96163 8.18886L9.69607 8.95306C7.86801 8.60369 6.01671 8.38914 4.15713 8.31114C3.78991 8.31114 3.88171 8.86136 4.15713 8.86136C6.2143 8.93326 8.26172 9.17868 10.2775 9.59499C10.3062 9.60859 10.3376 9.61563 10.3693 9.61563C10.4011 9.61563 10.4324 9.60859 10.4611 9.59499L11.0426 10.1146C9.01338 9.84033 6.96962 9.68722 4.92218 9.65612C4.7597 9.61518 4.61154 9.53063 4.49375 9.41159C3.91997 8.8196 3.37853 8.19715 2.87183 7.54693C4.8652 7.59541 6.85103 7.81013 8.80861 8.18886H8.71681ZM11.471 10.6037C11.8338 10.7698 12.1651 10.9973 12.4502 11.2762C10.3194 11.3477 8.1887 11.1317 6.11565 10.6343C6.07973 10.6093 6.03701 10.5959 5.99324 10.5959C5.94947 10.5959 5.90675 10.6093 5.87083 10.6343L5.22819 10.0229C7.34838 10.1067 9.46276 10.3006 11.5628 10.6037H11.471ZM13.0317 11.8265L14.0721 12.8658C11.7759 12.8676 9.48674 12.6112 7.24791 12.1016C6.93725 11.832 6.64104 11.5463 6.36047 11.2457C8.57984 11.7328 10.8534 11.9281 13.1235 11.8265H13.0317ZM14.317 13.416C14.3509 13.4303 14.3873 13.4377 14.4241 13.4377C14.4609 13.4377 14.4973 13.4303 14.5312 13.416L15.2656 14.3331C13.052 13.8495 10.7982 13.5732 8.53321 13.5077L7.95176 12.8658C10.0902 13.1864 12.2469 13.3701 14.4088 13.416H14.317ZM15.6328 14.8527C15.8691 15.1687 16.0549 15.5193 16.1837 15.892C15.4131 15.855 14.6461 15.763 13.8885 15.6169C12.7538 15.49 11.6291 15.2858 10.5223 15.0055C10.5223 15.0055 10.3387 15.0055 10.3081 15.0055L9.11463 13.9051C11.3422 14.0198 13.5547 14.337 15.7247 14.8527H15.6328ZM15.8165 16.5034C14.6842 16.5034 13.4907 16.5034 12.3278 16.5034C12.0112 16.4171 11.7183 16.2604 11.471 16.0449L11.0426 15.7086C12.0526 15.9289 13.0743 16.0922 14.1028 16.1977C14.7982 16.3402 15.5047 16.422 16.2143 16.4422V16.6868H16.0307C16.0288 16.648 16.0165 16.6104 15.9949 16.5781C15.9734 16.5458 15.9434 16.52 15.9083 16.5034H15.8165ZM15.8165 17.2676H16.1837C16.1455 17.3816 16.0828 17.486 16.0001 17.5733C15.3268 18.3375 14.0415 17.7567 12.9399 17.0536C13.7661 17.0536 14.623 17.0536 15.4492 17.0536C15.4772 17.1322 15.5333 17.1976 15.6069 17.2372C15.6804 17.2767 15.766 17.2876 15.8471 17.2676H15.8165ZM19.9783 24.2677C19.9941 24.1972 19.9941 24.1242 19.9783 24.0537C20.0226 24.0334 20.062 24.0038 20.0937 23.9669C20.1254 23.9299 20.1486 23.8865 20.1619 23.8397C20.3342 23.8677 20.5099 23.8677 20.6822 23.8397C22.2243 25.6806 23.4826 27.7412 24.4156 29.9533C24.1687 30.1098 23.9659 30.3268 23.8267 30.5836C23.6874 30.8404 23.6162 31.1286 23.62 31.4206C22.7316 30.3981 22.0275 29.2294 21.539 27.9664C21.2152 26.6646 20.6995 25.4181 20.0089 24.2677H19.9783Z" fill="#333333"/>
</svg>
