<svg width="1440" height="761" viewBox="0 0 1440 761" fill="none" xmlns="http://www.w3.org/2000/svg">
<rect width="1440" height="761" fill="#FF1515" fill-opacity="0.04"/>
<path d="M1438.24 504.187C1438.24 503.993 1438.24 503.8 1437.94 503.606C1437.89 503.513 1437.82 503.431 1437.73 503.365C1437.64 503.298 1437.54 503.249 1437.43 503.219C1437.32 503.19 1437.21 503.182 1437.09 503.195C1436.98 503.208 1436.87 503.243 1436.77 503.296C1436.08 502.909 1435.44 502.483 1434.71 502.134C1434.52 502.026 1434.31 501.968 1434.09 501.967C1433.87 501.966 1433.66 502.023 1433.48 502.13C1433.29 502.237 1433.15 502.389 1433.06 502.569C1432.97 502.749 1432.95 502.948 1432.98 503.141C1435.27 518.633 1422.43 535.751 1416.4 549.809C1412.1 559.375 1408.44 571.304 1416.4 579.863C1416.38 580.237 1416.38 580.612 1416.4 580.986C1416.42 581.069 1416.47 581.147 1416.53 581.21C1416.6 581.274 1416.68 581.321 1416.77 581.348C1416.86 581.376 1416.96 581.381 1417.05 581.365C1417.15 581.349 1417.23 581.312 1417.31 581.257C1415.37 587.439 1414.92 593.921 1415.97 600.273C1412.91 595.315 1409.6 590.436 1406.11 585.672C1406.13 585.595 1406.13 585.516 1406.11 585.44C1406.37 577.074 1400.64 570.684 1396.98 563.481C1396.98 562.628 1397.32 561.815 1397.54 560.963C1400.86 548.26 1406.71 533.195 1400.99 520.414C1400.91 520.272 1400.79 520.147 1400.65 520.051C1400.51 519.955 1400.34 519.89 1400.17 519.86C1399.99 519.83 1399.81 519.836 1399.64 519.879C1399.47 519.921 1399.31 519.998 1399.18 520.105C1392.45 524.866 1386.63 530.582 1381.95 537.029C1380.18 533.659 1378.38 530.329 1376.57 527.037C1376.68 526.989 1376.77 526.915 1376.83 526.823C1376.9 526.73 1376.93 526.623 1376.93 526.514C1376.93 526.405 1376.9 526.298 1376.83 526.206C1376.77 526.113 1376.68 526.039 1376.57 525.991L1375.79 525.643C1375.58 525.178 1375.32 524.752 1375.06 524.287C1376.05 505.659 1381 486.72 1371.66 469.215C1365.63 457.868 1354.43 444.042 1340 440.75C1339.05 439.741 1338.01 438.796 1336.9 437.922C1336.3 437.496 1335.7 438.271 1336.09 438.774C1336.47 439.278 1336.82 439.743 1337.21 440.246H1336.82L1335.22 439.743C1335.18 439.701 1335.13 439.668 1335.08 439.646C1335.02 439.623 1334.96 439.612 1334.9 439.612C1334.84 439.612 1334.78 439.623 1334.72 439.646C1334.67 439.668 1334.62 439.701 1334.58 439.743L1333.11 439.433C1332.34 439.433 1332.08 440.44 1332.86 440.672L1333.54 440.905C1333.5 441.057 1333.5 441.217 1333.54 441.369C1346.46 468.75 1338.24 511.081 1373.08 526.03C1373.08 527.114 1373.34 528.16 1373.55 529.244C1373.77 530.329 1374.8 529.825 1374.84 529.244V528.199C1376.95 531.684 1379.15 535.131 1381 538.539C1378.5 542.132 1376.35 545.917 1374.59 549.848C1365.59 536.913 1353.05 526.921 1340.13 516.851C1341.81 516.387 1342.29 514.76 1342.59 513.366C1342.89 511.971 1342.8 509.493 1343.23 507.634C1343.69 508.263 1344.29 508.792 1345 509.183L1345.73 509.88C1345.86 509.967 1346.01 510.029 1346.16 510.062C1346.32 510.096 1346.48 510.1 1346.64 510.075C1346.8 510.049 1346.95 509.995 1347.08 509.914C1347.21 509.834 1347.33 509.73 1347.41 509.609C1347.52 509.531 1347.6 509.43 1347.66 509.315C1347.71 509.2 1347.73 509.074 1347.71 508.951V508.951C1347.75 508.785 1347.75 508.613 1347.71 508.447C1347.71 508.447 1347.71 508.447 1347.71 508.447C1347.34 507.493 1346.69 506.648 1345.82 506.007C1345.62 505.788 1345.35 505.627 1345.04 505.543L1343.97 504.845C1343.88 504.768 1343.78 504.707 1343.67 504.665C1343.56 504.623 1343.44 504.601 1343.32 504.601C1343.2 504.601 1343.08 504.623 1342.97 504.665C1342.86 504.707 1342.76 504.768 1342.67 504.845C1341.81 506.586 1341.38 508.477 1341.43 510.384C1341.43 511.778 1341.64 515.38 1339.79 515.999C1339.73 516.014 1339.68 516.039 1339.64 516.072C1339.59 516.106 1339.56 516.147 1339.53 516.193L1335.96 513.366C1333.82 508.582 1332.08 503.663 1330.75 498.649C1330.84 498.516 1330.89 498.362 1330.89 498.203C1330.89 498.045 1330.84 497.89 1330.75 497.758C1330.62 497.556 1330.47 497.362 1330.31 497.177V496.984V496.674C1336.17 493.769 1329.32 483.777 1323.51 489.16C1323.31 489.298 1323.15 489.474 1323.04 489.675C1322.94 489.877 1322.88 490.098 1322.88 490.322C1322.88 490.546 1322.94 490.768 1323.04 490.969C1323.15 491.17 1323.31 491.346 1323.51 491.484C1324.25 492.022 1325.18 492.296 1326.12 492.253C1327.07 492.21 1327.96 491.853 1328.63 491.252C1329.54 492.336 1329.54 494.35 1327.69 494.776C1327.43 494.813 1327.2 494.91 1327 495.059C1326.8 495.208 1326.65 495.402 1326.57 495.621C1326.48 495.839 1326.47 496.074 1326.52 496.301C1326.57 496.527 1326.69 496.736 1326.87 496.906C1327.64 497.526 1328.42 498.184 1329.15 498.881L1329.54 499.114C1331.22 502.602 1332.51 506.235 1333.37 509.958C1333.37 510.5 1333.8 511.081 1334.02 511.623C1329.97 508.331 1325.96 504.923 1322.22 501.36C1322.32 501.331 1322.42 501.272 1322.48 501.192C1322.55 501.112 1322.59 501.015 1322.59 500.914C1322.59 500.814 1322.55 500.717 1322.48 500.637C1322.42 500.556 1322.32 500.498 1322.22 500.469C1317.44 498.959 1316.23 490.245 1316.58 484.745C1316.83 484.641 1317.05 484.485 1317.22 484.29C1317.39 484.095 1317.51 483.866 1317.57 483.622C1317.91 481.802 1317.27 478.51 1314.29 479.439C1311.32 480.369 1312.44 484.474 1314.29 486.101C1314.35 486.166 1314.43 486.218 1314.52 486.254C1314.6 486.29 1314.69 486.309 1314.79 486.309C1314.88 486.309 1314.98 486.29 1315.06 486.254C1315.15 486.218 1315.22 486.166 1315.28 486.101C1315.32 489.156 1315.67 492.202 1316.32 495.202C1313.17 491.828 1310.29 488.256 1307.71 484.513C1308.78 483.297 1309.3 481.762 1309.17 480.214C1309.28 479.426 1309.18 478.626 1308.88 477.879C1308.58 477.132 1308.09 476.459 1307.45 475.915C1306.25 475.255 1304.83 475.024 1303.46 475.268C1302.08 475.512 1300.86 476.214 1300.04 477.232L1299.65 477.813C1299.5 477.77 1299.34 477.768 1299.19 477.806C1299.03 477.844 1298.9 477.921 1298.79 478.027C1298.69 478.134 1298.62 478.265 1298.6 478.406C1298.57 478.547 1298.6 478.69 1298.66 478.82L1299.05 479.323C1298.94 479.87 1298.96 480.43 1299.1 480.971C1299.23 481.513 1299.48 482.025 1299.84 482.478C1300.2 482.931 1300.65 483.317 1301.17 483.613C1301.69 483.909 1302.27 484.109 1302.88 484.203H1303.27C1303.72 484.594 1304.27 484.883 1304.87 485.044C1305.47 485.206 1306.1 485.236 1306.71 485.133H1306.93C1310.62 490.931 1314.95 496.381 1319.85 501.399C1314.12 503.335 1307.62 500.547 1301.37 499.772C1301.64 498.649 1301.64 497.487 1301.37 496.364C1301.28 496.163 1301.13 495.99 1300.93 495.868C1300.73 495.747 1300.5 495.682 1300.25 495.682C1300.01 495.682 1299.78 495.747 1299.58 495.868C1299.38 495.99 1299.22 496.163 1299.13 496.364C1299.07 496.856 1298.9 497.332 1298.62 497.758C1298.59 497.843 1298.59 497.932 1298.61 498.019C1298.62 498.105 1298.66 498.187 1298.72 498.258C1298.78 498.329 1298.85 498.387 1298.94 498.428C1299.03 498.469 1299.12 498.491 1299.22 498.494C1299.26 498.777 1299.26 499.063 1299.22 499.346C1298.5 498.865 1297.62 498.632 1296.72 498.688C1296.42 498.774 1296.13 498.924 1295.9 499.126C1295.67 499.328 1295.49 499.575 1295.39 499.849C1295.16 499.92 1294.98 500.06 1294.86 500.245C1294.74 500.43 1294.7 500.647 1294.74 500.856C1294.82 501.12 1294.92 501.379 1295.04 501.631C1294.97 502.122 1295.06 502.621 1295.3 503.068C1295.53 503.515 1295.91 503.89 1296.38 504.148C1296.93 504.276 1297.51 504.276 1298.06 504.148C1298.6 504.219 1299.15 504.155 1299.65 503.964C1300.15 503.773 1300.58 503.461 1300.9 503.064C1301.14 502.82 1301.3 502.52 1301.36 502.198C1301.42 501.876 1301.38 501.546 1301.25 501.244C1307.96 501.979 1315.37 505.117 1321.1 502.096C1325.88 506.898 1331 511.468 1336.34 515.922C1336.65 516.541 1336.9 517.2 1337.25 517.819C1337.3 517.926 1337.39 518.017 1337.5 518.08C1337.61 518.144 1337.74 518.177 1337.87 518.177C1338 518.177 1338.13 518.144 1338.24 518.08C1338.35 518.017 1338.44 517.926 1338.5 517.819C1341.68 520.492 1344.96 523.125 1348.19 525.798C1343.32 525.798 1338.67 523.319 1334.1 521.925C1329.54 520.53 1325.19 519.446 1320.88 518.052C1324.03 514.528 1319.55 507.363 1314.08 510.306C1308.61 513.249 1311.37 521.731 1317.35 519.485C1317.84 519.852 1318.41 520.116 1319.03 520.259C1319.31 520.346 1319.62 520.329 1319.88 520.213C1320.15 520.097 1320.35 519.891 1320.45 519.64C1326.05 521.537 1331.78 523.009 1337.68 524.713C1341.73 525.952 1345.09 527.966 1349.35 526.727C1358.83 534.118 1367.49 542.329 1375.19 551.242C1372.81 556.802 1371.36 562.65 1370.88 568.593C1363.65 567.431 1354.6 566.889 1348.57 562.667C1352.62 560.266 1350.3 553.643 1344.27 553.179C1335.05 552.443 1334.88 563.713 1343.45 562.202C1343.46 562.408 1343.51 562.61 1343.62 562.794C1343.72 562.977 1343.87 563.137 1344.05 563.263C1344.23 563.389 1344.44 563.477 1344.67 563.522C1344.89 563.566 1345.12 563.565 1345.34 563.519V563.519H1346.59C1353.56 567.923 1361.94 570.142 1370.45 569.832C1369.63 581.71 1374.02 593.404 1382.68 602.403C1382.98 603.526 1383.33 604.649 1383.67 605.772C1384.02 606.895 1383.11 606.934 1382.77 607.515C1382.12 608.677 1383.97 609.839 1384.66 608.677C1385.78 611.814 1387.08 614.835 1388.5 617.817C1382.96 613.683 1376.96 610.087 1370.58 607.089C1367.61 605.733 1364.77 604.262 1361.97 602.79C1362.01 602.622 1362 602.445 1361.94 602.281C1361.88 602.117 1361.77 601.971 1361.62 601.86C1353.01 595.858 1348.23 586.369 1342.42 578.197C1338.17 572.661 1332.77 567.913 1326.52 564.216C1311.63 554.363 1293.46 549.34 1274.97 549.964C1274.77 549.967 1274.57 550.026 1274.41 550.134C1274.24 550.242 1274.12 550.393 1274.05 550.567C1273.99 550.741 1273.98 550.929 1274.04 551.105C1274.1 551.282 1274.21 551.438 1274.37 551.552C1290 561.66 1297.33 578.662 1312.14 589.738C1325.75 599.885 1344.61 597.988 1360.25 603.758L1361.88 604.688C1377.16 612.021 1390.94 621.648 1402.62 633.153C1407.91 638.696 1412.78 644.557 1417.18 650.697C1413.18 647.953 1408.84 645.627 1404.26 643.765C1404.18 643.634 1404.06 643.526 1403.91 643.455C1381.05 627.421 1347.07 596.129 1318.3 618.824C1317.78 618.514 1317.35 619.133 1317.65 619.521L1316.62 620.373C1315.67 621.186 1317.01 622.619 1318 621.767L1319.25 620.721C1331.07 629.751 1344.23 637.258 1358.35 643.029C1373.34 648.877 1387.89 642.061 1403.14 645.198C1403.33 645.257 1403.55 645.257 1403.74 645.198C1409.36 647.342 1414.63 650.156 1419.42 653.563C1424.33 660.612 1428.76 667.932 1432.94 675.367C1433.04 675.552 1433.22 675.693 1433.44 675.758C1433.66 675.824 1433.9 675.808 1434.1 675.716C1434.31 675.623 1434.46 675.461 1434.54 675.265C1434.61 675.069 1434.59 674.855 1434.49 674.67C1423.72 654.376 1409.68 633.618 1390.39 618.746C1388.54 614.602 1386.86 610.497 1385.52 606.353C1390.37 595.833 1393.62 584.773 1395.17 573.472C1405.96 586.469 1415.2 600.449 1422.73 615.183C1422.95 615.613 1423.13 616.052 1423.29 616.5C1414.38 612.627 1407.53 605.695 1398.88 601.357C1398.49 601.357 1397.93 601.357 1397.93 601.783C1397.93 602.209 1397.93 601.783 1397.93 601.783C1396.81 601.318 1395.47 602.79 1396.46 603.642L1396.72 603.874C1397.39 604.477 1398.2 604.94 1399.09 605.23C1399.31 605.381 1399.5 605.564 1399.65 605.772C1399.71 605.936 1399.82 606.079 1399.98 606.181C1400.13 606.283 1400.32 606.337 1400.51 606.337C1400.7 606.337 1400.89 606.283 1401.04 606.181C1401.2 606.079 1401.31 605.936 1401.37 605.772C1401.47 605.727 1401.56 605.658 1401.61 605.572C1401.67 605.487 1401.7 605.388 1401.7 605.288C1401.7 605.188 1401.67 605.089 1401.61 605.004C1401.56 604.918 1401.47 604.849 1401.37 604.804L1400.73 604.339C1400.37 603.916 1399.97 603.526 1399.52 603.177C1398.88 602.209 1401.8 604.417 1402.06 604.572C1404.78 606.237 1407.32 608.173 1409.9 610.071C1414.09 613.323 1418.77 616.022 1423.81 618.088C1430.35 634.336 1433.89 651.432 1434.32 668.706L1434.71 675.29C1434.67 675.357 1434.66 675.43 1434.66 675.503C1434.66 675.576 1434.67 675.649 1434.71 675.716V677.652C1434.68 677.781 1434.68 677.911 1434.71 678.04C1436.9 706.854 1442.93 735.861 1467.01 756.775C1467.95 757.549 1469.46 756.388 1468.51 755.574C1451.29 740.47 1444.18 722.035 1440.61 702.477C1445.56 699.495 1445.9 693.221 1447.28 688.07C1447.5 688.114 1447.74 688.093 1447.95 688.009C1448.16 687.925 1448.33 687.784 1448.44 687.606C1448.67 687.133 1448.76 686.618 1448.72 686.105C1448.67 685.593 1448.49 685.097 1448.19 684.662C1448.11 684.523 1448 684.405 1447.85 684.322C1447.71 684.239 1447.54 684.195 1447.37 684.195C1447.2 684.195 1447.03 684.239 1446.88 684.322C1446.74 684.405 1446.62 684.523 1446.55 684.662C1445.69 687.451 1445.08 690.239 1444.4 693.066C1443.91 695.994 1442.4 698.707 1440.09 700.812C1438.84 693.531 1438.02 686.095 1437.38 678.621C1437.54 678.617 1437.7 678.575 1437.85 678.501C1437.99 678.427 1438.11 678.321 1438.19 678.195C1444.84 667.702 1448.7 655.973 1449.48 643.92C1450.22 643.342 1450.77 642.592 1451.07 641.751C1453.15 638.012 1455.52 634.414 1458.18 630.984C1460.2 627.964 1462.14 624.943 1464.21 621.999C1464.21 622.387 1464.21 622.774 1464.55 623.161C1464.9 623.549 1465.84 623.82 1465.89 623.161C1466.02 622.132 1466.02 621.092 1465.89 620.063C1466.02 619.83 1466.18 619.609 1466.36 619.405C1466.42 619.354 1466.46 619.294 1466.49 619.227C1466.52 619.161 1466.54 619.089 1466.54 619.017C1466.54 618.945 1466.52 618.874 1466.49 618.807C1466.46 618.741 1466.42 618.68 1466.36 618.63L1465.2 618.127C1464.77 618.127 1464.25 618.32 1464.21 618.707C1464.16 619.391 1464.16 620.076 1464.21 620.76C1463.6 621.535 1462.66 622.425 1462.27 622.968C1460.24 625.872 1458.35 628.893 1456.41 631.836C1454.95 634.083 1453.31 636.213 1451.76 638.382C1451.76 638.653 1450.73 640.124 1449.99 641.248C1449.99 640.008 1450.25 638.769 1450.34 637.375C1450.51 637.265 1450.63 637.101 1450.68 636.916C1450.73 636.73 1450.7 636.535 1450.6 636.368V636.058C1450.86 631.836 1451.07 627.615 1451.29 623.432C1451.34 623.415 1451.38 623.39 1451.42 623.357C1451.45 623.324 1451.48 623.285 1451.5 623.241C1451.52 623.198 1451.53 623.151 1451.53 623.104C1451.53 623.057 1451.52 623.011 1451.5 622.968C1451.5 622.968 1451.5 622.697 1451.5 622.542L1451.76 618.01C1459.47 614.138 1462.44 606.392 1465.33 599.227C1465.49 599.255 1465.65 599.24 1465.81 599.185C1465.96 599.13 1466.09 599.037 1466.19 598.917V598.685H1466.53H1467.05C1467.89 598.55 1468.7 598.26 1469.42 597.833C1470.61 597.01 1471.4 595.801 1471.62 594.463C1471.83 593.125 1471.46 591.763 1470.58 590.668C1469.79 589.943 1468.74 589.498 1467.62 589.412C1466.5 589.327 1465.38 589.608 1464.46 590.203C1463.8 590.677 1463.31 591.315 1463.05 592.038C1462.79 592.761 1462.77 593.537 1463 594.27C1462.89 594.302 1462.79 594.364 1462.72 594.447C1462.65 594.53 1462.62 594.63 1462.61 594.734C1462.57 595.301 1462.67 595.869 1462.9 596.398C1463.13 596.927 1463.49 597.403 1463.95 597.794V597.794C1461.49 604.881 1458.31 612.859 1451.33 617.158C1451.33 614.486 1451.72 611.814 1451.98 609.18C1454.77 608.444 1456.28 605.617 1456.8 602.906C1456.9 603.007 1457.04 603.082 1457.18 603.125C1457.33 603.167 1457.49 603.175 1457.64 603.148C1457.79 603.121 1457.93 603.059 1458.05 602.97C1458.16 602.88 1458.25 602.765 1458.31 602.635C1458.46 601.816 1458.42 600.978 1458.2 600.173C1457.97 599.367 1457.57 598.61 1457.01 597.949C1456.89 597.708 1456.68 597.511 1456.41 597.39C1456.15 597.269 1455.85 597.229 1455.56 597.278C1455.27 597.327 1455.01 597.461 1454.81 597.659C1454.61 597.858 1454.49 598.11 1454.47 598.375C1454.3 599.155 1454.3 599.957 1454.47 600.737C1454.52 600.897 1454.61 601.044 1454.73 601.163C1454.4 603.053 1453.64 604.86 1452.49 606.469C1453.33 599.051 1455.18 591.754 1458 584.742C1458.21 584.922 1458.44 585.078 1458.69 585.207C1459.55 585.676 1460.56 585.862 1461.55 585.735C1462.54 585.608 1463.45 585.175 1464.12 584.51C1464.67 583.996 1465.1 583.381 1465.36 582.707C1465.63 582.033 1465.73 581.316 1465.66 580.603C1465.59 579.891 1465.35 579.201 1464.96 578.578C1464.57 577.956 1464.03 577.417 1463.39 576.997C1462.29 576.337 1461.02 575.947 1459.71 575.865C1458.4 575.784 1457.08 576.013 1455.89 576.532C1455.27 576.916 1454.75 577.436 1454.41 578.044C1454.06 578.652 1453.89 579.329 1453.91 580.013C1453.93 580.696 1454.15 581.363 1454.53 581.953C1454.91 582.543 1455.46 583.036 1456.11 583.387C1456.28 583.443 1456.46 583.443 1456.63 583.387C1453.18 591.348 1451.07 599.729 1450.38 608.251C1449.99 612.124 1449.74 615.764 1449.56 619.559C1446.51 614.215 1442.33 609.258 1439.01 604.068C1439.1 604.034 1439.17 603.971 1439.21 603.892C1439.25 603.814 1439.26 603.724 1439.23 603.642C1439.12 603.112 1438.92 602.602 1438.62 602.132C1438.62 602.132 1438.62 602.132 1438.62 602.132C1439.8 600.987 1440.45 599.487 1440.45 597.93C1440.45 596.372 1439.8 594.872 1438.62 593.728C1437.64 593.158 1436.48 592.901 1435.31 592.999C1434.15 593.098 1433.06 593.545 1432.21 594.27C1431.62 594.704 1431.22 595.303 1431.05 595.969C1430.89 596.636 1430.98 597.333 1431.3 597.949C1431.19 597.962 1431.08 597.996 1430.99 598.05C1430.89 598.103 1430.81 598.175 1430.75 598.26C1430.69 598.345 1430.65 598.44 1430.63 598.54C1430.62 598.641 1430.63 598.743 1430.66 598.84C1431 600.05 1431.8 601.117 1432.91 601.864C1434.02 602.611 1435.39 602.993 1436.77 602.945C1440.58 609.66 1444.89 616.13 1449.69 622.309C1449.69 623.084 1449.69 623.858 1449.69 624.633C1449.69 627.731 1449.39 630.83 1449.18 633.928L1448.4 632.572C1448.36 632.43 1448.27 632.303 1448.14 632.212C1448.01 632.122 1447.85 632.072 1447.69 632.072C1447.53 632.072 1447.37 632.122 1447.24 632.212C1447.11 632.303 1447.02 632.43 1446.98 632.572L1445.21 630.791C1443.56 629.312 1442.12 627.661 1440.91 625.872H1441.21C1441.29 625.881 1441.38 625.869 1441.46 625.837C1441.54 625.805 1441.6 625.754 1441.65 625.69C1441.7 625.627 1441.73 625.552 1441.74 625.475C1441.74 625.398 1441.72 625.321 1441.68 625.253C1441.42 624.594 1441.21 623.626 1440.56 623.2H1440.82C1441.34 622.844 1441.76 622.395 1442.08 621.882C1442.39 621.369 1442.58 620.803 1442.64 620.221C1442.69 619.638 1442.62 619.051 1442.41 618.498C1442.2 617.944 1441.86 617.435 1441.42 617.003C1440.69 616.19 1439.71 615.585 1438.6 615.262C1437.49 614.939 1436.3 614.912 1435.18 615.183C1434.67 615.362 1434.21 615.655 1433.86 616.034C1433.5 616.413 1433.26 616.867 1433.16 617.352C1433.05 618.049 1433.12 618.758 1433.36 619.427C1433.6 620.097 1434 620.711 1434.53 621.225C1434.6 621.294 1434.69 621.343 1434.79 621.367C1434.89 621.391 1434.99 621.389 1435.09 621.36C1435.18 621.331 1435.27 621.277 1435.33 621.205C1435.39 621.132 1435.43 621.045 1435.44 620.954C1435.31 620.08 1435.31 619.194 1435.44 618.32C1435.49 618.105 1435.58 617.896 1435.7 617.701C1435.7 617.429 1435.7 617.468 1436 617.429C1436.3 617.391 1436 617.429 1436.51 617.429C1437.03 617.429 1437.16 617.429 1437.12 617.429C1437.73 617.539 1438.29 617.793 1438.75 618.165C1439.22 618.403 1439.57 618.789 1439.74 619.247C1439.91 619.706 1439.88 620.204 1439.66 620.644C1439.4 621.186 1438.58 622.154 1437.85 621.999C1437.12 621.844 1436.51 620.644 1436.43 619.947C1436.4 619.86 1436.34 619.784 1436.26 619.731C1436.18 619.677 1436.08 619.648 1435.98 619.648C1435.88 619.648 1435.78 619.677 1435.7 619.731C1435.61 619.784 1435.55 619.86 1435.52 619.947C1435.33 620.524 1435.32 621.137 1435.48 621.722C1435.64 622.307 1435.96 622.844 1436.43 623.277C1436.75 623.56 1437.14 623.765 1437.57 623.873C1438 623.981 1438.45 623.99 1438.88 623.897C1437.72 625.679 1439.49 627.189 1440.69 628.661C1443.21 631.672 1445.91 634.555 1448.79 637.297C1448.49 641.402 1448.1 645.508 1447.5 649.613C1446.82 654.08 1445.77 658.494 1444.35 662.819C1443.1 666.692 1438.15 671.727 1438.02 675.793L1437.63 675.212C1437.59 675.087 1437.5 674.978 1437.38 674.903C1436.77 667.97 1436.26 661.038 1435.52 654.183C1434.11 641.832 1430.73 629.728 1425.49 618.243C1425.54 618.171 1425.57 618.09 1425.59 618.005C1425.6 617.92 1425.59 617.834 1425.56 617.753C1425.53 617.672 1425.48 617.597 1425.42 617.534C1425.36 617.472 1425.28 617.423 1425.19 617.391V617.391C1423.08 612.743 1420.67 608.173 1418.08 603.72C1417.14 600.511 1416.69 597.201 1416.75 593.882C1416.78 593.948 1416.84 594.003 1416.91 594.042C1416.97 594.08 1417.05 594.101 1417.14 594.101C1417.22 594.101 1417.3 594.08 1417.36 594.042C1417.43 594.003 1417.49 593.948 1417.52 593.882C1419.5 582.496 1430.44 576.493 1439.53 569.522C1446.87 563.688 1451.87 555.852 1453.78 547.215C1458 531.142 1452.92 513.676 1438.24 504.187ZM1306.03 482.112V481.879C1305.97 481.797 1305.89 481.737 1305.79 481.711C1305.69 481.686 1305.58 481.698 1305.49 481.744C1305.4 481.79 1305.33 481.867 1305.3 481.958C1305.27 482.049 1305.28 482.146 1305.34 482.228C1305.43 482.344 1305.51 482.475 1305.55 482.615C1304.55 482.243 1303.65 481.674 1302.92 480.95L1301.72 479.827C1301.73 479.403 1301.9 478.995 1302.19 478.665C1302.62 478.105 1303.24 477.684 1303.96 477.464C1304.5 477.287 1305.1 477.287 1305.64 477.464C1305.93 477.728 1306.15 478.044 1306.29 478.392C1306.43 478.739 1306.49 479.109 1306.46 479.478C1306.56 480.25 1306.56 481.03 1306.46 481.802C1306.46 481.802 1306.07 482.073 1306.03 482.073V482.112ZM1317.44 516.619L1316.53 516.27C1315.93 515.999 1315.37 516.541 1315.33 517.045C1315.07 516.979 1314.84 516.868 1314.64 516.718C1314.43 516.567 1314.27 516.382 1314.14 516.171C1314.02 515.961 1313.95 515.731 1313.93 515.495C1313.91 515.259 1313.95 515.022 1314.04 514.799C1314.12 511.507 1321.01 514.837 1317.44 516.619V516.619ZM1344.87 560.072H1344.61H1344.27C1344.09 560.074 1343.92 560.113 1343.76 560.187C1343.6 560.261 1343.47 560.368 1343.36 560.498V560.498C1342.69 560.41 1342.04 560.195 1341.46 559.868C1340.88 559.541 1340.39 559.11 1340 558.601C1340 556.006 1341.34 555.115 1344.05 555.967C1346.77 556.819 1347.5 559.53 1344.87 560.072V560.072ZM1280.27 552.327C1308.09 554.921 1322.18 573.395 1339.7 589.274C1333.24 585.052 1326.78 580.637 1320.62 576.067C1309.04 567.741 1296.81 558.446 1282.55 554.031L1280.27 552.327ZM1313.26 588.499C1304.65 582.806 1298.62 573.937 1292.5 566.23C1291.56 565.068 1288.93 561.467 1286.09 558.175C1305.59 573.666 1326.74 590.281 1350.38 599.227C1350.81 599.227 1351.12 598.801 1350.73 598.569C1337.81 591.133 1324.89 584.433 1312.74 576.145C1303.23 569.638 1294.18 562.667 1285.01 555.812C1308.82 565.223 1328.08 583.426 1349.61 597.329C1351.37 598.646 1353.14 599.885 1354.99 601.202C1340.78 596.671 1325.66 596.516 1313.22 588.344L1313.26 588.499ZM1350.86 596.245C1329.32 578.236 1312.1 553.643 1280.44 551.746C1298.79 552.277 1316.42 558.301 1330.53 568.864C1341.73 576.609 1345.82 589.932 1355.34 598.917C1353.79 597.871 1352.49 596.942 1350.81 596.051L1350.86 596.245ZM1324.72 617.081C1337.61 614.38 1351.16 615.861 1362.96 621.264C1373.42 625.524 1381.05 633.502 1390.56 638.962C1378.16 634.354 1367.82 627.112 1355.77 621.961C1349.74 619.457 1343.19 618.136 1336.56 618.088C1332.33 617.153 1327.94 616.982 1323.64 617.584L1324.72 617.081ZM1375.71 634.354C1372.29 633.228 1368.94 631.935 1365.67 630.481C1359.13 627.383 1352.24 623.51 1345.04 620.838C1351.45 622.005 1357.57 624.224 1363.09 627.383C1367.14 629.242 1371.31 631.875 1375.66 634.16L1375.71 634.354ZM1320.15 620.218L1320.71 619.792C1320.75 619.884 1320.82 619.961 1320.92 620.01C1321.01 620.059 1321.12 620.078 1321.23 620.063C1326.79 619.694 1332.37 619.629 1337.94 619.869C1348.32 622.425 1358.14 628.506 1367.44 632.65C1375.07 635.826 1382.91 638.58 1390.91 640.899C1377.18 640.644 1363.75 637.288 1351.85 631.139C1341.86 626.608 1331.69 621.535 1320.45 620.257L1320.15 620.218ZM1378.07 644.036C1357.49 646.089 1338.37 632.069 1322.09 621.496C1334.68 625.255 1346.89 629.998 1358.57 635.671C1368.94 640.202 1381.43 644.423 1393.02 641.596L1396.25 642.642C1390.15 642.697 1384.07 643.098 1378.03 643.842L1378.07 644.036ZM1395.86 640.899C1374.33 628.041 1354.99 609.916 1328.16 615.415C1350.25 606.469 1374.72 624.633 1392.24 637.607L1397.37 641.48L1395.86 640.899ZM1374.03 478.549C1378.03 489.78 1375.15 501.282 1374.03 512.707C1371.89 498.746 1368.43 484.973 1363.69 471.539C1360.12 461.431 1354.39 450.044 1344.61 443.693C1358.74 449.192 1369.72 466.233 1374.03 478.549ZM1343.88 445.242C1367.18 459.882 1366.66 493.846 1372.3 518.362C1364.33 504.694 1358.19 490.225 1354 475.257C1351.55 466.582 1349.26 454.188 1343.62 445.242H1343.88ZM1345.78 480.989C1345.09 477.813 1344.53 474.637 1343.97 471.461C1349.13 489.586 1355.42 507.556 1368.69 521.809C1354.13 512.243 1348.88 497.022 1345.52 480.989H1345.78ZM1373.17 524.248L1371.1 523.087C1371.12 523.038 1371.14 522.985 1371.14 522.932C1371.14 522.878 1371.12 522.825 1371.1 522.777C1352.02 498.107 1347.67 470.454 1337.03 442.918C1337.02 442.819 1337.03 442.718 1337.06 442.622C1337.1 442.526 1337.15 442.437 1337.23 442.361C1337.3 442.285 1337.39 442.223 1337.49 442.179C1337.59 442.135 1337.7 442.11 1337.81 442.105L1339.62 442.88C1347.8 455.157 1350.9 469.525 1354.35 483.467C1358.45 497.755 1364.69 511.475 1372.91 524.248H1373.17ZM1382.08 599.421C1371.7 587.299 1370.11 572.311 1374.33 557.478C1376.39 550.804 1379.56 544.447 1383.72 538.617C1386.93 534.443 1390.58 530.552 1394.61 526.998C1380.74 545.51 1365.33 578.314 1381.69 598.53C1381.69 598.801 1381.74 599.111 1381.82 599.421H1382.08ZM1383.54 599.072C1382.11 593.272 1381.36 587.353 1381.3 581.412C1381.3 565.92 1387.51 552.946 1395.34 539.662C1395.38 539.567 1395.38 539.464 1395.34 539.369C1395.31 539.274 1395.24 539.192 1395.14 539.135C1395.05 539.079 1394.94 539.05 1394.83 539.055C1394.72 539.059 1394.61 539.096 1394.53 539.159C1380.92 554.65 1377.51 575.796 1381.22 595.432C1368.9 573.395 1383.54 546.053 1396.55 526.611C1396.6 526.531 1396.63 526.442 1396.64 526.35C1396.65 526.258 1396.64 526.165 1396.61 526.077C1396.58 525.989 1396.52 525.909 1396.45 525.841C1396.38 525.772 1396.3 525.718 1396.21 525.681C1396.5 525.45 1396.82 525.243 1397.15 525.062C1398.14 540.553 1392.85 553.876 1387.29 568.748C1382.91 578.578 1381.76 589.33 1383.97 599.73L1383.54 599.072ZM1393.28 570.607C1391.72 581.068 1389.08 591.376 1385.4 601.396C1378.25 574.75 1405.94 550.235 1398.32 524.365C1399.48 523.939 1400.3 524.055 1400.64 525.139C1404.34 537.726 1397.37 553.295 1394.35 565.533C1393.75 567.276 1393.36 568.941 1393.02 570.607H1393.28ZM1395.52 571.846C1395.99 569.522 1396.51 567.16 1397.02 564.836C1401.32 570.681 1404.18 577.282 1405.42 584.2C1402.02 580.134 1398.7 575.951 1395.26 571.846H1395.52ZM1466.32 593.573C1466.32 593.224 1466.47 592.889 1466.75 592.643C1466.99 592.465 1467.29 592.353 1467.6 592.319C1467.91 592.285 1468.23 592.33 1468.51 592.449C1468.74 592.577 1468.92 592.767 1469.03 592.992C1469.19 593.615 1469.12 594.271 1468.81 594.851C1468.66 595.195 1468.43 595.505 1468.14 595.759C1467.84 596.013 1467.48 596.206 1467.09 596.322V596.129C1467.02 596.007 1466.92 595.9 1466.8 595.813C1466.69 595.726 1466.55 595.662 1466.4 595.625C1466.35 594.933 1466.24 594.247 1466.06 593.573H1466.32ZM1456.88 579.863C1456.87 579.655 1456.92 579.448 1457.02 579.263C1457.13 579.078 1457.29 578.924 1457.49 578.817C1458.15 578.505 1458.89 578.342 1459.64 578.342C1460.39 578.342 1461.13 578.505 1461.79 578.817C1462.13 578.932 1462.43 579.11 1462.68 579.338C1462.93 579.567 1463.12 579.84 1463.24 580.141C1463.36 580.442 1463.41 580.763 1463.39 581.082C1463.36 581.401 1463.26 581.712 1463.09 581.993C1462.27 583.89 1460.63 583.774 1459.21 582.922C1459.55 582.186 1458.52 581.76 1457.96 582.109C1457.64 581.816 1457.35 581.491 1457.1 581.141C1456.86 580.743 1456.7 580.31 1456.63 579.863H1456.88ZM1435.05 601.125C1434.4 600.928 1433.81 600.593 1433.33 600.148C1432.85 599.704 1432.49 599.162 1432.29 598.569C1432.66 598.817 1433.09 598.965 1433.54 598.995C1433.66 599.007 1433.78 598.991 1433.89 598.947C1434 598.903 1434.09 598.833 1434.15 598.745C1434.22 598.657 1434.26 598.555 1434.27 598.448C1434.27 598.342 1434.25 598.236 1434.19 598.143C1433.67 597.213 1433.16 596.71 1434.19 595.896C1434.59 595.54 1435.09 595.292 1435.64 595.183C1436.19 595.073 1436.76 595.106 1437.29 595.277C1438.97 595.896 1438.5 599.15 1437.89 600.156C1437.77 600.41 1437.59 600.638 1437.36 600.826C1437.14 601.014 1436.87 601.158 1436.58 601.249C1436.29 601.339 1435.98 601.375 1435.67 601.354C1435.36 601.333 1435.06 601.255 1434.79 601.125H1435.05ZM1436.56 505.233L1437.42 505.697C1437.85 506.608 1438.22 507.539 1438.54 508.486C1437.63 507.316 1436.64 506.204 1435.57 505.155C1435.57 505.155 1435.78 504.962 1436.3 505.31L1436.56 505.233ZM1436.86 508.796C1437.83 510.028 1438.69 511.322 1439.44 512.669C1441.47 526.959 1431.48 543.419 1426.95 556.122C1424.28 563.674 1420.41 571.614 1418 580.056L1417.61 579.592C1414.51 565.223 1425.36 554.031 1431.73 541.676C1436.73 531.374 1440.22 519.717 1436.6 508.796H1436.86ZM1424.93 537.106C1428.17 530.788 1431.04 524.325 1433.54 517.742C1434.44 515.212 1435.12 512.622 1435.57 509.996C1435.57 509.803 1435.57 509.57 1435.57 509.338C1440.35 526.146 1430.57 540.553 1422.04 555.076C1417.56 561.791 1415.43 569.565 1415.93 577.384C1408.91 565.223 1419.46 547.912 1424.67 537.106H1424.93ZM1418.51 585.556C1418.03 586.424 1417.64 587.332 1417.35 588.267C1419.25 574.557 1426.78 560.072 1431.65 548.376C1435.57 538.965 1441.17 527.114 1441.21 516.077C1445.48 527.155 1445.65 539.181 1441.68 550.352C1437.03 563.093 1425.1 573.124 1418.38 584.975C1418.29 585.043 1418.23 585.138 1418.2 585.244C1418.18 585.35 1418.2 585.461 1418.25 585.556H1418.51ZM1440.43 566.191C1435.61 570.568 1428.29 574.673 1423.21 579.708C1431.43 568.515 1442.5 558.136 1445.08 544.852C1447.4 533.934 1446.02 522.641 1441.12 512.436C1441.12 511.662 1440.86 510.887 1440.74 510.113C1449 522.893 1448.4 537.222 1444.48 551.591C1444.48 551.672 1444.51 551.751 1444.56 551.817C1444.62 551.883 1444.69 551.932 1444.78 551.958C1444.86 551.984 1444.95 551.985 1445.04 551.961C1445.13 551.936 1445.2 551.888 1445.26 551.823C1448.59 544.615 1449.86 536.766 1448.93 529.002C1448.01 521.239 1444.92 513.81 1439.96 507.401C1459.21 520.182 1455.85 551.784 1440.18 566.191H1440.43Z" fill="#CFC6AF"/>
<path d="M1302.19 494.118C1302.33 494.101 1302.46 494.057 1302.58 493.991C1302.7 493.924 1302.8 493.835 1302.88 493.73V493.73C1304.78 494.621 1306.2 493.343 1306.71 491.755C1307.23 490.167 1306.71 487.224 1304.17 486.837C1303.17 486.762 1302.16 486.94 1301.27 487.35C1300.37 487.76 1299.62 488.387 1299.09 489.16C1298.77 489.657 1298.59 490.221 1298.59 490.796C1298.58 491.372 1298.74 491.939 1299.06 492.44C1299.37 492.942 1299.83 493.361 1300.38 493.655C1300.93 493.949 1301.55 494.109 1302.19 494.118V494.118ZM1303.4 489.083C1303.7 488.971 1304.04 488.971 1304.35 489.083C1304.35 489.083 1304.35 489.083 1304.35 489.354C1304.38 489.559 1304.38 489.769 1304.35 489.974C1304.35 490.439 1304.35 492.143 1303.61 491.988C1302.59 491.595 1301.77 490.86 1301.33 489.935C1301.89 489.446 1302.62 489.145 1303.4 489.083V489.083Z" fill="#CFC6AF"/>
<path d="M1335.74 499.888C1335.94 500.131 1336.16 500.364 1336.39 500.585C1336.49 501.205 1336.74 501.799 1337.12 502.328C1337.46 502.754 1338.07 502.328 1338.28 502.328C1338.5 502.328 1338.28 502.018 1338.28 501.824C1338.56 501.913 1338.87 501.913 1339.14 501.824C1340.65 501.166 1340.69 499.539 1340.48 498.222C1340.45 498.074 1340.39 497.932 1340.31 497.804C1340.22 497.676 1340.1 497.566 1339.97 497.479C1339.83 497.393 1339.67 497.331 1339.51 497.299C1339.35 497.267 1339.18 497.265 1339.01 497.293C1338.45 497.404 1337.93 497.63 1337.48 497.952C1337.03 498.274 1336.67 498.685 1336.43 499.152C1336.23 499.172 1336.05 499.259 1335.92 499.396C1335.79 499.533 1335.73 499.709 1335.74 499.888Z" fill="#CFC6AF"/>
<path d="M1351.81 554.147C1351.35 554.565 1351 555.071 1350.79 555.627C1350.59 556.183 1350.52 556.774 1350.6 557.356C1350.69 557.938 1350.92 558.495 1351.27 558.986C1351.63 559.477 1352.11 559.888 1352.67 560.189C1352.77 560.219 1352.88 560.227 1352.99 560.213C1353.09 560.198 1353.19 560.161 1353.28 560.104C1353.37 560.048 1353.44 559.973 1353.49 559.887C1353.54 559.801 1353.57 559.705 1353.57 559.608C1353.95 560.031 1354.47 560.332 1355.05 560.464C1355.63 560.597 1356.25 560.555 1356.8 560.344C1358.01 559.879 1358.65 558.136 1358.78 557.013C1358.83 556.526 1358.76 556.035 1358.57 555.578C1358.37 555.122 1358.06 554.711 1357.66 554.38C1356.86 553.742 1355.85 553.371 1354.78 553.329C1353.71 553.287 1352.66 553.576 1351.81 554.147ZM1355.81 555.735C1356 555.824 1356.16 555.958 1356.27 556.121C1356.39 556.284 1356.45 556.472 1356.46 556.665C1356.44 557.346 1356.17 558.002 1355.68 558.524C1355.21 558.95 1353.92 557.517 1353.01 556.393C1352.97 556.254 1352.97 556.107 1353.01 555.967C1353.36 555.628 1353.84 555.412 1354.35 555.355C1354.86 555.298 1355.38 555.406 1355.81 555.658V555.735Z" fill="#CFC6AF"/>
<path d="M1347.71 570.142C1348.23 570.8 1349.44 570.49 1350.08 570.142C1350.31 570.027 1350.48 569.842 1350.57 569.621C1350.66 569.401 1350.65 569.159 1350.56 568.941C1350.13 568.283 1349.39 568.012 1348.88 567.469C1348.36 566.927 1346.68 567.469 1347.2 568.476C1347.22 568.669 1347.22 568.864 1347.2 569.057C1347.19 569.261 1347.23 569.464 1347.32 569.651C1347.41 569.838 1347.54 570.006 1347.71 570.142V570.142Z" fill="#CFC6AF"/>
<path d="M1398.32 599.305C1398.69 599.726 1399.2 600.025 1399.78 600.157C1400.47 600.27 1401.18 600.203 1401.83 599.962C1402.48 599.722 1403.04 599.319 1403.44 598.801C1404.82 597.097 1403.01 595.199 1401.42 594.347C1400.59 593.811 1399.62 593.486 1398.6 593.404C1397.59 593.322 1396.56 593.487 1395.64 593.882C1395.26 594.176 1394.97 594.558 1394.81 594.989C1394.65 595.419 1394.63 595.88 1394.74 596.322C1394.86 597.018 1395.17 597.677 1395.63 598.243C1396.1 598.809 1396.71 599.266 1397.41 599.576C1397.57 599.616 1397.75 599.611 1397.91 599.563C1398.07 599.515 1398.21 599.425 1398.32 599.305V599.305ZM1397.54 596.4C1397.52 596.271 1397.52 596.141 1397.54 596.012H1398.14C1398.68 596.086 1399.2 596.23 1399.69 596.439L1400.34 596.748L1400.9 597.097L1401.16 597.329C1400.97 597.504 1400.75 597.649 1400.51 597.755C1399.78 598.181 1398.92 597.136 1398.44 596.71C1398.33 596.634 1398.2 596.593 1398.06 596.593C1397.92 596.593 1397.78 596.634 1397.67 596.71L1397.54 596.4Z" fill="#CFC6AF"/>
<path d="M1326.22 528.044C1326.02 527.674 1325.66 527.393 1325.22 527.262C1324.78 527.131 1324.31 527.162 1323.9 527.347C1323.49 527.532 1323.17 527.856 1323.03 528.248C1322.88 528.64 1322.92 529.068 1323.12 529.438V529.671C1322.65 529.771 1322.23 529.994 1321.9 530.311C1321.57 530.627 1321.35 531.024 1321.27 531.452C1321.05 532.73 1322.22 533.544 1323.34 534.008C1324.07 534.258 1324.88 534.258 1325.62 534.008C1326.62 535.307 1327.91 536.402 1329.41 537.223C1329.53 537.284 1329.67 537.311 1329.81 537.299C1329.95 537.288 1330.08 537.239 1330.18 537.16C1330.29 537.08 1330.37 536.973 1330.41 536.853C1330.45 536.733 1330.44 536.606 1330.4 536.487C1329.45 534.667 1328.51 532.924 1327.6 531.142C1327.52 530.651 1327.38 530.169 1327.17 529.709C1327.73 529.438 1328.29 529.167 1328.89 528.935C1332.29 527.54 1336.17 527.618 1339.57 526.262C1339.7 526.191 1339.79 526.088 1339.85 525.967C1339.91 525.846 1339.92 525.713 1339.9 525.583C1339.87 525.454 1339.8 525.335 1339.69 525.242C1339.59 525.149 1339.46 525.086 1339.31 525.062C1334.76 525.153 1330.28 526.172 1326.22 528.044Z" fill="#CFC6AF"/>
<path d="M1405.03 617.623C1405.02 616.968 1404.86 616.322 1404.56 615.725V615.454L1404.99 615.067C1407.69 613.991 1410.67 613.59 1413.6 613.905C1414.12 613.905 1414.59 613.208 1413.99 612.937C1411.69 611.973 1409.07 611.794 1406.63 612.434C1406.48 612.146 1406.24 611.904 1405.95 611.738C1405.65 611.573 1405.3 611.491 1404.95 611.504C1403.93 611.492 1402.95 611.831 1402.21 612.451C1401.46 613.071 1401.01 613.924 1400.94 614.835C1400.89 615.279 1400.94 615.728 1401.09 616.154C1401.24 616.58 1401.49 616.973 1401.81 617.308C1402.14 617.643 1402.54 617.913 1402.99 618.101C1403.45 618.288 1403.93 618.39 1404.43 618.398C1404.53 618.384 1404.62 618.352 1404.7 618.306C1404.79 618.259 1404.86 618.197 1404.92 618.125C1404.97 618.053 1405.01 617.971 1405.03 617.885C1405.05 617.799 1405.05 617.71 1405.03 617.623V617.623Z" fill="#CFC6AF"/>
<path d="M180.095 630.368C180.216 630.101 180.311 629.82 180.38 629.529C180.638 628.659 179.339 627.742 178.823 628.615C177.733 630.355 176.701 632.042 175.639 633.698C154.71 647.969 127.569 642.312 102.439 646.158C92.8916 647.473 84.2994 651.81 77.8477 658.572C84.8112 644.771 89.718 629.845 92.4257 614.226C92.6533 613.092 91.0686 612.724 90.4655 613.386C78.4342 626.186 70.4935 642.48 67.5143 660.48C65.4685 666.364 64.0176 672.496 63.1819 678.791C63.1126 678.828 63.0538 678.882 63.0095 678.947C62.9529 679.048 62.9235 679.164 62.9238 679.285C62.9241 679.407 62.9541 679.529 63.0112 679.642L62.8711 681.22C58.3852 690.936 53.1022 700.194 47.0716 708.907C44.4273 710.475 42.0063 712.371 39.8574 714.556C39.7767 714.62 39.7122 714.703 39.6681 714.798C39.6241 714.893 39.6014 714.999 39.6017 715.108C39.602 715.217 39.6251 715.328 39.6697 715.432C39.7142 715.537 39.7791 715.633 39.8602 715.714C36.0387 719.168 32.5638 723.063 29.1176 726.932C34.3268 713.923 40.888 700.274 45.6336 686.117C55.4642 666.959 63.308 647.912 55.9915 623.528C47.7174 596.177 27.7132 576.583 16.7935 550.753C16.3301 549.663 14.5457 550.056 14.894 551.193C21.9758 573.816 39.5802 589.426 49.0493 610.878C57.1648 627.559 58.9713 646.085 54.1002 662.677C52.5898 667.479 50.7145 672.123 48.49 676.57C52.7036 662.43 52.5755 646.907 48.1216 631.917C46.7077 627.692 44.9739 623.552 42.9367 619.537C42.5286 611.305 40.0184 603.095 35.6503 595.705C35.1883 595.194 34.4114 595.432 34.7297 596.073C36.8982 600.395 38.5906 604.903 39.7733 609.509C40.259 611.486 40.6293 613.477 40.8821 615.473C28.9056 593.152 11.5218 573.512 14.8554 547.164C14.866 547.068 14.8546 546.968 14.822 546.871C14.7894 546.775 14.7365 546.686 14.6672 546.609C14.5979 546.532 14.5139 546.47 14.4215 546.428C14.3291 546.386 14.2307 546.365 14.1335 546.366C14.276 545.772 13.2384 545.375 13.1534 545.974C6.32947 569.903 12.3488 593.777 21.2776 618.04C32.0039 647.237 40.9641 672.517 36.9171 701.54C33.4276 711.253 29.506 720.892 26.1893 730.623L21.911 735.708C27.3046 717.212 25.2025 696.565 16.0393 678.034C15.9424 677.846 15.7907 677.688 15.607 677.584C15.4233 677.48 15.2173 677.435 15.0199 677.457C14.8224 677.479 14.644 677.566 14.5112 677.705C14.3785 677.844 14.2985 678.027 14.2832 678.228C11.767 697.335 16.3937 716.953 14.1361 735.827L11.8536 744.507C11.8536 744.572 11.8663 744.637 11.8911 744.699C11.9158 744.762 11.952 744.82 11.9976 744.87C12.0432 744.921 12.0973 744.963 12.1568 744.993C12.2163 745.024 12.2801 745.044 12.3444 745.05C12.116 745.837 11.9451 746.63 11.6591 747.411C11.628 747.524 11.6369 747.648 11.6842 747.763C11.7315 747.878 11.8146 747.978 11.9198 748.046C9.2786 751.362 6.69512 754.741 4.14052 758.153C4.03022 758.28 3.90495 758.393 3.767 758.49C3.65962 758.547 3.58033 758.644 3.54361 758.762C3.50689 758.881 3.51518 759.013 3.56698 759.135C-8.29567 774.734 -18.1416 791.893 -25.7674 810.257C-25.8019 810.383 -25.7906 810.521 -25.7353 810.648C-25.68 810.776 -25.5842 810.884 -25.4646 810.955C-25.3449 811.026 -25.2088 811.054 -25.0798 811.036C-24.9508 811.018 -24.837 810.953 -24.758 810.854C-13.3988 792.694 -2.78819 774.573 9.06218 757.072C15.4572 753.945 22.0985 751.279 28.9414 749.09C28.9703 749.219 29.0376 749.339 29.1337 749.434C29.2299 749.529 29.35 749.594 29.4773 749.62C29.6045 749.646 29.7325 749.631 29.8431 749.579C29.9537 749.526 30.0414 749.438 30.0938 749.326C30.2352 749.089 30.3597 748.84 30.4664 748.583C45.601 744.366 60.344 739.128 74.6027 732.901C83.7253 732.314 92.1237 728.788 98.5947 722.829C99.1981 722.283 98.3027 721.177 97.6707 721.806C92.3109 726.295 85.8195 729.295 78.7437 730.552C88.8072 725.349 96.9496 717.267 102.271 707.2C108.646 704.196 114.384 700.108 119.261 695.097C116.487 703.118 113.915 711.247 110.623 719.04C103.236 736.744 88.601 745.907 70.0053 748.84C51.4096 751.772 29.8628 749.07 13.5037 759.849C12.8716 760.42 13.5945 761.625 14.3711 761.271C36.5777 751.186 62.3036 755.335 85.3514 747.741C110.126 739.516 115.703 712.012 123.74 689.83C124.601 688.587 125.433 687.313 126.178 685.943C126.667 685.501 126.405 684.345 125.598 684.088L124.877 683.81C124.594 683.694 124.289 683.689 124.026 683.797C123.763 683.905 123.563 684.116 123.468 684.387C123.067 685.272 122.752 686.195 122.438 687.118C121.775 686.846 121.143 687.649 120.37 689.624C118.498 692.004 116.381 694.169 114.051 696.09C109.272 700.03 103.947 703.281 98.2074 705.765C88.4279 710.423 77.6651 713.416 67.4515 717.248C51.8579 723.098 37.9981 731.444 30.288 746.306C23.6569 748.657 17.2114 751.42 10.9855 754.579C15.5194 748.044 20.4278 741.518 25.6246 735.196C32.6463 726.836 40.3172 719.069 48.5765 711.958C61.346 705.236 75.2749 701.645 88.5926 695.356C101.91 689.068 108.706 677.179 119.802 669.299C124.351 668.556 128.783 667.684 133.301 666.503C151.605 661.919 170.734 653.223 178.408 635.549C179.49 634.414 180.478 633.191 181.365 631.89C181.456 631.816 181.529 631.723 181.581 631.616C181.633 631.509 181.662 631.391 181.667 631.267C181.672 631.144 181.653 631.019 181.61 630.898C181.568 630.777 181.503 630.664 181.42 630.564C181.336 630.464 181.236 630.38 181.124 630.316C181.012 630.252 180.891 630.21 180.768 630.191C180.645 630.173 180.522 630.18 180.407 630.21C180.291 630.24 180.185 630.294 180.095 630.368ZM12.0447 563.636C14.7368 581.113 27.9975 598.616 36.4143 613.706C40.4368 620.662 43.4094 628.103 45.2225 635.756C40.9453 629.521 35.173 624.231 32.0744 617.164C31.8137 616.529 30.8931 616.896 31.1538 617.531C34.6635 625.676 39.6853 633.197 45.9232 639.65C48.3253 655.811 46.9637 671.916 41.949 686.661C43.8385 646.816 12.174 604.732 12.0447 563.636ZM98.9348 708.822C86.4215 722.499 70.5887 732.673 52.7019 738.53C45.7676 740.908 38.8042 743.138 31.9854 745.643C45.8658 722.186 75.3472 719.4 98.9348 708.822ZM15.4744 682.55C15.6143 680.856 18.8071 691.147 19.3607 693.781C19.7096 695.149 19.9146 696.531 20.1483 697.888C20.382 699.244 19.8963 700.843 19.8135 702.311L19.3712 698.067C19.2541 697.302 18.0738 697.44 18.1909 698.205C19.0597 707.067 18.5565 715.866 16.6996 724.281C16.8964 710.578 14.3857 696.594 15.4744 682.55ZM12.9815 746.506C14.0762 743.549 14.9163 740.48 15.4932 737.329L16.1501 735.11C15.6104 738.151 15.0131 741.187 14.3006 744.211C14.3226 744.281 14.3602 744.347 14.4104 744.402C14.4606 744.458 14.5219 744.502 14.5893 744.531L12.9815 746.506ZM21.0989 709.799C21.1323 711.684 21.1657 713.569 21.1131 715.591C21.1135 722.541 20.0819 729.342 18.0523 735.771C19.9533 727.334 20.9741 718.632 21.0989 709.799V709.799ZM119.605 647.42C131.426 647.561 143.181 647.071 154.82 645.954C144.938 650.778 134.153 653.816 122.906 654.943C108.31 656.525 93.9624 653.818 80.3531 658.571C91.0157 649.98 105.093 647.939 119.72 647.316L119.605 647.42ZM69.0461 662.753C70.9882 656.18 72.9883 649.787 75.3334 643.14C75.3659 643.067 75.3817 642.987 75.3799 642.905C75.3781 642.822 75.3587 642.739 75.323 642.662C75.2873 642.584 75.2361 642.513 75.173 642.454C75.1098 642.394 75.0362 642.348 74.9571 642.319C78.3951 634.28 82.7211 626.732 87.8607 619.803C92.3094 613.751 88.6413 621.071 88.0425 623.528C86.2539 630.185 84.0875 636.697 81.5533 643.033C79.8651 647.461 77.8597 651.711 75.739 655.892C78.0824 648.55 79.9643 640.928 81.9908 633.524C82.2193 632.737 81.0084 632.148 80.7512 632.961C77.0375 645.198 73.1793 657.218 68.5432 669.07L68.2271 669.356C68.481 667.211 68.7059 664.976 69.0461 662.753ZM65.8615 679.388C72.4389 672.399 82.3711 671.259 92.2191 671.008C78.5985 682.969 64.2557 693.957 50.6928 705.924C56.5432 697.618 61.6182 688.74 65.8615 679.388V679.388ZM110.947 675.096C103.393 683.933 93.9894 690.95 83.2948 695.733C74.7807 699.712 65.3688 701.659 56.6801 704.925C69.9378 694.376 82.56 683.066 94.4941 671.042C97.6617 671.024 100.858 671.095 103.767 670.963C108.167 670.811 112.531 670.414 116.837 669.773C114.639 671.272 112.66 673.06 110.947 675.096V675.096ZM149.866 657.338C138.03 662.253 125.444 665.511 112.425 667.027C98.4639 669.312 79.6788 665.45 68.1824 674.62L69.2434 672.791C70.8789 670.384 72.4567 667.913 73.9479 665.347C75.1217 663.763 76.4071 662.272 77.7958 660.882C95.6607 653.502 116.665 658.203 135.836 654.867C146.407 652.922 156.325 648.976 165.094 643.228C166.79 642.681 168.434 642.01 170.013 641.22C164.692 648.121 157.88 653.666 150.01 657.498L149.866 657.338Z" fill="#CFC6AF"/>
<path d="M-3.98823 648.372C-4.37865 641.817 -5.05767 635.001 -5.96642 628.451C-6.05461 627.718 -7.14861 627.836 -7.03169 628.543C-6.41112 635.005 -7.31512 642.149 -4.96715 648.444C-4.91247 648.544 -4.83032 648.628 -4.73183 648.684C-4.63335 648.74 -4.52326 648.766 -4.41647 648.758C-4.30969 648.751 -4.21135 648.709 -4.13476 648.64C-4.05817 648.571 -4.00702 648.478 -3.98823 648.372V648.372Z" fill="#CFC6AF"/>
<path d="M43.0345 694.512C37.6693 698.447 32.064 702.06 26.2434 705.333C26.1831 705.388 26.1434 705.462 26.1299 705.545C26.1164 705.629 26.1299 705.717 26.1683 705.798C26.2067 705.879 26.2682 705.948 26.344 705.996C26.4198 706.044 26.5062 706.068 26.5908 706.064C33.1629 704.058 38.9913 700.423 43.584 695.467C44.1299 694.974 43.4943 694.097 43.0345 694.512Z" fill="#CFC6AF"/>
<path d="M66.6393 667.896C60.7888 665.985 55.215 671.197 49.3672 670.386C49.2546 670.38 49.1482 670.417 49.0693 670.489C48.9903 670.562 48.9446 670.665 48.9413 670.778C48.9379 670.891 48.9772 671.005 49.0512 671.098C49.1252 671.192 49.2285 671.257 49.3406 671.281C51.9546 671.681 54.5624 671.487 56.9704 670.713C60.2672 670.236 63.5151 669.568 66.6989 668.713C67.0441 668.575 67.0427 667.996 66.6393 667.896Z" fill="#CFC6AF"/>
<path d="M69.2398 671.583C67.4835 671.719 65.8143 672.183 64.0579 672.261C63.4532 672.285 63.6283 673.23 64.2329 673.205C66.073 673.397 67.8761 673.073 69.443 672.27C69.5308 672.252 69.6043 672.199 69.6473 672.122C69.6904 672.045 69.6994 671.951 69.6724 671.859C69.6455 671.768 69.5848 671.688 69.5036 671.636C69.4225 671.584 69.3276 671.565 69.2398 671.583V671.583Z" fill="#CFC6AF"/>
<path d="M9.70169 759.058C16.5257 758.696 23.4629 757.535 30.1993 756.671C30.3548 756.623 30.4835 756.521 30.5638 756.38C30.6441 756.24 30.6711 756.071 30.6403 755.902C30.6095 755.732 30.5228 755.573 30.3946 755.449C30.2665 755.326 30.1048 755.247 29.9366 755.225C22.9295 755.393 16.0514 756.388 9.44039 758.192C9.35215 758.233 9.28388 758.306 9.24684 758.397C9.2098 758.489 9.2062 758.594 9.23663 758.695C9.26706 758.796 9.32972 758.887 9.41426 758.953C9.4988 759.019 9.60018 759.056 9.70169 759.058V759.058Z" fill="#CFC6AF"/>
<path d="M-4.51104 764.473C2.5137 765.23 9.47419 764.616 15.9879 762.665C16.6498 762.473 16.1576 761.409 15.4669 761.568C8.93422 763.293 2.1653 762.619 -4.54176 763.688C-4.97347 763.788 -4.9719 764.425 -4.51104 764.473Z" fill="#CFC6AF"/>
</svg>
