<svg width="39" height="89" viewBox="0 0 39 89" fill="none" xmlns="http://www.w3.org/2000/svg">
<path d="M27.5442 49.3459C27.8697 49.7191 28.2931 49.994 28.7666 50.1396C28.7154 50.1537 28.6688 50.1807 28.6313 50.2182C28.5938 50.2557 28.5667 50.3022 28.5527 50.3533C27.6053 53.0398 24.8855 50.567 26.6885 48.6132C26.9941 48.2469 26.6885 47.8501 26.169 48.0943C24.3966 49.4986 23.6326 45.8352 25.9857 46.2626C26.0414 46.2723 26.0985 46.269 26.1527 46.2529C26.2069 46.2369 26.2567 46.2086 26.2981 46.1701C26.3395 46.1317 26.3715 46.0842 26.3915 46.0314C26.4115 45.9786 26.419 45.9219 26.4135 45.8657C26.8719 46.0794 27.2692 46.3236 27.6665 46.5373C27.4619 46.7061 27.2951 46.9159 27.1769 47.1531C27.0587 47.3903 26.9916 47.6497 26.9801 47.9145C26.9685 48.1792 27.0128 48.4435 27.11 48.69C27.2071 48.9366 27.3551 49.1601 27.5442 49.3459Z" fill="white"/>
<path d="M23.2356 10.2097C23.2145 10.7039 23.3423 11.1931 23.6024 11.614H19.813C19.7795 11.5637 19.7341 11.5223 19.6808 11.4937C19.6274 11.4652 19.5679 11.4502 19.5073 11.4502C19.4468 11.4502 19.3873 11.4652 19.334 11.4937C19.2807 11.5223 19.2352 11.5637 19.2018 11.614H17.521C17.4914 11.5634 17.449 11.5213 17.3981 11.4921C17.3471 11.4629 17.2894 11.4475 17.2307 11.4475C17.1719 11.4475 17.1143 11.4629 17.0633 11.4921C17.0124 11.5213 16.97 11.5634 16.9404 11.614H16.482C16.499 11.5542 16.499 11.4907 16.482 11.4309V9.50761C16.482 8.80547 16.1458 8.13385 16.1152 7.43171C16.7264 7.18748 17.3376 7.00433 17.9488 6.82116C20.4784 6.08657 23.0501 5.50547 25.6498 5.08105C25.2575 5.35365 24.8985 5.67128 24.5802 6.02743C24.0463 6.64311 23.641 7.35931 23.3884 8.13385C23.1869 8.80646 23.1347 9.51492 23.2356 10.2097Z" fill="#CA6347"/>
<path d="M23.3271 4.80605C25.833 4.3176 28.3389 3.92074 30.8447 3.49334C32.6961 2.99658 34.6262 2.86182 36.5288 3.09648L37.2622 3.31017C38.1484 3.67651 38.0567 3.15754 37.0177 1.75325L35.612 1.57008C34.1649 1.27543 32.6865 1.16262 31.2114 1.23427C30.0204 1.2953 28.827 1.2953 27.636 1.23427C26.2685 1.28683 24.9083 1.46051 23.5716 1.75325C18.7804 2.41425 14.1914 4.11249 10.1255 6.7293C10.3394 7.55356 10.8895 8.19464 11.1645 8.95784C11.4701 8.77467 11.6535 8.4694 11.9896 8.28623C12.4429 8.03181 12.9125 7.80745 13.3953 7.61461C14.2623 7.23904 15.15 6.91289 16.054 6.63772C18.4382 5.87764 20.8672 5.26592 23.3271 4.80605ZM24.9773 2.48592C22.4195 2.80896 19.9258 3.51925 17.582 4.59234C15.6262 5.32501 12.8758 7.40092 10.8589 7.33986C10.8429 7.20922 10.8596 7.07665 10.9077 6.95408C10.9557 6.83151 11.0334 6.7228 11.134 6.63772L10.5839 6.91247C14.0676 4.22601 20.6073 1.50902 24.9773 2.48592Z" fill="#CA6347"/>
<path d="M2.73042 47.3009C1.20249 53.3937 1.20249 59.769 2.73042 65.8619C3.42337 68.4127 3.90377 71.0165 4.16671 73.6465C4.16671 75.1118 4.35004 76.6993 4.47228 78.073C4.38733 79.449 4.52144 80.8298 4.86957 82.1638C4.90025 82.2423 4.90025 82.3295 4.86957 82.408C5.57244 83.6902 7.92551 84.1786 9.209 84.4229C10.782 84.8102 12.3887 85.0453 14.0069 85.125C14.0825 85.1475 14.1489 85.1939 14.1961 85.2571C14.2433 85.3204 14.2688 85.3972 14.2688 85.4761C14.2688 85.5549 14.2433 85.6317 14.1961 85.695C14.1489 85.7582 14.0825 85.8046 14.0069 85.8271C11.8695 85.7595 9.75137 85.4 7.71157 84.7586C8.10421 85.3245 8.58983 85.8199 9.14787 86.224C10.2042 86.9006 11.3911 87.3478 12.6316 87.5367C14.6581 87.802 16.6998 87.9346 18.7435 87.9336H20.7605C22.8039 87.9592 24.8466 87.8368 26.8724 87.5672C28.1129 87.3784 29.2998 86.9311 30.3561 86.2545C30.9142 85.8505 31.3998 85.355 31.7924 84.7892C29.7625 85.4282 27.6549 85.7876 25.5277 85.8577C25.452 85.8351 25.3857 85.7888 25.3385 85.7255C25.2913 85.6623 25.2658 85.5855 25.2658 85.5066C25.2658 85.4277 25.2913 85.3509 25.3385 85.2877C25.3857 85.2244 25.452 85.1781 25.5277 85.1555C27.1456 85.0736 28.7521 84.8385 30.3256 84.4534C31.4563 84.2091 33.9622 83.7207 34.6345 82.4385C34.6038 82.36 34.6038 82.2728 34.6345 82.1943C34.9777 80.8592 35.1219 79.4807 35.0623 78.1036L35.3373 73.677C35.6003 71.047 36.0807 68.4432 36.7736 65.8924C38.2866 59.7977 38.2866 53.4261 36.7736 47.3314C36.1321 44.7295 35.1019 42.239 33.7177 39.9436C32.2929 37.8096 30.7311 35.7702 29.0421 33.8381C26.6674 31.2017 24.904 28.0747 23.8775 24.6797H15.5654C14.4156 28.0533 12.6084 31.1659 10.248 33.8381C8.54948 35.7624 6.98717 37.8025 5.57242 39.9436C4.24004 42.2297 3.2807 44.7133 2.73042 47.3009ZM15.7182 38.3867C14.0985 40.0658 11.6232 40.0963 9.60629 41.1953C7.55249 42.3578 5.8036 43.9898 4.50287 45.9576C4.50287 42.7217 7.92551 39.1805 9.88131 36.7993C12.481 33.5365 14.7246 30.0058 16.5738 26.2671H16.8183C17.0017 26.2671 16.8183 25.8398 17.3073 26.0534C17.9373 28.1036 18.1215 30.2646 17.8474 32.3917C17.5733 34.5188 16.8474 36.5628 15.7182 38.3867ZM4.53341 65.1292L5.23627 66.045C7.68102 70.4411 6.55036 75.2034 6.61148 80.1795C6.12253 78.1036 6.15304 75.9361 5.75577 73.7991C5.3585 71.6622 3.64719 67.3272 4.53341 65.1292ZM3.92223 50.9032C4.7779 48.3694 6.06138 45.0113 9.209 44.7976C12.1872 42.9727 15.7459 42.3402 19.1714 43.027C22.3472 43.4046 25.4082 44.4447 28.1558 46.0798H28.5226C28.7976 46.0798 28.8893 46.3545 28.8587 46.5682C29.2463 46.8476 29.6139 47.1536 29.9589 47.484C31.1373 48.8625 31.9797 50.4952 32.4198 52.2538C32.8599 54.0124 32.8857 55.849 32.4953 57.6193C32.2602 58.9707 31.7375 60.256 30.9625 61.3883C30.1875 62.5206 29.1784 63.4736 28.0031 64.1828C27.9233 64.2066 27.8384 64.2066 27.7586 64.1828C27.1165 64.559 26.4414 64.8757 25.7417 65.1292C24.2798 65.6692 22.7632 66.0479 21.2189 66.2587C21.2189 66.4419 20.9133 66.5335 20.7299 66.2587C20.5466 65.984 20.7299 66.2587 20.5466 66.2587C20.0275 66.2902 19.507 66.2902 18.988 66.2587C17.0577 66.4574 15.1121 66.4574 13.1817 66.2587C11.4391 66.2158 9.73174 65.7586 8.20119 64.9251C6.67064 64.0916 5.36093 62.9058 4.38061 61.4658C3.60963 59.8227 3.17216 58.0433 3.09348 56.2303C3.0148 54.4174 3.29649 52.6068 3.92223 50.9032Z" fill="#FF97B6"/>
<path d="M23.4803 21.5653C23.4652 21.8093 23.4652 22.054 23.4803 22.298C23.4472 22.4075 23.4472 22.5243 23.4803 22.6338C23.4803 23.0917 23.4803 23.5496 23.7248 24.0075H15.5655C15.7563 23.2062 15.8689 22.3883 15.9016 21.5653C15.919 21.4956 15.9112 21.4221 15.8797 21.3576C15.8482 21.293 15.7949 21.2417 15.7292 21.2125C15.6635 21.1834 15.5897 21.1783 15.5206 21.1981C15.4515 21.218 15.3917 21.2615 15.3515 21.3211C15.1962 21.0453 15.0227 20.7801 14.832 20.5273H24.3666C24.1692 20.7535 23.9951 20.9989 23.8471 21.26C23.8022 21.2509 23.7557 21.2519 23.7113 21.2631C23.6668 21.2742 23.6255 21.2953 23.5902 21.3246C23.555 21.3539 23.5269 21.3908 23.5078 21.4324C23.4888 21.4741 23.4794 21.5195 23.4803 21.5653Z" fill="#AC7776"/>
<path d="M5.02282 51.4524C5.36555 51.6537 5.75591 51.7599 6.1535 51.7599C6.55109 51.7599 6.94144 51.6537 7.28418 51.4524C7.8751 51.0796 8.30972 50.5044 8.50658 49.8345C8.43952 50.7865 8.60743 51.7404 8.99554 52.6125C9.36226 53.3757 10.2485 54.6884 11.2875 54.261C11.9264 53.8431 12.4289 53.2476 12.733 52.5478C13.0371 51.848 13.1295 51.0745 12.9988 50.3229C13.4864 50.7904 14.0808 51.1321 14.7305 51.3182C15.3802 51.5044 16.0655 51.5295 16.7271 51.3914C17.5827 51.2082 17.7966 50.3839 17.7966 49.6513C17.7927 49.2507 17.6763 48.8593 17.4605 48.5217C18.0552 48.6635 18.677 48.6449 19.2623 48.4679C19.8475 48.2909 20.3752 47.9618 20.7915 47.5143C22.2583 45.7742 20.6081 44.1257 18.8968 43.4541C21.2451 43.7714 23.5321 44.4404 25.6809 45.4384C23.0223 45.4384 23.5723 49.2544 25.5281 49.0407C25.2911 49.5103 25.2256 50.0478 25.3427 50.5605C25.4599 51.0731 25.7524 51.5289 26.1699 51.8493C26.3726 52.0186 26.6119 52.1388 26.8688 52.2003C27.1258 52.2618 27.3936 52.2631 27.6511 52.2039C27.9086 52.1448 28.149 52.0269 28.3532 51.8594C28.5575 51.692 28.7202 51.4795 28.8285 51.2387C29.4397 52.3377 30.8149 53.5894 31.8845 53.1315C31.9317 53.9551 31.9317 54.7806 31.8845 55.6042C31.8897 57.4637 31.3128 59.2783 30.2343 60.794C30.5699 60.0426 30.6876 59.2122 30.5742 58.3973C30.4607 57.5824 30.1206 56.8157 29.5925 56.1843C29.0911 55.8187 28.4774 55.6399 27.8579 55.6789C27.2383 55.718 26.6519 55.9723 26.2004 56.398C25.5534 56.9325 25.0582 57.6272 24.7641 58.4128L24.5808 59.0539C24.2141 56.9169 23.4501 54.6273 21.5249 55.4516C19.5996 56.2758 19.6608 58.5044 20.2108 60.7635C19.8428 60.3833 19.3936 60.0911 18.8968 59.9087C18.1022 59.6034 16.727 59.3591 16.2381 60.336C15.3824 62.0151 16.2381 63.3889 17.7355 64.4573C15.6575 63.6636 12.9071 63.3583 12.5404 65.4647L11.4403 65.251C11.4825 65.1935 11.5053 65.124 11.5053 65.0526C11.5053 64.9813 11.4825 64.9118 11.4403 64.8542C11.3554 64.545 11.2323 64.2476 11.0736 63.9689C11.3164 64.0087 11.5642 64.0087 11.807 63.9689C12.1313 63.8506 12.414 63.6402 12.6203 63.3636C12.8266 63.087 12.9475 62.7562 12.9682 62.4119C12.989 62.0624 12.9342 61.7125 12.8077 61.3859C12.6811 61.0593 12.4858 60.7637 12.2348 60.5192C12.0146 60.2993 11.7419 60.1391 11.4424 60.0537C11.143 59.9682 10.8268 59.9603 10.5235 60.0308C10.857 59.8086 11.1384 59.517 11.3486 59.176C11.4761 58.7947 11.5121 58.3889 11.4537 57.9912C11.3953 57.5934 11.2442 57.215 11.0124 56.8864C10.0345 55.1768 8.3232 55.94 7.19251 56.8864C7.19251 55.6653 6.61188 54.1694 5.14503 54.2915C4.92127 54.2911 4.69986 54.337 4.49473 54.4263C4.28961 54.5156 4.10521 54.6464 3.95322 54.8105C3.93812 54.5563 3.93812 54.3015 3.95322 54.0473C4.0684 53.0115 4.28333 51.9891 4.59499 50.9945C4.69153 51.1844 4.83984 51.3431 5.02282 51.4524Z" fill="#ABD682"/>
<path d="M13.9146 19.5205C13.8452 19.4972 13.7701 19.4972 13.7007 19.5205C13.2117 19.0931 12.845 19.1236 12.8145 18.2078C12.8145 16.6204 12.8145 15.0024 12.8145 13.4149C12.8333 13.377 12.8431 13.3352 12.8431 13.2928C12.8431 13.2504 12.8333 13.2086 12.8145 13.1707C12.8778 13.0029 12.9848 12.8549 13.1244 12.7422C13.2641 12.6295 13.4314 12.5561 13.609 12.5296C13.7316 13.4618 13.7316 14.406 13.609 15.3382C13.609 16.5593 13.609 17.7804 13.609 19.0015C13.6315 19.0771 13.6779 19.1434 13.7413 19.1906C13.8046 19.2377 13.8814 19.2632 13.9604 19.2632C14.0394 19.2632 14.1163 19.2377 14.1796 19.1906C14.2429 19.1434 14.2893 19.0771 14.3118 19.0015C14.3118 17.6583 14.3118 16.2845 14.3118 14.9413C14.4192 14.0899 14.4192 13.2284 14.3118 12.377H14.8619C14.8619 13.6591 14.8619 14.9413 14.8619 16.254C14.6859 17.1798 14.7923 18.137 15.1675 19.0015C15.3814 19.3984 15.9926 19.0015 15.7787 18.6657C15.464 17.817 15.3899 16.8979 15.5648 16.0098C15.626 14.8302 15.626 13.6482 15.5648 12.4686H16.9705C16.9705 14.6055 16.8177 16.773 16.7871 18.9099C16.8097 18.9855 16.8561 19.0519 16.9194 19.099C16.9827 19.1462 17.0596 19.1716 17.1386 19.1716C17.2175 19.1716 17.2944 19.1462 17.3577 19.099C17.421 19.0519 17.4675 18.9855 17.49 18.9099C17.49 16.773 17.6428 14.6055 17.6734 12.4686H19.2319V18.391C19.2544 18.4666 19.3008 18.5329 19.3642 18.58C19.4275 18.6272 19.5043 18.6527 19.5833 18.6527C19.6623 18.6527 19.7392 18.6272 19.8025 18.58C19.8658 18.5329 19.9122 18.4666 19.9347 18.391V12.3159H21.5238V18.4215C21.5464 18.4971 21.5928 18.5634 21.6561 18.6106C21.7194 18.6577 21.7963 18.6832 21.8753 18.6832C21.9542 18.6832 22.0311 18.6577 22.0944 18.6106C22.1577 18.5634 22.2041 18.4971 22.2267 18.4215V12.3159H23.7852V19.0626C23.8078 19.1382 23.8541 19.2045 23.9175 19.2516C23.9808 19.2988 24.0576 19.3243 24.1366 19.3243C24.2156 19.3243 24.2925 19.2988 24.3558 19.2516C24.4191 19.2045 24.4655 19.1382 24.4881 19.0626V12.3159H25.5271V17.9636C25.5496 18.0392 25.596 18.1055 25.6594 18.1526C25.7227 18.1998 25.7995 18.2253 25.8785 18.2253C25.9575 18.2253 26.0344 18.1998 26.0977 18.1526C26.161 18.1055 26.2074 18.0392 26.23 17.9636V12.3159H26.4744C27.3912 13.2318 27.1162 14.5445 27.1162 15.7961C27.1162 17.0477 27.1161 18.8489 25.9549 19.8258H14.4035L13.9146 19.5205Z" fill="#CA7876"/>
<path d="M27.7901 48.5526C27.6557 48.3657 27.5835 48.1415 27.5835 47.9115C27.5835 47.6814 27.6557 47.4572 27.7901 47.2704C27.7901 47.2704 28.0956 47.0567 28.2484 46.9346C29.1411 47.5497 29.9 48.3389 30.4793 49.2547C30.0264 49.5045 29.4948 49.571 28.9943 49.4403C28.4938 49.3096 28.0627 48.9918 27.7901 48.5526Z" fill="#FAB54A"/>
<path d="M12.5097 47.3309C11.379 47.6667 9.23984 47.3309 8.81201 45.9877L9.51491 45.4992C9.6156 45.5081 9.7159 45.4784 9.79539 45.416C9.87488 45.3536 9.92758 45.2633 9.94274 45.1634C11.4072 44.2058 13.0879 43.6287 14.8322 43.4844C14.902 44.2885 14.7149 45.094 14.2975 45.7852C13.8802 46.4764 13.2543 47.0175 12.5097 47.3309Z" fill="#FAB54A"/>
<path d="M11.8365 48.186C11.8974 48.5661 12.0106 48.9359 12.1727 49.285C12.3943 50.4963 12.2672 51.7455 11.806 52.8873C11.1642 54.4443 9.9113 53.101 9.51403 52.1241C9.14251 50.9689 9.08971 49.735 9.36122 48.5524C9.36122 48.2166 9.02506 47.9418 8.78058 48.2166C7.83324 49.1629 7.74156 51.0251 6.15246 51.2694C3.70769 51.4525 6.64144 47.2702 7.03871 46.6902C7.31388 46.414 7.63427 46.1869 7.98605 46.0186C8.19997 47.6976 10.2474 48.2776 11.8365 48.2471C11.8365 48.125 11.806 48.1555 11.8365 48.186Z" fill="white"/>
<path d="M19.08 47.8808C18.258 48.0784 17.3928 47.9811 16.6353 47.6061C16.2764 47.2848 15.8875 46.9985 15.474 46.7513C15.1379 46.5376 14.8017 47.026 15.0462 47.3008C15.3683 47.6516 15.7514 47.9413 16.1769 48.1556C16.442 48.4137 16.6778 48.7004 16.8797 49.0103C17.6743 50.2315 16.0852 51.0252 15.0462 50.781C14.5618 50.6699 14.1091 50.4499 13.7225 50.1378C13.336 49.8257 13.0257 49.4297 12.8154 48.9798C12.7505 48.6536 12.6479 48.3361 12.5098 48.0335C14.5878 47.6671 15.4129 45.3165 15.5657 43.4238C16.1663 43.3933 16.7681 43.3933 17.3687 43.4238C17.3438 43.4775 17.3324 43.5364 17.3353 43.5955C17.3383 43.6546 17.3555 43.7121 17.3855 43.7632C17.4156 43.8142 17.4575 43.8571 17.5078 43.8884C17.5581 43.9197 17.6152 43.9383 17.6743 43.9427C18.5946 43.9795 19.4674 44.361 20.1191 45.0112C21.2497 46.1102 20.2718 47.545 19.08 47.8808Z" fill="white"/>
<path d="M5.96992 59.4204C6.36719 59.6036 6.61165 60.2141 6.76444 60.5499C6.91724 60.8858 7.68123 62.9006 6.5811 62.9311C6.40705 62.9192 6.24368 62.843 6.12273 62.7174C5.21864 61.8109 4.56574 60.6853 4.22803 59.451C4.80865 59.4204 5.45042 59.1762 5.96992 59.4204Z" fill="#FAB54A"/>
<path d="M7.07084 58.5657C9.17943 59.6647 8.53768 62.2901 8.01817 64.0912C7.71193 63.9261 7.416 63.7426 7.13197 63.5417C8.10987 63.1143 7.92649 61.71 7.59034 60.7331C7.3872 60.1389 7.08783 59.582 6.70414 59.0846C6.00128 58.2604 4.93167 58.8099 4.04545 58.7488C4.03042 58.566 4.03042 58.3822 4.04545 58.1993C5.0654 57.9576 6.13825 58.0875 7.07084 58.5657Z" fill="#F79A2F"/>
<path d="M20.882 57.2836C21.921 56.0625 22.6849 55.9099 23.1433 56.9173C23.3408 57.2506 23.5143 57.5974 23.6628 57.9552C24.0336 59.0666 24.2094 60.2337 24.1823 61.4049C23.1784 61.6221 22.2939 62.2111 21.707 63.0534C20.7664 61.2853 20.4745 59.2441 20.882 57.2836Z" fill="white"/>
<path d="M24.3047 62.0766C24.3343 62.1273 24.3767 62.1694 24.4276 62.1986C24.4786 62.2278 24.5363 62.2432 24.595 62.2432C24.6538 62.2432 24.7115 62.2278 24.7624 62.1986C24.8133 62.1694 24.8557 62.1273 24.8854 62.0766C25.3966 61.9957 25.9199 62.1027 26.3582 62.3777C26.7965 62.6528 27.1201 63.0773 27.269 63.5725C26.7207 63.8998 26.1487 64.1855 25.5577 64.4273C24.5735 64.8302 23.549 65.127 22.5017 65.3126C22.4231 65.282 22.3359 65.282 22.2573 65.3126C22.1524 64.9651 22.1236 64.599 22.1727 64.2394C22.2218 63.8797 22.3477 63.5347 22.5418 63.2279C22.736 62.9211 22.9938 62.6595 23.298 62.4609C23.6021 62.2622 23.9455 62.1312 24.3047 62.0766Z" fill="#FAB54A"/>
<path d="M16.9404 62.6866C16.8026 62.5008 16.7098 62.2857 16.6692 62.0581C16.6286 61.8305 16.6414 61.5966 16.7065 61.3747C16.7717 61.1529 16.8874 60.9491 17.0447 60.7795C17.2019 60.6098 17.3963 60.4789 17.6128 60.397C18.0141 60.4066 18.4096 60.4952 18.7766 60.6576C19.1436 60.8199 19.475 61.053 19.7519 61.3433C20.4077 62.0736 20.9348 62.9097 21.3105 63.8161C21.1534 64.3648 21.1534 64.9465 21.3105 65.4952H20.6076C19.1588 64.8981 17.8937 63.9292 16.9404 62.6866Z" fill="white"/>
<path d="M25.1006 61.3126C25.1312 61.0081 25.1312 60.7013 25.1006 60.3968C25.1043 59.6777 25.2845 58.9704 25.6255 58.337C25.9665 57.7036 26.4578 57.1635 27.0564 56.764C28.9817 55.5429 29.929 57.6493 29.929 59.1452C29.9131 59.7315 29.7712 60.3076 29.5128 60.8343C29.2544 61.361 28.8857 61.8261 28.4316 62.1979C28.3926 62.2323 28.3613 62.2746 28.3399 62.322C28.3185 62.3693 28.3074 62.4207 28.3074 62.4727C28.3074 62.5247 28.3185 62.576 28.3399 62.6234C28.3613 62.6708 28.3926 62.7131 28.4316 62.7474L27.9427 63.0833C27.6929 62.5438 27.2909 62.0889 26.7861 61.7743C26.2812 61.4598 25.6954 61.2993 25.1006 61.3126Z" fill="white"/>
<path d="M4.10596 57.4969C4.10596 57.039 4.10596 56.5811 4.10596 56.0927C5.78671 55.2379 6.58124 55.5432 6.48956 56.9475C6.48956 57.1306 6.48956 57.3138 6.48956 57.5275C6.1163 57.3951 5.72429 57.3229 5.3283 57.3138C4.99215 57.3138 4.44211 57.4969 4.10596 57.4969Z" fill="white"/>
<path d="M9.78914 60.794C10.0775 60.7028 10.387 60.7028 10.6753 60.794C11.1643 61.0688 11.3171 61.9236 11.1032 63.3889C10.3697 63.6331 9.69748 63.3889 8.99463 63.1447C9.18512 62.3973 9.25728 61.6248 9.20852 60.8551L9.78914 60.794Z" fill="white"/>
<path d="M7.13184 57.8022L7.74301 57.1611C9.27098 57.1611 10.1878 57.4664 10.5239 57.8938C10.5683 58.1831 10.5413 58.4789 10.4455 58.7555C10.3496 59.0321 10.1877 59.2812 9.97383 59.4812C9.66681 59.6524 9.37982 59.8572 9.11817 60.0918C8.99831 59.6591 8.81283 59.2473 8.56813 58.8707C8.18008 58.4067 7.688 58.0407 7.13184 57.8022Z" fill="white"/>
<path d="M15.8721 64.8542C16.8632 64.9117 17.822 65.2274 18.653 65.7701C17.5834 65.7701 16.5444 65.7701 15.597 65.7701C14.8541 65.8153 14.1091 65.8153 13.3662 65.7701C13.4273 64.549 15.0164 64.8542 15.8721 64.8542Z" fill="white"/>
<path d="M10.5849 65.1596C9.92502 64.9659 9.28134 64.7209 8.65967 64.427C8.65967 64.2438 8.65967 64.0606 8.65967 63.8774C9.05655 63.9324 9.43585 64.0763 9.76924 64.2983C10.1026 64.5204 10.3814 64.8148 10.5849 65.1596Z" fill="white"/>
<path d="M29.2251 50.4453C29.2531 50.3663 29.2531 50.2801 29.2251 50.201C29.8368 50.2866 30.4597 50.1686 30.9975 49.8652C31.3842 50.6668 31.6518 51.5204 31.7921 52.399C30.9975 53.2844 29.2862 51.0253 29.2251 50.4453Z" fill="white"/>
<path d="M1.96643 66.0449C2.72811 69.1755 3.24912 72.3597 3.52494 75.5696C3.52494 77.0045 3.67776 78.4393 3.83055 79.8741C3.82543 80.5804 3.88681 81.2857 4.0139 81.9805C3.99241 82.0231 3.98121 82.0702 3.98121 82.1179C3.98121 82.1656 3.99241 82.2126 4.0139 82.2552C4.25838 83.2627 5.32795 83.8732 6.30585 84.2701C6.30014 84.326 6.31173 84.3823 6.33905 84.4315C6.36638 84.4806 6.40812 84.5202 6.45866 84.5448C7.19208 85.0333 7.6199 85.9797 8.35333 86.5292C9.38688 87.3153 10.5905 87.8486 11.8676 88.0861C17.129 88.8186 22.4666 88.8186 27.728 88.0861C29.0148 87.8499 30.2287 87.3167 31.2728 86.5292C32.0063 85.9797 32.4341 85.0333 33.137 84.5448C33.1886 84.5187 33.2327 84.4797 33.2648 84.4316C33.2969 84.3834 33.316 84.3278 33.3203 84.2701C34.2677 83.8732 35.3373 83.2627 35.5817 82.2552C35.6145 82.1666 35.6145 82.0692 35.5817 81.9805C35.6936 81.2837 35.7549 80.5797 35.7651 79.8741C35.7651 78.4393 35.9484 77.0045 36.0401 75.5696C36.3159 72.3597 36.837 69.1755 37.5987 66.0449C38.9867 60.677 39.1745 55.0696 38.1487 49.6209C37.6745 46.989 36.9057 44.4187 35.8568 41.9584C34.7639 39.775 33.4204 37.726 31.8535 35.8528C28.4308 31.6705 24.9776 27.7629 24.3359 22.2374C24.5347 21.495 24.9892 20.8464 25.6193 20.4057C25.6451 20.4376 25.6777 20.4633 25.7148 20.4809C25.7518 20.4986 25.7923 20.5077 25.8333 20.5077C25.8743 20.5077 25.9148 20.4986 25.9518 20.4809C25.9888 20.4633 26.0214 20.4376 26.0472 20.4057C26.6241 20.1164 27.1183 19.6858 27.4835 19.154C27.8066 18.1708 27.9211 17.1311 27.8196 16.1012C27.8196 14.1169 28.278 12.4074 26.5973 11.1557C26.5722 11.1179 26.5381 11.0869 26.4981 11.0655C26.4581 11.0441 26.4135 11.0329 26.3681 11.0329C26.3227 11.0329 26.278 11.0441 26.238 11.0655C26.198 11.0869 26.164 11.1179 26.1389 11.1557H24.7331C24.7374 11.1091 24.7318 11.0622 24.7169 11.0178C24.7019 10.9735 24.6778 10.9328 24.6462 10.8983C24.6145 10.8638 24.576 10.8363 24.5331 10.8175C24.4902 10.7988 24.4438 10.7892 24.397 10.7894C23.8164 10.7894 23.9386 9.69039 23.9386 9.32406C23.9386 8.95772 23.9386 8.71349 23.9386 8.40821C23.9386 8.10293 23.9386 8.01135 23.9386 7.91976C23.9681 7.86871 23.9836 7.8108 23.9836 7.75186C23.9836 7.69291 23.9681 7.63501 23.9386 7.58396C24.2342 6.88039 24.6592 6.23838 25.1915 5.69123C25.8642 5.10391 26.628 4.62965 27.4529 4.28694C30.3574 3.38993 33.4134 3.08879 36.4374 3.40163C37.5986 3.70691 38.8516 3.98167 38.9127 2.33316C38.9127 0.226731 35.3373 0.409898 34.2066 0.257258C32.9296 0.0744034 31.633 0.0744034 30.3561 0.257258C28.767 0.257258 27.1473 0.257258 25.5583 0.257258C19.892 0.768296 14.4316 2.63192 9.63681 5.69123C9.4229 5.69123 9.05621 5.69123 9.08677 5.93545C9.08677 7.24815 10.0952 7.98082 10.3091 9.17141C10.3231 9.21756 10.3461 9.2605 10.3767 9.29777C10.4073 9.33504 10.445 9.36591 10.4876 9.38859C10.5302 9.41128 10.5768 9.42535 10.6249 9.42999C10.6729 9.43464 10.7213 9.42975 10.7675 9.41564C11.5926 9.17141 12.1732 8.43874 12.9678 8.04188C13.7623 7.64501 14.4652 7.43132 15.2292 7.15656C15.2292 7.67554 15.4125 8.16399 15.5042 8.65244C15.5957 9.43332 15.5957 10.2222 15.5042 11.0031C15.5042 11.0031 15.5042 11.0031 15.5042 11.1862H13.6707C13.639 11.129 13.5925 11.0813 13.5361 11.048C13.4796 11.0148 13.4153 10.9973 13.3498 10.9973C13.2843 10.9973 13.22 11.0148 13.1635 11.048C13.1071 11.0813 13.0606 11.129 13.0289 11.1862C13.0182 11.2366 13.0182 11.2886 13.0289 11.3389C12.808 11.397 12.6017 11.5002 12.4228 11.6421C12.244 11.784 12.0966 11.9614 11.9899 12.1632C11.9402 12.2233 11.9131 12.2989 11.9131 12.3768C11.9131 12.4548 11.9402 12.5304 11.9899 12.5905C11.9684 12.6332 11.9572 12.6802 11.9572 12.7279C11.9572 12.7756 11.9684 12.8227 11.9899 12.8653C11.9899 14.5749 11.9899 16.2844 11.9899 17.994C11.9934 18.3756 12.1104 18.7475 12.3261 19.0625C12.54 19.2762 13.09 19.4288 13.09 19.4898C13.0921 19.5531 13.1105 19.6148 13.1435 19.6688C13.1765 19.7229 13.2231 19.7675 13.2785 19.7982C13.3339 19.829 13.3963 19.8448 13.4597 19.8443C13.5231 19.8438 13.5852 19.8268 13.6401 19.7951C13.6566 19.8501 13.6883 19.8993 13.7316 19.9371C13.7748 19.9749 13.8278 19.9998 13.8846 20.0088C14.3512 20.543 14.7419 21.1388 15.0458 21.7794C14.4652 27.3661 11.0425 31.2736 7.58934 35.4865C6.02241 37.3597 4.67896 39.4087 3.58607 41.5921C2.53712 44.0524 1.7683 46.6227 1.29412 49.2546C0.253048 54.8308 0.482842 60.5696 1.96643 66.0449ZM23.358 4.80592C20.8967 5.28582 18.4677 5.91794 16.0848 6.69865C15.1808 6.97382 14.2932 7.29997 13.4262 7.67554C12.9434 7.86838 12.4738 8.09274 12.0204 8.34716C11.6843 8.53033 11.501 8.8356 11.1954 9.01877C10.9203 8.25557 10.3702 7.61449 10.1563 6.79023C14.2223 4.17343 18.8112 2.47518 23.6025 1.81418C24.9392 1.52143 26.2994 1.34776 27.6669 1.29521C28.8579 1.35624 30.0513 1.35624 31.2423 1.29521C32.7174 1.22356 34.1957 1.33637 35.6429 1.63102L37.0486 1.81418C38.0876 3.21846 38.1793 3.73744 37.293 3.37111L36.5596 3.15741C34.657 2.92276 32.727 3.05751 30.8756 3.55427C28.3391 3.79849 25.8333 4.31748 23.3274 4.80592H23.358ZM23.358 8.13346C23.1359 8.80154 23.0629 9.51009 23.144 10.2094C23.1229 10.7036 23.2507 11.1927 23.5108 11.6136H19.7214C19.688 11.5633 19.6425 11.5219 19.5892 11.4934C19.5359 11.4648 19.4763 11.4498 19.4158 11.4498C19.3553 11.4498 19.2957 11.4648 19.2424 11.4934C19.1891 11.5219 19.1437 11.5633 19.1102 11.6136H17.4295C17.3999 11.563 17.3575 11.5209 17.3065 11.4917C17.2556 11.4625 17.1979 11.4471 17.1391 11.4471C17.0804 11.4471 17.0227 11.4625 16.9717 11.4917C16.9208 11.5209 16.8784 11.563 16.8488 11.6136H16.3905C16.4074 11.5538 16.4074 11.4904 16.3905 11.4305V9.50722C16.3905 8.80507 16.0543 8.13346 16.0237 7.43132C16.6349 7.18709 17.2461 7.00393 17.8573 6.82077C20.3868 6.08618 22.9585 5.50508 25.5583 5.08066C25.1659 5.35326 24.8069 5.67089 24.4887 6.02703C24.0092 6.6554 23.6563 7.37077 23.4497 8.13346H23.358ZM14.1902 19.8257L13.7929 19.5204C13.7235 19.4971 13.6484 19.4971 13.579 19.5204C13.09 19.093 12.7233 19.1235 12.6927 18.2077C12.6927 16.6202 12.6927 15.0022 12.6927 13.4148C12.7116 13.3768 12.7214 13.335 12.7214 13.2927C12.7214 13.2503 12.7116 13.2085 12.6927 13.1706C12.7561 13.0027 12.8631 12.8548 13.0028 12.7421C13.1425 12.6294 13.3097 12.556 13.4873 12.5295C13.61 13.4617 13.61 14.4059 13.4873 15.338C13.4873 16.5592 13.4873 17.7803 13.4873 19.0014C13.5099 19.077 13.5562 19.1433 13.6196 19.1905C13.6829 19.2376 13.7597 19.2631 13.8387 19.2631C13.9177 19.2631 13.9946 19.2376 14.0579 19.1905C14.1212 19.1433 14.1676 19.077 14.1902 19.0014C14.1902 17.6582 14.1902 16.2844 14.1902 14.9412C14.2976 14.0898 14.2976 13.2283 14.1902 12.3768H14.7402C14.7402 13.659 14.7402 14.9412 14.7402 16.2539C14.5642 17.1796 14.6706 18.1369 15.0458 19.0014C15.2597 19.3983 15.8709 19.0014 15.657 18.6656C15.3829 17.8055 15.3512 16.8866 15.5653 16.0097C15.6266 14.83 15.6266 13.648 15.5653 12.4684H16.9711C16.9711 14.6054 16.8183 16.7729 16.7877 18.9098C16.8103 18.9854 16.8567 19.0517 16.92 19.0989C16.9833 19.146 17.0602 19.1715 17.1391 19.1715C17.2181 19.1715 17.295 19.146 17.3583 19.0989C17.4216 19.0517 17.468 18.9854 17.4906 18.9098C17.4906 16.7729 17.6434 14.6054 17.6739 12.4684H19.2325V18.3908C19.255 18.4664 19.3014 18.5328 19.3647 18.5799C19.4281 18.6271 19.5049 18.6525 19.5839 18.6525C19.6629 18.6525 19.7397 18.6271 19.8031 18.5799C19.8664 18.5328 19.9127 18.4664 19.9353 18.3908V12.3158H21.5244V18.4214C21.547 18.497 21.5934 18.5633 21.6567 18.6104C21.72 18.6576 21.7969 18.6831 21.8759 18.6831C21.9548 18.6831 22.0317 18.6576 22.095 18.6104C22.1583 18.5633 22.2047 18.497 22.2273 18.4214V12.3158H23.7858V19.0625C23.8084 19.1381 23.8547 19.2044 23.9181 19.2515C23.9814 19.2987 24.0582 19.3241 24.1372 19.3241C24.2162 19.3241 24.2931 19.2987 24.3564 19.2515C24.4197 19.2044 24.4661 19.1381 24.4887 19.0625V12.3158H25.5277V17.9635C25.5502 18.0391 25.5966 18.1054 25.66 18.1525C25.7233 18.1997 25.8001 18.2251 25.8791 18.2251C25.9581 18.2251 26.035 18.1997 26.0983 18.1525C26.1616 18.1054 26.208 18.0391 26.2306 17.9635V12.3158H26.4751C27.3918 13.2316 27.1168 14.5443 27.1168 15.796C27.1168 17.0476 27.1168 18.8488 25.9555 19.8257H14.1902ZM23.8164 21.2605C23.7668 21.2312 23.71 21.2164 23.6525 21.2179C23.5949 21.2194 23.539 21.2372 23.4911 21.2691C23.4432 21.301 23.4053 21.3458 23.3817 21.3983C23.3582 21.4507 23.3499 21.5088 23.358 21.5657C23.3428 21.8097 23.3428 22.0544 23.358 22.2984C23.3248 22.4079 23.3248 22.5247 23.358 22.6342C23.358 23.0921 23.358 23.5501 23.6025 24.008H15.5653C15.7562 23.2067 15.8688 22.3888 15.9015 21.5657C15.9189 21.4961 15.9111 21.4225 15.8796 21.358C15.848 21.2935 15.7947 21.2421 15.7291 21.213C15.6634 21.1838 15.5895 21.1787 15.5205 21.1986C15.4514 21.2184 15.3915 21.262 15.3514 21.3215C15.1961 21.0457 15.0225 20.7805 14.8319 20.5278H24.3664C24.2008 20.7579 24.0576 21.0032 23.9386 21.2605H23.8164ZM2.60815 47.3008C3.22206 44.6899 4.25399 42.1952 5.66409 39.913C7.07884 37.7719 8.64114 35.7317 10.3397 33.8074C12.7119 31.1694 14.4749 28.0429 15.5042 24.6491H23.9997C25.0262 28.0441 26.7896 31.1711 29.1642 33.8074C30.8532 35.7396 32.415 37.779 33.8398 39.913C35.2241 42.2083 36.2543 44.6989 36.8958 47.3008C38.4087 53.3955 38.4087 59.7671 36.8958 65.8618C36.2028 68.4126 35.7224 71.0164 35.4595 73.6464L35.1844 78.0729C35.244 79.4501 35.0999 80.8285 34.7566 82.1637C34.7259 82.2422 34.7259 82.3294 34.7566 82.4079C34.0843 83.6901 31.7007 84.1785 30.4477 84.4228C28.8743 84.8079 27.2678 85.043 25.6499 85.1249C25.5743 85.1474 25.5079 85.1938 25.4607 85.257C25.4135 85.3203 25.388 85.3971 25.388 85.476C25.388 85.5548 25.4135 85.6316 25.4607 85.6949C25.5079 85.7581 25.5743 85.8045 25.6499 85.827C27.7771 85.757 29.8847 85.3975 31.9146 84.7585C31.522 85.3244 31.0364 85.8198 30.4783 86.2239C29.422 86.9005 28.2351 87.3477 26.9946 87.5366C24.9681 87.8019 22.9265 87.9345 20.8827 87.9334H18.6213C16.5778 87.9591 14.5351 87.8367 12.5094 87.5671C11.2689 87.3783 10.082 86.931 9.02563 86.2544C8.46759 85.8504 7.98198 85.3549 7.58934 84.7891C9.62914 85.4304 11.7472 85.7899 13.8846 85.8575C13.9602 85.835 14.0266 85.7887 14.0738 85.7254C14.121 85.6622 14.1465 85.5854 14.1465 85.5065C14.1465 85.4276 14.121 85.3508 14.0738 85.2876C14.0266 85.2243 13.9602 85.178 13.8846 85.1554C12.2664 85.0757 10.6598 84.8406 9.08677 84.4533C7.92551 84.209 5.45021 83.7206 4.74734 82.4384C4.77803 82.3599 4.77803 82.2727 4.74734 82.1942C4.39922 80.8602 4.26511 79.4794 4.35006 78.1035C4.35006 76.6381 4.13612 75.0507 4.04444 73.6769C3.78151 71.0469 3.3011 68.4431 2.60815 65.8923C1.11521 59.7797 1.15723 53.3933 2.73041 47.3008H2.60815Z" fill="#333333"/>
<path d="M3.92213 50.9032C3.28378 52.6199 2.99549 54.4468 3.07421 56.2765C3.15293 58.1062 3.59706 59.9017 4.3805 61.5574C5.36082 62.9973 6.67054 64.1832 8.20108 65.0167C9.73163 65.8502 11.439 66.3073 13.1816 66.3503C15.112 66.5489 17.0576 66.5489 18.9879 66.3503C19.5069 66.3817 20.0274 66.3817 20.5465 66.3503C20.5465 66.3503 20.5465 66.3503 20.7298 66.3503H21.1577C22.7196 66.0978 24.2543 65.6992 25.7416 65.1597C26.4413 64.9062 27.1164 64.5895 27.7585 64.2133C27.8383 64.2371 27.9232 64.2371 28.003 64.2133C29.1783 63.5041 30.1874 62.5511 30.9624 61.4188C31.7374 60.2865 32.2601 59.0012 32.4952 57.6498C32.8856 55.8795 32.8598 54.0429 32.4197 52.2843C31.9796 50.5257 31.1372 48.893 29.9588 47.5146C29.6138 47.1841 29.2462 46.8781 28.8586 46.5987C28.8586 46.385 28.8586 46.1103 28.5225 46.1103H28.1863C25.4061 44.5554 22.3394 43.5792 19.1713 43.2406C15.7458 42.5538 12.187 43.1864 9.2089 45.0113C6.06128 45.0113 4.77779 48.3693 3.92213 50.9032ZM11.837 48.0946C11.8856 48.5067 11.999 48.9085 12.1732 49.2852C12.3948 50.4964 12.2677 51.7456 11.8065 52.8875C11.1647 54.4444 9.91179 53.1012 9.51451 52.1243C9.14299 50.9691 9.0902 49.7352 9.36171 48.5525C9.36171 48.2167 9.02554 47.942 8.78107 48.2167C7.83373 49.1631 7.74205 51.0253 6.15295 51.2695C3.7082 51.4527 6.64193 47.2703 7.0392 46.6903C7.31437 46.4141 7.63476 46.187 7.98654 46.0187C8.20046 47.5451 10.2479 48.1251 11.837 48.0946ZM14.893 43.4849C14.9628 44.289 14.7756 45.0945 14.3583 45.7857C13.941 46.4768 13.3151 47.018 12.5705 47.3314C11.4398 47.6672 9.30058 47.3314 8.87274 45.9882L9.5756 45.4997C9.67629 45.5086 9.77664 45.4788 9.85612 45.4165C9.93561 45.3541 9.98827 45.2638 10.0034 45.1639C11.4322 44.2252 13.0686 43.6489 14.7707 43.4849H14.893ZM17.7044 43.9123C18.6247 43.9491 19.4975 44.3305 20.1492 44.9807C21.3716 46.1103 20.3937 47.5451 19.2019 48.0335C18.3799 48.2311 17.5146 48.1338 16.7571 47.7588C16.3982 47.4375 16.0093 47.1512 15.5958 46.904C15.2597 46.6903 14.9235 47.1788 15.168 47.4535C15.4901 47.8044 15.8732 48.094 16.2987 48.3083C16.5639 48.5664 16.7996 48.8531 17.0016 49.1631C17.7961 50.3842 16.207 51.1779 15.168 50.9337C14.6836 50.8226 14.2309 50.6026 13.8443 50.2905C13.4578 49.9784 13.1475 49.5824 12.9372 49.1325C12.8722 48.8063 12.7697 48.4888 12.6315 48.1862C14.7096 47.8198 15.5347 45.4692 15.6875 43.5764C16.2881 43.5459 16.8899 43.5459 17.4905 43.5764C17.4767 43.6356 17.4779 43.6973 17.4939 43.7559C17.5099 43.8145 17.5402 43.8683 17.5822 43.9123H17.7044ZM27.789 46.5377C27.5925 46.7151 27.4353 46.9318 27.3278 47.1737C27.2202 47.4156 27.1647 47.6773 27.1647 47.9419C27.1647 48.2066 27.2202 48.4683 27.3278 48.7102C27.4353 48.9521 27.5925 49.1688 27.789 49.3462C28.1145 49.7194 28.5379 49.9943 29.0114 50.14C28.9603 50.154 28.9136 50.181 28.8761 50.2185C28.8386 50.256 28.8115 50.3026 28.7975 50.3537C27.8502 53.0401 25.1304 50.5673 26.9334 48.6136C27.239 48.2472 26.9334 47.8504 26.4139 48.0946C24.6414 49.4989 23.8775 45.8355 26.2305 46.2629C26.2862 46.2726 26.3434 46.2693 26.3976 46.2533C26.4518 46.2372 26.5015 46.2089 26.543 46.1705C26.5844 46.132 26.6163 46.0846 26.6364 46.0318C26.6564 45.979 26.6639 45.9222 26.6584 45.866C26.8723 46.0797 27.2695 46.324 27.789 46.5377ZM30.6922 49.2546C30.2336 49.5233 29.6875 49.6003 29.1724 49.4688C28.6574 49.3373 28.2151 49.008 27.9419 48.5525C27.8075 48.3657 27.7353 48.1414 27.7353 47.9114C27.7353 47.6814 27.8075 47.4572 27.9419 47.2703C27.9419 47.2703 28.2474 47.0566 28.4002 46.9345C29.2709 47.5559 30.0085 48.3447 30.57 49.2546H30.6922ZM31.7923 52.3074C31.12 53.1927 29.4087 50.9337 29.3476 50.3537C29.3755 50.2746 29.3755 50.1884 29.3476 50.1094C29.9593 50.195 30.5822 50.077 31.12 49.7736C31.4314 50.617 31.6167 51.5017 31.6701 52.399L31.7923 52.3074ZM25.2221 61.2216C25.2527 60.9171 25.2527 60.6103 25.2221 60.3058C25.2257 59.5866 25.4059 58.8793 25.7469 58.246C26.0879 57.6126 26.5793 57.0725 27.1779 56.6729C29.1031 55.4518 30.0505 57.5582 30.0505 59.0541C30.0346 59.6405 29.8926 60.2165 29.6342 60.7433C29.3759 61.27 29.0071 61.735 28.553 62.1069C28.514 62.1413 28.4828 62.1836 28.4614 62.2309C28.44 62.2783 28.4289 62.3297 28.4289 62.3817C28.4289 62.4336 28.44 62.485 28.4614 62.5324C28.4828 62.5798 28.514 62.622 28.553 62.6564L28.0641 62.9922C27.7927 62.4499 27.3659 62.0007 26.838 61.7016C26.3101 61.4026 25.7049 61.2674 25.0998 61.3132L25.2221 61.2216ZM24.4275 61.9848C24.4571 62.0355 24.4995 62.0775 24.5505 62.1067C24.6014 62.1359 24.6591 62.1513 24.7178 62.1513C24.7765 62.1513 24.8343 62.1359 24.8852 62.1067C24.9361 62.0775 24.9785 62.0355 25.0081 61.9848C25.5194 61.9038 26.0427 62.0108 26.481 62.2859C26.9193 62.5609 27.2429 62.9854 27.3918 63.4807C26.8435 63.8079 26.2715 64.0937 25.6804 64.3355C24.6962 64.7384 23.6718 65.0351 22.6245 65.2208C22.5459 65.1901 22.4586 65.1901 22.38 65.2208C22.2894 64.8877 22.2678 64.5397 22.3166 64.198C22.3654 63.8563 22.4835 63.5282 22.6638 63.2338C22.8441 62.9394 23.0827 62.6848 23.3649 62.4858C23.6472 62.2868 23.9672 62.1474 24.3053 62.0764L24.4275 61.9848ZM21.83 62.9617C20.8893 61.1936 20.5974 59.1524 21.0048 57.1919C22.0439 55.9708 22.8079 55.8182 23.2663 56.8256C23.4637 57.1589 23.6373 57.5057 23.7858 57.8635C24.1566 58.9749 24.3324 60.142 24.3053 61.3132C23.7733 61.4137 23.2668 61.6195 22.8154 61.9183C22.3641 62.2171 21.9771 62.603 21.6772 63.0533L21.83 62.9617ZM17.0627 62.5954C16.9249 62.4096 16.832 62.1945 16.7914 61.9669C16.7508 61.7393 16.7636 61.5053 16.8288 61.2835C16.8939 61.0616 17.0096 60.8579 17.1669 60.6883C17.3241 60.5186 17.5186 60.3877 17.735 60.3058C18.1363 60.3154 18.5318 60.404 18.8988 60.5663C19.2658 60.7287 19.5973 60.9618 19.8742 61.2521C20.53 61.9824 21.057 62.8185 21.4327 63.7249C21.2756 64.2736 21.2756 64.8552 21.4327 65.4039H20.7298C19.2472 64.8512 17.9391 63.9133 16.9404 62.6869L17.0627 62.5954ZM13.365 65.6482C13.5483 64.5797 15.1374 64.7323 15.9931 64.7934C16.9842 64.8508 17.943 65.1665 18.774 65.7092C17.7044 65.7092 16.6654 65.7092 15.7181 65.7092C14.8918 65.7344 14.0649 65.7039 13.2428 65.6176L13.365 65.6482ZM8.78107 64.4576C8.78107 64.2744 8.78107 64.0912 8.78107 63.9081C9.15067 63.9839 9.49988 64.1374 9.80548 64.3585C10.1111 64.5796 10.3661 64.8631 10.5535 65.1902C9.90318 64.9851 9.26973 64.7299 8.65885 64.427L8.78107 64.4576ZM9.33116 60.8858H9.91175C10.2001 60.7945 10.5097 60.7945 10.798 60.8858C11.8676 61.1911 12.876 62.4122 11.2258 63.4807C10.4924 63.7249 9.82009 63.4807 9.11722 63.2364C9.27657 62.4529 9.30753 61.6487 9.2089 60.8553L9.33116 60.8858ZM8.68939 58.9015C8.30134 58.4375 7.80927 58.0714 7.2531 57.833L7.86428 57.1919C9.39225 56.3677 10.4924 56.9782 10.6452 57.9246C10.6895 58.2139 10.6626 58.5097 10.5668 58.7863C10.4709 59.0629 10.3091 59.312 10.0951 59.512C9.78813 59.6832 9.5011 59.888 9.23944 60.1226C9.0974 59.6289 8.8699 59.164 8.56718 58.7488L8.68939 58.9015ZM4.34996 59.4815C4.93059 59.4815 5.57231 59.2067 6.09182 59.4815C6.61133 59.7563 6.7336 60.2752 6.8864 60.611C7.0392 60.9468 7.80319 62.9617 6.70305 62.9922C6.529 62.9803 6.36558 62.9041 6.24463 62.7785C5.28682 61.8693 4.59036 60.7202 4.22769 59.451L4.34996 59.4815ZM4.10548 58.2299C5.13506 57.9805 6.22012 58.1106 7.16142 58.5962C9.27002 59.6952 8.62827 62.3206 8.10876 64.1218C7.80251 63.9566 7.50658 63.7731 7.22255 63.5723C8.20046 63.1449 8.01708 61.7406 7.68093 60.7637C7.47778 60.1695 7.17842 59.6126 6.79472 59.1152C6.09186 58.2909 5.02224 58.8404 4.13602 58.7794C4.06787 58.591 4.01677 58.3968 3.98326 58.1993L4.10548 58.2299ZM6.51965 57.5582C6.14639 57.4258 5.75442 57.3537 5.35843 57.3446C5.11395 57.3446 4.56385 57.5277 4.22769 57.5277C4.22769 57.0698 4.22769 56.6119 4.22769 56.1234C5.90846 55.2686 6.70305 55.5739 6.61137 56.9782C6.39746 57.1308 6.39744 57.314 6.39744 57.5277L6.51965 57.5582ZM4.0138 54.0781C4.12898 53.0422 4.34387 52.0199 4.65553 51.0253C4.74673 51.2691 4.91947 51.474 5.14449 51.6053C5.48723 51.8066 5.87763 51.9128 6.27522 51.9128C6.67281 51.9128 7.06316 51.8066 7.4059 51.6053C7.99683 51.2325 8.4314 50.6572 8.62826 49.9873C8.5612 50.9393 8.72911 51.8933 9.11722 52.7654C9.48394 53.5286 10.3702 54.8413 11.4092 54.4139C12.0481 53.996 12.5506 53.4004 12.8547 52.7006C13.1588 52.0008 13.2512 51.2274 13.1205 50.4758C13.6081 50.9433 14.2025 51.2849 14.8522 51.4711C15.5019 51.6573 16.1872 51.6824 16.8488 51.5442C17.7044 51.3611 17.9184 50.5368 17.9184 49.8041C17.9145 49.4036 17.798 49.0122 17.5822 48.6746C18.177 48.8163 18.7988 48.7978 19.384 48.6208C19.9693 48.4438 20.497 48.1147 20.9132 47.6672C22.38 45.9271 20.7298 44.2786 19.0185 43.607C21.3668 43.9243 23.6539 44.5932 25.8027 45.5913C23.144 45.5913 23.6941 49.4073 25.6499 49.1936C25.4129 49.6632 25.3473 50.2006 25.4645 50.7133C25.5816 51.226 25.8741 51.6818 26.2916 52.0022C26.4943 52.1715 26.7336 52.2917 26.9906 52.3532C27.2475 52.4147 27.5153 52.4159 27.7728 52.3568C28.0304 52.2976 28.2707 52.1797 28.475 52.0123C28.6793 51.8448 28.842 51.6324 28.9503 51.3916C29.5615 52.4906 30.9367 53.7423 32.0063 53.2843C32.0534 54.1079 32.0534 54.9335 32.0063 55.7571C32.0115 57.6166 31.4345 59.4312 30.356 60.9468C30.6916 60.1955 30.8094 59.3651 30.6959 58.5502C30.5825 57.7353 30.2424 56.9685 29.7143 56.3371C29.2129 55.9715 28.5991 55.7928 27.9796 55.8318C27.36 55.8708 26.7737 56.1252 26.3222 56.5508C25.6752 57.0853 25.18 57.7801 24.8859 58.5657L24.7026 59.2068C24.3358 57.0698 23.5719 54.7802 21.6466 55.6045C19.7214 56.4287 19.7825 58.6572 20.3325 60.9163C19.9646 60.5362 19.5154 60.244 19.0185 60.0615C18.224 59.7563 16.8488 59.512 16.3598 60.4889C15.5041 62.168 16.3598 63.5417 17.8572 64.6102C15.7792 63.8165 13.0288 63.5112 12.6621 65.6176L11.562 65.4039C11.6042 65.3464 11.6269 65.2768 11.6269 65.2055C11.6269 65.1341 11.6042 65.0646 11.562 65.0071C11.4772 64.6979 11.354 64.4004 11.1953 64.1218C11.4381 64.1616 11.6858 64.1616 11.9287 64.1218C12.253 64.0034 12.5357 63.7931 12.742 63.5165C12.9483 63.2399 13.0692 62.9091 13.09 62.5648C13.1107 62.2153 13.0559 61.8653 12.9294 61.5387C12.8028 61.2122 12.6075 60.9166 12.3565 60.6721C12.1363 60.4522 11.8636 60.292 11.5642 60.2065C11.2648 60.1211 10.9485 60.1132 10.6452 60.1837C10.9787 59.9615 11.2602 59.6699 11.4703 59.3289C11.5978 58.9476 11.6339 58.5418 11.5755 58.144C11.5171 57.7463 11.3659 57.3679 11.1342 57.0393C10.1563 55.3297 8.44493 56.0929 7.31423 57.0393C7.31423 55.8182 6.7336 54.3223 5.26675 54.4444C5.04298 54.444 4.82153 54.4898 4.6164 54.5792C4.41128 54.6685 4.22693 54.7993 4.07493 54.9634C3.99171 54.6629 3.93039 54.3568 3.89154 54.0475L4.0138 54.0781Z" fill="#333333"/>
<path d="M9.66645 41.1953C7.61266 42.3578 5.86372 43.9898 4.56299 45.9577C4.56299 42.7217 7.98567 39.1805 9.94148 36.7993C12.5412 33.5366 14.7848 30.0058 16.634 26.2672H16.8784C17.0618 26.2672 16.8784 25.8398 17.3674 26.0535C17.9703 28.09 18.135 30.2309 17.8506 32.3355C17.5662 34.4401 16.8391 36.4608 15.7172 38.2646C14.0976 40.0658 11.6223 40.0963 9.66645 41.1953Z" fill="#FFF3DA"/>
<path d="M5.2364 66.0448C7.68112 70.4408 6.55047 75.2031 6.61159 80.1792C6.12264 78.1033 6.15316 75.9358 5.75589 73.7989C5.35863 71.6619 3.64734 67.3269 4.53355 65.1289L5.2364 66.0448Z" fill="#FFF3DA"/>
<path d="M10.86 7.33953C10.844 7.20889 10.8607 7.07632 10.9088 6.95375C10.9568 6.83119 11.0345 6.72247 11.1351 6.63739L10.585 6.91214C14.0687 4.22569 20.6084 1.50871 24.9784 2.4856C22.4205 2.80865 19.9268 3.51892 17.5831 4.59202C15.5661 5.32469 12.8769 7.40059 10.86 7.33953Z" fill="#DFA191"/>
</svg>
