<svg width="209" height="267" viewBox="0 0 209 267" fill="none" xmlns="http://www.w3.org/2000/svg">
<path d="M206.539 85.5403C206.66 85.2724 206.756 84.9912 206.825 84.7004C207.083 83.8284 205.783 82.9107 205.266 83.7847C204.174 85.5266 203.14 87.2166 202.077 88.8746C181.119 103.164 153.941 97.4997 128.775 101.35C119.215 102.667 110.611 107.01 104.15 113.78C111.123 99.9617 116.037 85.0159 118.748 69.3766C118.976 68.2407 117.389 67.8729 116.785 68.5349C104.737 81.3522 96.7854 97.6676 93.8021 115.691C91.7536 121.583 90.3006 127.723 89.4638 134.026C89.3944 134.064 89.3355 134.117 89.2912 134.182C89.2345 134.284 89.205 134.4 89.2053 134.521C89.2056 134.643 89.2357 134.765 89.2929 134.878L89.1525 136.458C84.6605 146.187 79.3702 155.458 73.3312 164.182C70.6832 165.753 68.2588 167.651 66.107 169.838C66.0261 169.903 65.9616 169.985 65.9175 170.081C65.8733 170.176 65.8507 170.282 65.8509 170.391C65.8512 170.501 65.8744 170.611 65.919 170.716C65.9636 170.82 66.0286 170.916 66.1098 170.998C62.283 174.456 58.8032 178.356 55.3523 182.23C60.5687 169.205 67.1389 155.537 71.8912 141.362C81.7353 122.178 89.5899 103.107 82.2632 78.6903C73.9775 51.3038 53.9454 31.684 43.0104 5.81969C42.5464 4.72785 40.7594 5.12203 41.1083 6.25988C48.2 28.913 65.8289 44.5434 75.3112 66.0243C83.4381 82.7268 85.2472 101.277 80.3694 117.891C78.8569 122.7 76.9791 127.349 74.7514 131.802C78.9708 117.643 78.8425 102.1 74.3824 87.0905C72.9665 82.8599 71.2303 78.7148 69.1902 74.6942C68.7815 66.4511 66.2678 58.2301 61.8936 50.8313C61.431 50.3194 60.653 50.5575 60.9717 51.1994C63.1433 55.5268 64.838 60.0412 66.0224 64.6535C66.5088 66.6322 66.8796 68.6263 67.1328 70.6248C55.1395 48.2743 37.7314 28.6083 41.0696 2.22626C41.0802 2.12953 41.0688 2.0293 41.0361 1.93301C41.0035 1.83672 40.9505 1.74682 40.8811 1.67C40.8117 1.59318 40.7276 1.5314 40.6351 1.48923C40.5426 1.44707 40.444 1.4256 40.3467 1.42642C40.4894 0.832455 39.4503 0.434617 39.3653 1.03457C32.5319 24.9952 38.5597 48.9003 47.501 73.195C58.2424 102.431 67.215 127.744 63.1625 156.806C59.6682 166.531 55.7412 176.183 52.4199 185.926L48.1357 191.018C53.5367 172.498 51.4317 151.823 42.2556 133.268C42.1585 133.08 42.0067 132.921 41.8227 132.817C41.6387 132.713 41.4325 132.669 41.2348 132.691C41.037 132.712 40.8584 132.799 40.7254 132.938C40.5925 133.078 40.5124 133.261 40.4971 133.462C37.9774 152.595 42.6107 172.239 40.35 191.137L38.0643 199.829C38.0643 199.893 38.0771 199.959 38.1019 200.021C38.1266 200.084 38.1629 200.142 38.2085 200.192C38.2542 200.243 38.3084 200.285 38.368 200.316C38.4276 200.347 38.4914 200.366 38.5559 200.373C38.3271 201.161 38.156 201.955 37.8696 202.736C37.8384 202.849 37.8473 202.973 37.8947 203.089C37.9421 203.204 38.0253 203.304 38.1307 203.372C35.4858 206.692 32.8987 210.076 30.3406 213.492C30.2301 213.62 30.1047 213.733 29.9665 213.83C29.859 213.888 29.7796 213.984 29.7428 214.103C29.7061 214.221 29.7144 214.354 29.7663 214.476C17.8872 230.096 8.0276 247.277 0.391297 265.665C0.356696 265.791 0.368062 265.929 0.423421 266.057C0.478779 266.184 0.574664 266.293 0.694509 266.364C0.814354 266.435 0.950638 266.463 1.07982 266.445C1.20901 266.427 1.32298 266.362 1.40207 266.263C12.777 248.079 23.4023 229.934 35.2691 212.41C41.673 209.279 48.3235 206.609 55.1759 204.418C55.2049 204.547 55.2722 204.667 55.3685 204.762C55.4648 204.857 55.5851 204.922 55.7126 204.948C55.84 204.974 55.9681 204.96 56.0789 204.907C56.1896 204.854 56.2775 204.766 56.33 204.654C56.4715 204.416 56.5962 204.168 56.7031 203.91C71.8587 199.688 86.6221 194.443 100.901 188.208C110.036 187.62 118.446 184.09 124.926 178.122C125.53 177.576 124.634 176.468 124.001 177.098C118.633 181.593 112.133 184.597 105.047 185.856C115.125 180.645 123.279 172.553 128.608 162.473C134.991 159.465 140.737 155.372 145.621 150.354C142.843 158.386 140.268 166.525 136.971 174.329C129.574 192.056 114.919 201.231 96.297 204.167C77.6754 207.103 56.0987 204.398 39.7168 215.191C39.0838 215.763 39.8077 216.969 40.5854 216.615C62.8229 206.517 88.5846 210.671 111.664 203.067C136.473 194.831 142.058 167.291 150.106 145.08C150.968 143.836 151.802 142.56 152.548 141.188C153.037 140.746 152.775 139.588 151.967 139.33L151.245 139.052C150.962 138.936 150.656 138.931 150.393 139.039C150.13 139.147 149.929 139.359 149.834 139.63C149.432 140.516 149.117 141.44 148.802 142.364C148.138 142.092 147.506 142.896 146.732 144.874C144.857 147.257 142.737 149.425 140.404 151.349C135.618 155.293 130.286 158.549 124.538 161.036C114.745 165.7 103.967 168.697 93.7395 172.534C78.1242 178.392 64.2452 186.749 56.5244 201.63C49.8841 203.984 43.4296 206.75 37.195 209.914C41.7353 203.37 46.6504 196.836 51.8544 190.506C58.8859 182.134 66.5674 174.358 74.8382 167.237C87.6254 160.506 101.574 156.911 114.91 150.614C128.246 144.317 135.051 132.413 146.163 124.522C150.717 123.778 155.156 122.905 159.681 121.723C178.01 117.133 197.165 108.425 204.85 90.7281C205.933 89.5917 206.923 88.367 207.811 87.064C207.902 86.9897 207.976 86.8964 208.027 86.7894C208.079 86.6825 208.108 86.564 208.114 86.4407C208.119 86.3173 208.099 86.1917 208.057 86.0708C208.014 85.9499 207.949 85.8362 207.866 85.7362C207.782 85.6361 207.682 85.5517 207.57 85.4877C207.458 85.4237 207.337 85.3814 207.214 85.3632C207.09 85.3451 206.967 85.3513 206.852 85.3817C206.736 85.4121 206.63 85.466 206.539 85.5403ZM38.2551 18.7191C40.951 36.2192 54.2301 53.746 62.6587 68.8556C66.6869 75.8208 69.6637 83.2721 71.4793 90.9345C67.1961 84.6916 61.4157 79.3948 58.3128 72.3178C58.0517 71.6819 57.1298 72.0499 57.3909 72.6859C60.9056 80.8412 65.9343 88.3718 72.1809 94.834C74.5864 111.016 73.223 127.143 68.2013 141.906C70.0934 102.01 38.3847 59.8694 38.2551 18.7191ZM125.267 164.097C112.736 177.792 96.8811 187.979 78.9695 193.844C72.0256 196.225 65.0524 198.458 58.2242 200.966C72.1238 177.479 101.646 174.689 125.267 164.097ZM41.69 137.79C41.83 136.094 45.0273 146.399 45.5817 149.036C45.9311 150.406 46.1364 151.79 46.3704 153.148C46.6044 154.506 46.1181 156.108 46.0352 157.578L45.5922 153.328C45.475 152.562 44.293 152.7 44.4102 153.466C45.2803 162.34 44.7765 171.15 42.917 179.576C43.1141 165.855 40.5998 151.853 41.69 137.79ZM39.1938 201.83C40.29 198.87 41.1313 195.796 41.709 192.641L42.3668 190.419C41.8264 193.465 41.2282 196.505 40.5147 199.532C40.5368 199.603 40.5745 199.668 40.6247 199.724C40.675 199.779 40.7364 199.823 40.8039 199.852L39.1938 201.83ZM47.3224 165.075C47.3558 166.963 47.3893 168.85 47.3366 170.874C47.337 177.834 46.304 184.644 44.2717 191.081C46.1752 182.633 47.1974 173.92 47.3224 165.075V165.075ZM145.965 102.614C157.803 102.755 169.574 102.265 181.229 101.146C171.333 105.977 160.534 109.019 149.271 110.147C134.655 111.731 120.287 109.021 106.659 113.78C117.336 105.178 131.433 103.134 146.08 102.51L145.965 102.614ZM95.3361 117.967C97.2809 111.385 99.2838 104.984 101.632 98.3281C101.665 98.2559 101.68 98.1757 101.679 98.0931C101.677 98.0105 101.657 97.9274 101.622 97.8494C101.586 97.7714 101.535 97.7004 101.471 97.6412C101.408 97.582 101.334 97.5359 101.255 97.5062C104.698 89.4572 109.03 81.8987 114.177 74.9607C118.632 68.9007 114.958 76.2305 114.359 78.6903C112.568 85.3565 110.398 91.8769 107.861 98.2213C106.17 102.655 104.162 106.911 102.038 111.097C104.385 103.745 106.269 96.1137 108.299 88.7001C108.527 87.9122 107.315 87.3224 107.057 88.1363C103.339 100.39 99.475 112.425 94.8325 124.293L94.516 124.579C94.7703 122.431 94.9955 120.193 95.3361 117.967ZM92.1471 134.624C98.7337 127.626 108.68 126.485 118.541 126.233C104.902 138.21 90.5391 149.213 76.9574 161.195C82.816 152.878 87.898 143.988 92.1471 134.624V134.624ZM137.295 130.327C129.73 139.175 120.314 146.202 109.605 150.99C101.079 154.975 91.6538 156.924 82.953 160.195C96.2292 149.632 108.869 138.307 120.82 126.267C123.992 126.249 127.193 126.32 130.105 126.188C134.512 126.036 138.881 125.639 143.194 124.997C140.992 126.498 139.011 128.288 137.295 130.327V130.327ZM176.268 112.546C164.416 117.467 151.812 120.729 138.775 122.247C124.795 124.535 105.984 120.668 94.4712 129.85L95.5337 128.018C97.1715 125.608 98.7515 123.134 100.245 120.564C101.42 118.979 102.707 117.485 104.098 116.094C121.988 108.705 143.021 113.412 162.219 110.072C172.804 108.123 182.736 104.173 191.518 98.417C193.216 97.8694 194.862 97.1976 196.444 96.4066C191.115 103.317 184.293 108.868 176.413 112.706L176.268 112.546Z" fill="#CFC6AF"/>
</svg>
