<svg width="28" height="63" viewBox="0 0 28 63" fill="none" xmlns="http://www.w3.org/2000/svg">
<path d="M3.11118 55.7456C3.05492 55.6424 2.97002 55.5576 2.8667 55.5013L13.807 29.2168C14.0391 29.6982 14.4111 30.0985 14.8746 30.3654C15.338 30.6323 15.8712 30.7533 16.4045 30.7127L5.52536 56.6919C5.44585 56.6906 5.36845 56.7175 5.3069 56.7678C5.24535 56.8181 5.20365 56.8886 5.18921 56.9667C4.97529 57.852 3.29454 56.1119 3.11118 55.7456Z" fill="#898989"/>
<path d="M1.03174 59.8974L2.49857 56.3867C3.10454 57.2353 3.99269 57.8412 5.00446 58.0963L3.90432 60.7522C3.89174 60.8229 3.89174 60.8952 3.90432 60.9659C3.64 61.3689 3.28396 61.7036 2.86531 61.9428C1.94854 62.3396 1.18456 60.9354 1.154 60.1722C1.15424 60.1203 1.14346 60.0691 1.12239 60.0217C1.10132 59.9743 1.07041 59.932 1.03174 59.8974Z" fill="#BDBCBA"/>
<path d="M22.5157 9.95356C22.4173 9.90329 22.325 9.84182 22.2407 9.7704C22.2407 9.7704 22.2407 9.7704 22.2407 9.7704C22.271 9.68131 22.271 9.58473 22.2407 9.49565C23.0978 7.96102 24.0363 6.47322 25.0522 5.03857C25.0686 5.09204 25.0961 5.14144 25.133 5.18353C25.1698 5.22561 25.2152 5.25944 25.2661 5.2828L25.8467 5.74071C25.5825 7.35559 25.1943 8.94775 24.6855 10.5031C24.2688 10.4586 23.8586 10.3664 23.4631 10.2283C23.1384 10.1706 22.8209 10.0785 22.5157 9.95356Z" fill="#F0E5D4"/>
<path d="M15.335 25.5838L15.7628 24.6069C16.132 24.957 16.5695 25.2272 17.048 25.4005C17.5266 25.5739 18.0357 25.6467 18.5437 25.6144V25.9807C18.4642 25.9794 18.3868 26.0062 18.3252 26.0566C18.2637 26.1069 18.222 26.1773 18.2075 26.2554C17.7491 27.5376 15.8545 26.4081 15.335 25.5838Z" fill="#BDBCBA"/>
<path d="M14.6934 27.2322L14.999 26.4385C15.3323 26.83 15.7503 27.1406 16.2215 27.3469C16.6928 27.5531 17.2048 27.6496 17.7188 27.6291V27.8733C17.6172 27.8315 17.5034 27.8304 17.401 27.8702C17.2986 27.91 17.2154 27.9876 17.1687 28.087C16.0991 28.3007 14.6934 28.3923 14.6934 27.2322Z" fill="#BDBCBA"/>
<path d="M14.6923 28.789C14.6526 28.7057 14.5851 28.6388 14.5015 28.5998C14.4178 28.5608 14.3232 28.5521 14.2339 28.5753V28.3311C14.4034 28.5352 14.6127 28.7028 14.8491 28.8235C15.0856 28.9442 15.3441 29.0155 15.6091 29.0332C16.1349 29.1232 16.6723 29.1232 17.1982 29.0332L16.8926 29.7659H16.7092C15.8841 30.2543 14.8756 29.4911 14.6923 28.789Z" fill="#BDBCBA"/>
<path d="M16.4351 24.0271C16.5879 23.6912 16.4351 23.4776 16.2212 23.4165L21.6303 10.4727C22.5019 10.9914 23.4892 11.2851 24.5029 11.3274L18.9105 24.7292H18.6965C18.4756 24.8286 18.236 24.88 17.9937 24.88C17.7513 24.88 17.5118 24.8286 17.2908 24.7292L16.4351 24.0271Z" fill="#898989"/>
<path d="M0.421215 60.8436C0.510425 61.3403 0.747819 61.7985 1.10229 62.1581C1.45676 62.5176 1.91174 62.7617 2.40756 62.8584C3.50769 62.8584 4.2717 61.7289 4.91345 61.0573C4.94674 61.0259 4.97328 60.988 4.99141 60.946C5.00954 60.9041 5.01888 60.8588 5.01888 60.8131C5.01888 60.7673 5.00954 60.7221 4.99141 60.6801C4.97328 60.6381 4.94674 60.6002 4.91345 60.5688L25.3271 11.7242C25.3595 11.6576 25.3764 11.5845 25.3764 11.5105C25.3764 11.4364 25.3595 11.3633 25.3271 11.2968C26.1926 8.56849 26.8164 5.7695 27.1912 2.93211C27.2288 2.81288 27.2288 2.68501 27.1912 2.56578L27.3746 1.19202C27.3732 1.09913 27.3416 1.00921 27.2844 0.935891C27.2273 0.862573 27.1479 0.809847 27.0581 0.785693C26.9682 0.76154 26.873 0.767273 26.7868 0.802032C26.7005 0.836791 26.6279 0.898683 26.58 0.978327C25.0521 4.03112 22.7907 6.56494 21.2322 9.52614V9.70931L14.6313 25.5533L0.115602 60.4162C0.111656 60.5113 0.139566 60.6049 0.194919 60.6823C0.250273 60.7597 0.329926 60.8165 0.421215 60.8436ZM24.5937 10.503C24.1771 10.4585 23.7669 10.3663 23.3713 10.2283C23.0779 10.1645 22.7913 10.0725 22.5156 9.95353C22.4172 9.90326 22.3249 9.84179 22.2406 9.77037C22.2709 9.68128 22.2709 9.5847 22.2406 9.49562C23.0977 7.96099 24.0362 6.47318 25.0521 5.03854C25.0685 5.09201 25.096 5.1414 25.1329 5.18349C25.1698 5.22558 25.2151 5.25941 25.266 5.28276L25.8466 5.74068C25.5525 7.35804 25.1337 8.95024 24.5937 10.503ZM18.6957 24.6985C18.4748 24.798 18.2352 24.8494 17.9929 24.8494C17.7505 24.8494 17.511 24.798 17.29 24.6985L16.4344 24.1185C16.5871 23.7827 16.4343 23.569 16.2204 23.5079L21.6294 10.5641C22.5011 11.0828 23.4883 11.3766 24.502 11.4189L18.9097 24.8206L18.6957 24.6985ZM15.3342 25.5533L15.762 24.5764C16.1312 24.9265 16.5687 25.1967 17.0473 25.37C17.5258 25.5434 18.0349 25.6162 18.5429 25.5838V25.9502C18.4634 25.9489 18.386 25.9757 18.3244 26.026C18.2629 26.0763 18.2212 26.1468 18.2068 26.2249C17.7484 27.5376 15.8537 26.4081 15.3342 25.5838V25.5533ZM17.0455 28.0871C16.0982 28.3008 14.7536 28.3924 14.6619 27.2323L14.9675 26.4386C15.3008 26.8301 15.7188 27.1407 16.19 27.347C16.6612 27.5533 17.1732 27.6498 17.6873 27.6292V27.8734C17.633 27.8371 17.5712 27.8137 17.5065 27.805C17.4418 27.7963 17.3759 27.8025 17.3139 27.8231C17.252 27.8437 17.1956 27.8783 17.1491 27.924C17.1026 27.9698 17.0671 28.0256 17.0455 28.0871ZM14.5396 28.7893C14.5 28.706 14.4326 28.6391 14.3489 28.6001C14.2653 28.5611 14.1706 28.5524 14.0813 28.5756V28.3313C14.2508 28.5355 14.4601 28.703 14.6965 28.8238C14.933 28.9445 15.1915 29.0158 15.4564 29.0335C15.9823 29.1235 16.5197 29.1235 17.0455 29.0335L16.7399 29.7662H16.5566C15.8843 30.2546 14.8758 29.4914 14.6924 28.7893H14.5396ZM3.11046 55.7454C3.05419 55.6422 2.9693 55.5574 2.86598 55.5012L13.8062 29.2167C14.0383 29.6981 14.4104 30.0984 14.8738 30.3653C15.3372 30.6321 15.8704 30.7532 16.4038 30.7125L5.52463 56.6918C5.44512 56.6905 5.36771 56.7174 5.30617 56.7677C5.24462 56.818 5.20292 56.8884 5.18847 56.9665C4.97456 57.8519 3.29381 56.1118 3.11046 55.7454ZM1.12407 60.172C1.15975 60.0839 1.15975 59.9854 1.12407 59.8972L2.59091 56.3865C3.19688 57.2351 4.08503 57.8411 5.0968 58.0961L3.99666 60.752C3.98408 60.8227 3.98408 60.895 3.99666 60.9657C3.73233 61.3687 3.3763 61.7034 2.95765 61.9426C1.91863 62.2174 1.15463 60.9352 1.12407 60.172Z" fill="#333333"/>
</svg>
