<svg width="19" height="19" viewBox="0 0 19 19" fill="none" xmlns="http://www.w3.org/2000/svg">
<path fill-rule="evenodd" clip-rule="evenodd" d="M1.02338 9.5258C1.33255 9.21666 1.8338 9.21666 2.14297 9.5258L6.99588 14.3787C7.30505 14.6879 7.30505 15.1892 6.99588 15.4983C6.68671 15.8074 6.18546 15.8074 5.87629 15.4983L1.02338 10.6454C0.714213 10.3362 0.714213 9.83495 1.02338 9.5258Z" fill="url(#paint0_linear)"/>
<path fill-rule="evenodd" clip-rule="evenodd" d="M17.9769 3.39838C18.286 3.70754 18.286 4.2088 17.9769 4.51797L6.99648 15.4984C6.68732 15.8075 6.18606 15.8075 5.8769 15.4984C5.56773 15.1892 5.56773 14.6879 5.8769 14.3788L16.8573 3.39838C17.1665 3.08921 17.6677 3.08921 17.9769 3.39838Z" fill="url(#paint1_linear)"/>
<mask id="mask0" mask-type="alpha" maskUnits="userSpaceOnUse" x="0" y="0" width="1" height="1">
<path d="M0.791667 0H0V0.791667H0.791667V0Z" fill="white"/>
</mask>
<g mask="url(#mask0)">
</g>
<defs>
<linearGradient id="paint0_linear" x1="1.63406" y1="10.1409" x2="6.32601" y2="14.8456" gradientUnits="userSpaceOnUse">
<stop stop-color="#C5A28C"/>
<stop offset="1" stop-color="#FF7A7A"/>
</linearGradient>
<linearGradient id="paint1_linear" x1="7.28971" y1="4.81986" x2="16.4486" y2="14.0035" gradientUnits="userSpaceOnUse">
<stop stop-color="#C5A28C"/>
<stop offset="1" stop-color="#FF7A7A"/>
</linearGradient>
</defs>
</svg>
