<svg width="25" height="24" viewBox="0 0 25 24" fill="none" xmlns="http://www.w3.org/2000/svg">
<rect x="0.145325" width="23.9316" height="24" fill="#415167"/>
<path d="M4.45054 4.66388H17.8221C17.8623 4.66388 17.8991 4.67932 17.9368 4.69091L18.2655 3.58959C18.37 3.23936 18.6868 3 19.0458 3H20.6775C20.9028 3 21.0855 3.18625 21.0855 3.41598V4.2479C21.0855 4.47763 20.9028 4.66388 20.6775 4.66388H19.6501L17.1014 13.2046L18.0533 14.337C18.4295 14.7846 18.5989 15.4013 18.4258 15.9637C18.2043 16.683 17.5817 17.1429 16.864 17.1429H5.17636C4.95107 17.1429 4.76842 16.9566 4.76842 16.7269V15.895C4.76842 15.6652 4.95107 15.479 5.17636 15.479H16.864L15.5709 13.9406C15.5384 13.9019 15.5145 13.8583 15.4898 13.8151H7.58487C6.95259 13.8151 6.37723 13.4428 6.108 12.8594L3.26142 6.69125C3.17977 6.51374 3.13674 6.31673 3.13674 6.12131V6.0035C3.13674 5.26369 3.72496 4.66388 4.45054 4.66388Z" fill="#F9FBFF"/>
<path d="M16.2778 21.0001C15.3927 21.0001 14.6752 20.2805 14.6752 19.3929C14.6752 18.5053 15.3927 17.7858 16.2778 17.7858C17.1628 17.7858 17.8803 18.5053 17.8803 19.3929C17.8803 20.2805 17.1628 21.0001 16.2778 21.0001Z" fill="white"/>
<path d="M6.66242 21.0001C5.77735 21.0001 5.05986 20.2805 5.05986 19.3929C5.05986 18.5053 5.77735 17.7858 6.66242 17.7858C7.54749 17.7858 8.26499 18.5053 8.26499 19.3929C8.26499 20.2805 7.54749 21.0001 6.66242 21.0001Z" fill="white"/>
</svg>
