<svg width="22" height="31" viewBox="0 0 22 31" fill="none" xmlns="http://www.w3.org/2000/svg">
<path d="M10.9999 30.9236C13.6733 30.9236 16.2372 29.7908 18.1276 27.7744C20.0179 25.758 21.0799 23.0232 21.0799 20.1716V10.9556C21.0799 8.104 20.0179 5.36919 18.1276 3.3528C16.2372 1.33641 13.6733 0.203613 10.9999 0.203613C8.32654 0.203613 5.76265 1.33641 3.87229 3.3528C1.98192 5.36919 0.919922 8.104 0.919922 10.9556V20.1716C0.919922 23.0232 1.98192 25.758 3.87229 27.7744C5.76265 29.7908 8.32654 30.9236 10.9999 30.9236ZM2.35992 10.9556C2.35992 8.51138 3.27021 6.16725 4.89052 4.43892C6.51083 2.71058 8.70845 1.73961 10.9999 1.73961C13.2914 1.73961 15.489 2.71058 17.1093 4.43892C18.7296 6.16725 19.6399 8.51138 19.6399 10.9556V20.1716C19.6399 22.6158 18.7296 24.96 17.1093 26.6883C15.489 28.4166 13.2914 29.3876 10.9999 29.3876C8.70845 29.3876 6.51083 28.4166 4.89052 26.6883C3.27021 24.96 2.35992 22.6158 2.35992 20.1716V10.9556Z" fill="white"/>
<path d="M10.2801 15.1795H10.3449L10.4889 15.3408C10.5559 15.4128 10.6355 15.4699 10.7232 15.5089C10.811 15.5479 10.9051 15.568 11.0001 15.568C11.0952 15.568 11.1893 15.5479 11.277 15.5089C11.3648 15.4699 11.4444 15.4128 11.5113 15.3408L11.6553 15.1795H11.7201V15.1104L15.8313 10.7328L14.8089 9.64224L11.7201 12.9446V4.81152H10.2801V12.9446L7.19134 9.64224L6.16895 10.7328L10.2801 15.1104V15.1795Z" fill="white"/>
</svg>
