<svg width="140" height="47" viewBox="0 0 140 47" fill="none" xmlns="http://www.w3.org/2000/svg">
<g clip-path="url(#clip0)">
<path d="M35.6593 10.8486H47.0157L46.324 14.4013H39.1346L38.2452 18.9642H44.9899L44.2981 22.4921H37.5699L36.104 30.3261H31.9863L35.6675 10.8403" fill="#E42927"/>
<path d="M46.0518 30.3179L48.7282 16.1569H52.8459L50.1694 30.3179H46.0518ZM49.3047 12.3972C49.3376 10.9812 50.4247 10.0288 51.6929 10.0288C52.9035 10.0288 53.76 10.8404 53.76 12.0826C53.76 13.5566 52.64 14.4179 51.3141 14.4179C50.1612 14.4179 49.3047 13.6312 49.3047 12.389" fill="#E42927"/>
<path d="M53.6943 30.318L55.2755 21.9042C55.679 19.7676 55.852 17.3909 56.0002 16.1819H59.5908C59.5002 17.1342 59.4179 18.0865 59.3355 19.072H59.4261C60.4061 17.1922 61.979 15.8589 63.9143 15.8589C64.1696 15.8589 64.4332 15.8589 64.6885 15.892L63.8814 19.9415C63.6755 19.9084 63.4532 19.9084 63.2143 19.9084C60.5708 19.9084 59.3355 22.2769 58.8167 25.0511L57.8367 30.3097H53.719" fill="#E42927"/>
<path d="M76.0945 29.4814C74.4556 30.3096 72.4133 30.5828 70.8568 30.5828C66.8298 30.5828 64.7627 28.2972 64.7627 24.6286C64.7627 20.3224 67.8674 15.8174 72.9568 15.8174C75.8062 15.8174 77.8403 17.4074 77.8403 20.0408C77.8403 23.6514 74.365 24.9599 68.6992 24.8108C68.6992 25.2166 68.8474 25.846 69.1274 26.2518C69.6709 26.9722 70.618 27.3532 71.8286 27.3532C73.3521 27.3532 74.645 27.0054 75.765 26.4588L76.0533 29.4649L76.0945 29.4814ZM72.4215 18.8566C70.4945 18.8566 69.3992 20.4466 69.1274 21.7799C72.3474 21.813 73.9533 21.3493 73.9533 20.0739C73.9533 19.3535 73.3768 18.8566 72.4297 18.8566" fill="#E42927"/>
<path d="M82.5172 11.1215C84.156 10.8317 85.9925 10.6909 87.8619 10.6909C90.8843 10.6909 93.2972 11.3865 94.936 12.7944C96.4843 14.0945 97.4643 16.0323 97.489 18.8976C97.489 22.6573 95.9078 25.9201 93.4866 27.858C91.2466 29.655 88.3972 30.4251 84.1972 30.4251C81.8666 30.4251 79.8572 30.2512 78.9102 30.0773L82.5007 11.1133L82.5172 11.1215ZM83.6537 26.9305C84.1396 27.0215 84.749 27.0464 85.4654 27.0464C87.7054 27.0464 89.6902 26.2348 90.9584 24.7608C92.2843 23.2536 92.9678 21.233 92.9678 18.8894C92.9678 15.8253 91.2713 14.0034 87.8454 14.0034C87.1207 14.0034 86.5196 14.0365 86.0913 14.1194L83.6454 26.9222" fill="#374FA3"/>
<path d="M98.4111 30.3175L99.9923 21.9037C100.396 19.7671 100.569 17.3904 100.717 16.1814H104.308C104.217 17.1337 104.135 18.0861 104.052 19.0715H104.143C105.115 17.1917 106.696 15.8584 108.631 15.8584C108.886 15.8584 109.15 15.8584 109.405 15.8915L108.598 19.9411C108.392 19.9079 108.17 19.9079 107.931 19.9079C105.288 19.9079 104.044 22.2764 103.533 25.0506L102.562 30.3092H98.4441" fill="#374FA3"/>
<path d="M123.859 21.6141C123.859 26.7651 120.35 30.5744 115.467 30.5744C111.901 30.5744 109.513 28.2308 109.513 24.6947C109.513 19.7757 112.906 15.7593 117.904 15.7593C121.668 15.7593 123.859 18.3347 123.859 21.5562V21.6141ZM113.795 24.5954C113.795 26.2433 114.602 27.3447 116.035 27.3447C118.308 27.3447 119.568 24.0322 119.568 21.5893C119.568 20.2891 119.024 18.8979 117.353 18.8979C114.964 18.8979 113.762 22.4008 113.787 24.6202" fill="#374FA3"/>
<path d="M124.353 36.4373L126.642 21.647C126.955 19.9908 127.301 17.6306 127.465 16.1814H131.188L130.916 18.2351H130.974C132.127 16.7031 133.79 15.8667 135.487 15.8667C138.534 15.8667 140 18.3262 140 21.2164C140 26.1355 136.755 30.6405 131.863 30.6405C130.71 30.6405 129.738 30.3506 129.269 30.0608L129.294 29.8123L128.47 36.4373H124.353ZM129.837 26.798C130.298 27.2286 130.933 27.4936 131.74 27.4936C133.955 27.4936 135.676 24.3136 135.676 21.5394C135.676 20.4131 135.215 19.2289 133.864 19.2289C132.316 19.2289 130.875 20.9928 130.356 23.767L129.837 26.798Z" fill="#374FA3"/>
<path d="M31.2939 33.9531H126.823V36.4375H31.2939V33.9531Z" fill="#374FA3"/>
<path d="M15.9605 -5.85951e-05C15.9605 -5.85951e-05 15.0463 6.14463 18.2499 11.5109C21.4616 16.8771 23.8993 18.4174 27.2593 24.8437C30.6193 31.2699 26.6499 38.6568 22.071 40.1971C22.071 40.1971 27.4157 34.8226 22.9852 26.9968C18.5628 19.171 15.491 16.0738 14.4369 10.7242C13.3828 5.37447 15.0463 3.35385 15.9605 -0.0249023" fill="#374FA3"/>
<path d="M16.8667 26.5828C16.8667 26.5828 16.6114 23.055 14.3961 18.8481C12.4278 15.1546 9.72666 10.3018 12.3208 2.46777C12.3208 2.46777 6.97607 7.51934 10.2455 14.9725C11.3408 17.4568 12.642 19.2621 13.8114 21.2082C15.5161 24.0653 16.9161 26.5828 16.9161 26.5828" fill="#374FA3"/>
<path d="M9.19072 38.4246C9.19072 38.4246 16.3143 39.3439 19.0401 36.5779C21.766 33.812 22.2025 30.3421 20.0531 25.1084C20.0531 25.1084 24.3272 29.6134 23.619 34.6236C22.9107 39.6751 18.3237 44.3457 9.16602 38.4081" fill="#E42927"/>
<path d="M8.35093 24.1814C8.35093 24.1814 5.75681 26.7155 5.88034 30.8064C5.9874 34.9057 7.02505 38.6571 9.84975 40.4789C13.2015 42.6404 19.8556 43.5513 19.8556 43.5513L7.9474 44.396L1.7627 32.2639L2.77564 25.8129L6.23446 22.0283L8.3674 24.1732" fill="#1680C2"/>
<path d="M12.3451 36.3381C12.3451 36.3381 15.2933 33.0587 15.0957 29.7877C14.8898 26.5083 12.7569 24.4628 10.7227 21.5064C8.68863 18.5334 7.77451 18.1277 7.5604 15.7758C7.35451 13.4239 6.85216 12.6041 6.23451 13.9373C5.6251 15.2706 4.20039 18.2353 3.17922 20.1731C2.16628 22.1109 -0.279606 26.3178 0.0250996 32.8683C0.329806 39.4187 3.89569 42.9962 7.14863 44.9506C10.4016 46.8967 17.9369 46.8967 21.3957 44.8512C24.8545 42.8058 27.811 40.0398 28.9228 35.7419C28.9228 35.7419 25.0522 42.0853 19.0733 42.8058C13.0698 43.5262 9.6851 42.193 7.26392 39.22C4.84275 36.247 4.51334 31.2369 5.02392 28.1645C5.53451 25.0922 6.85216 24.7858 6.85216 24.7858C6.85216 24.7858 9.39687 27.0383 10.7227 28.2639C12.0486 29.4895 12.4522 29.5972 12.551 31.5433C12.658 33.4894 11.9416 36.3547 12.3451 36.3547" fill="#E42927"/>
</g>
<defs>
<clipPath id="clip0">
<rect width="140" height="46.375" fill="white"/>
</clipPath>
</defs>
</svg>
