<svg width="1338" height="446" viewBox="0 0 1338 446" fill="none" xmlns="http://www.w3.org/2000/svg">
<g clip-path="url(#clip0)">
<path d="M1338 446L1338 8.17684C1337.58 4.53688 1336.82 -3.52463 1336.82 -3.39064C1336.82 -4.86449 1323.42 -7.47725 1323.42 0.561937C1323.42 5.02815 1310.51 6.1447 1310.51 11.0575C1310.51 7.77487 1293.43 9.24873 1293.43 11.1692C1293.43 11.6605 1280.04 19.9677 1280.04 20.3696C1280.04 18.1365 1264.07 27.4932 1264.07 23.2726C1264.07 19.0521 1247.17 23.3843 1247.17 23.8979C1247.17 26.5107 1234.51 32.6964 1234.51 35.0635C1234.51 36.0907 1218.72 36.8053 1218.72 38.4355C1218.72 34.8848 1205.53 49.802 1205.53 48.2165C1205.53 47.5019 1188.56 46.9883 1188.56 48.4175C1188.56 44.6212 1173.98 52.1021 1173.98 53.7099C1173.98 61.2802 1159.76 62.3521 1159.76 64.8755C1159.76 67.3989 1141.89 55.4964 1141.89 57.8188C1141.89 53.8662 1124.03 55.5858 1124.03 58.6451C1124.03 57.4616 1107.11 67.8455 1107.11 64.7861C1107.11 66.7066 1091.32 64.3395 1091.32 66.6396C1091.32 69.6766 1079.91 76.644 1079.91 76.2867C1079.91 76.9789 1068.75 84.3705 1068.75 85.7997C1068.75 89.663 1052.83 86.9609 1052.83 86.09C1052.83 84.4375 1037.78 87.6755 1037.78 87.3629C1037.78 86.4473 1022.55 96.5633 1022.55 97.2555C1022.55 95.4914 1006.72 92.4767 1006.72 90.5562C1006.72 93.7942 991.203 97.3895 991.203 93.6826C991.203 97.0769 975.573 96.3623 975.573 91.4495C975.573 91.4495 959.944 88.7921 959.944 91.7621C954.629 93.7978 949.484 96.2546 944.56 99.109C944.56 98.8187 928.93 96.8759 928.93 100.895C928.93 102.012 914.462 97.4788 914.462 98.6624C914.462 98.2381 901.378 89.1494 901.378 92.2757C901.378 90.6456 888.472 85.1075 888.472 83.3433C888.472 85.9337 878.514 72.0214 878.514 70.9049C878.514 71.3738 865.608 67.1086 865.608 61.9724C865.608 61.3695 850.336 61.3695 850.336 59.0248C850.336 57.5732 833.412 57.3053 833.412 56.7917C833.412 56.278 821.064 68.5601 821.064 69.498C821.064 64.8532 807.846 79.949 807.846 78.8771C807.846 75.5274 792.217 80.6636 792.217 84.6385C792.217 86.2017 778.664 86.224 778.664 90.4893C778.664 90.7796 766.673 101.655 766.673 100.159C766.673 95.6924 751.959 99.5557 751.959 103.129C751.959 105.362 736.732 99.1314 736.732 102.749C736.732 98.7964 722.955 107.573 722.955 108.332C722.955 111.346 707.795 102.838 707.795 105.138C707.795 108.979 694.085 115.813 694.085 114.071C694.085 113.758 679.505 117.733 679.505 116.46C679.505 118.448 664.702 116.661 664.702 113.401C664.702 118.783 650.01 106.277 650.01 107.461C650.01 111.503 635.631 120.458 635.631 117.331C635.631 117.577 621.118 113.111 621.118 115.098C621.118 122.043 606.27 117.845 606.27 116.326C606.27 113.959 593.721 102.928 593.721 104.803C593.721 99.109 581.687 96.273 581.687 97.7692C581.687 96.7196 567.687 93.1467 567.687 94.3079C567.687 93.0797 553.933 95.6254 553.933 89.2164C553.933 85.3754 538.482 91.8291 538.482 87.1396C534.752 82.8604 531.249 78.388 527.988 73.741C527.988 75.9741 513.296 66.3717 513.296 68.3369C513.296 71.6419 498.605 62.8434 498.605 63.0444C498.605 61.5928 482.372 65.6794 482.372 63.9823C482.372 66.2154 467.055 63.223 467.055 63.0667C467.055 64.1609 452.274 61.0793 452.274 58.2209C452.274 57.0373 437.024 52.4148 437.024 52.0352C437.024 53.308 421.395 54.0896 421.395 54.9829C421.395 54.9829 406.323 65.0542 406.323 59.7171C406.323 66.1261 391.632 62.8657 391.632 64.1833C391.632 63.357 374.26 57.484 374.26 58.2209C374.26 60.1637 360.172 66.6843 360.172 65.5901C360.172 69.6767 347.824 78.5422 347.824 77.4033C347.824 76.7333 333.088 80.5743 333.088 82.8074C333.088 85.4871 316.141 82.0481 316.141 80.284C316.141 81.6015 301.248 85.2191 301.248 85.3755C301.248 87.6086 285.619 82.2714 285.619 82.7181C285.619 83.6336 270.972 80.351 270.972 78.0286C270.972 75.2595 255.342 74.9915 255.342 77.6936C255.342 77.2469 240.583 69.4981 240.583 72.9371C240.583 71.9098 223.636 79.7927 223.636 76.0187C223.636 71.8428 209.882 67.7339 209.882 67.7116C209.882 68.0466 194.766 63.424 194.766 59.3598C194.766 57.5063 178.668 71.1283 178.668 66.729C178.668 63.7143 164.11 75.0809 164.11 74.6119C164.11 72.3788 145.913 71.0613 145.913 68.4932C145.913 64.027 132.092 82.6511 132.092 78.5645C132.092 77.8052 115.123 76.912 115.123 76.3314C115.123 74.6342 101.927 80.2393 101.927 80.7976C101.927 79.8374 88.1952 78.9441 88.1952 79.8597C88.1952 78.3635 73.6597 84.3259 73.6597 83.321C73.6597 83.8793 58.1865 85.9338 58.1865 82.6511C58.1865 82.3385 48.7417 73.7187 48.7417 69.8777C48.7417 63.1784 34.4519 67.2426 34.4519 63.1784C34.4519 65.2775 19.403 65.8581 19.4029 57.9753C19.4029 58.5112 10.8513 40.6017 10.8513 42.3435C10.8513 45.8272 4.4879 42.8348 -1.04032e-05 40.6463L2.5034e-05 446L1338 446Z" fill="white"/>
</g>
<defs>
<clipPath id="clip0">
<rect width="1338" height="446" fill="white"/>
</clipPath>
</defs>
</svg>
