<svg width="1338" height="203" viewBox="0 0 1338 203" fill="none" xmlns="http://www.w3.org/2000/svg">
<path d="M1338 202.5L1338 12.7093C1337.58 9.19847 1336.82 1.42297 1336.82 1.5522C1336.82 0.130636 1323.42 -2.38944 1323.42 5.36455C1323.42 9.67232 1310.51 10.7493 1310.51 15.4878C1310.51 12.3216 1293.43 13.7432 1293.43 15.5955C1293.43 16.0694 1280.04 24.0819 1280.04 24.4696C1280.04 22.3157 1264.07 31.3404 1264.07 27.2696C1264.07 23.1987 1247.17 27.3773 1247.17 27.8727C1247.17 30.3927 1234.51 36.359 1234.51 38.6421C1234.51 39.6329 1218.72 40.3222 1218.72 41.8945C1218.72 38.4698 1205.53 52.8577 1205.53 51.3285C1205.53 50.6392 1188.56 50.1439 1188.56 51.5224C1188.56 47.8608 1173.98 55.0762 1173.98 56.627C1173.98 63.9287 1159.76 64.9626 1159.76 67.3965C1159.76 69.8304 1141.89 58.3501 1141.89 60.5902C1141.89 56.7778 1124.03 58.4363 1124.03 61.3871C1124.03 60.2456 1107.11 70.2611 1107.11 67.3103C1107.11 69.1626 1091.32 66.8795 1091.32 69.098C1091.32 72.0273 1079.91 78.7475 1079.91 78.4029C1079.91 79.0706 1068.75 86.1999 1068.75 87.5784C1068.75 91.3046 1052.83 88.6985 1052.83 87.8584C1052.83 86.2646 1037.78 89.3877 1037.78 89.0861C1037.78 88.203 1022.55 97.9601 1022.55 98.6279C1022.55 96.9263 1006.72 94.0186 1006.72 92.1662C1006.72 95.2893 991.203 98.7571 991.203 95.1816C991.203 98.4555 975.573 97.7663 975.573 93.0278C975.573 93.0278 959.944 90.4646 959.944 93.3293C954.629 95.2928 949.484 97.6625 944.56 100.416C944.56 100.136 928.93 98.2617 928.93 102.139C928.93 103.216 914.462 98.8432 914.462 99.9848C914.462 99.5756 901.378 90.8093 901.378 93.8247C901.378 92.2524 888.472 86.9107 888.472 85.2092C888.472 87.7077 878.514 74.2889 878.514 73.212C878.514 73.6643 865.608 69.5504 865.608 64.5965C865.608 64.0149 850.336 64.0149 850.336 61.7534C850.336 60.3533 833.412 60.0948 833.412 59.5995C833.412 59.1041 821.064 70.9504 821.064 71.855C821.064 67.375 807.846 81.9353 807.846 80.9014C807.846 77.6706 792.217 82.6245 792.217 86.4584C792.217 87.9661 778.664 87.9877 778.664 92.1016C778.664 92.3816 766.673 102.871 766.673 101.428C766.673 97.1202 751.959 100.846 751.959 104.293C751.959 106.446 736.732 100.437 736.732 103.926C736.732 100.114 722.955 108.579 722.955 109.311C722.955 112.219 707.795 104.013 707.795 106.231C707.795 109.936 694.085 116.527 694.085 114.847C694.085 114.545 679.505 118.379 679.505 117.151C679.505 119.068 664.702 117.345 664.702 114.2C664.702 119.391 650.01 107.33 650.01 108.471C650.01 112.37 635.631 121.007 635.631 117.991C635.631 118.228 621.118 113.92 621.118 115.837C621.118 122.536 606.27 118.487 606.27 117.022C606.27 114.739 593.721 104.099 593.721 105.908C593.721 100.416 581.687 97.6802 581.687 99.1233C581.687 98.111 567.687 94.6647 567.687 95.7848C567.687 94.6001 553.933 97.0555 553.933 90.8739C553.933 87.1692 538.482 93.394 538.482 88.8708C534.752 84.7434 531.249 80.4297 527.988 75.9475C527.988 78.1014 513.296 68.8397 513.296 70.7351C513.296 73.9228 498.605 65.4365 498.605 65.6303C498.605 64.2303 482.372 68.1719 482.372 66.535C482.372 68.6889 467.055 65.8027 467.055 65.6519C467.055 66.7073 452.274 63.7349 452.274 60.978C452.274 59.8364 437.024 55.3779 437.024 55.0117C437.024 56.2394 421.395 56.9933 421.395 57.8549C421.395 57.8549 406.323 67.5689 406.323 62.4211C406.323 68.6027 391.632 65.4581 391.632 66.7289C391.632 65.9319 374.26 60.2672 374.26 60.978C374.26 62.8519 360.172 69.1412 360.172 68.0858C360.172 72.0274 347.824 80.5784 347.824 79.4799C347.824 78.8337 333.088 82.5384 333.088 84.6923C333.088 87.2769 316.141 83.96 316.141 82.2584C316.141 83.5292 301.248 87.0185 301.248 87.1692C301.248 89.3231 285.619 84.1753 285.619 84.6061C285.619 85.4892 270.972 82.323 270.972 80.083C270.972 77.4122 255.342 77.1537 255.342 79.7599C255.342 79.3291 240.583 71.8551 240.583 75.1721C240.583 74.1813 223.636 81.7845 223.636 78.1445C223.636 74.1167 209.882 70.1535 209.882 70.132C209.882 70.4551 194.766 65.9965 194.766 62.0765C194.766 60.2887 178.668 73.4274 178.668 69.1843C178.668 66.2765 164.11 77.2399 164.11 76.7875C164.11 74.6337 145.913 73.3628 145.913 70.8859C145.913 66.5781 132.092 84.5415 132.092 80.5999C132.092 79.8676 115.123 79.006 115.123 78.446C115.123 76.8091 101.927 82.2153 101.927 82.7538C101.927 81.8276 88.1953 80.9661 88.1953 81.8492C88.1953 80.4061 73.6598 86.1569 73.6598 85.1877C73.6598 85.7262 58.1865 87.7077 58.1865 84.5415C58.1865 84.24 48.7417 75.9259 48.7417 72.2213C48.7417 65.7596 34.452 69.6797 34.452 65.7596C34.452 67.7843 19.4029 68.3443 19.4029 60.7411C19.4029 61.258 10.8513 43.9839 10.8513 45.6639C10.8513 49.0239 4.4879 46.1377 -1.38542e-05 44.0269L0 202.5L1338 202.5Z" fill="white"/>
</svg>
