<svg width="1921" height="202" viewBox="0 0 1921 202" fill="none" xmlns="http://www.w3.org/2000/svg">
<path d="M1921 202L1921 12.6779C1920.39 9.17576 1919.3 1.41945 1919.3 1.54837C1919.3 0.130312 1900.07 -2.38354 1900.07 5.35131C1900.07 9.64844 1881.54 10.7227 1881.54 15.4496C1881.54 12.2912 1857.01 13.7092 1857.01 15.557C1857.01 16.0297 1837.78 24.0224 1837.78 24.4092C1837.78 22.2606 1814.86 31.2631 1814.86 27.2023C1814.86 23.1415 1790.59 27.3097 1790.59 27.8039C1790.59 30.3177 1772.42 36.2692 1772.42 38.5467C1772.42 39.535 1749.75 40.2226 1749.75 41.7911C1749.75 38.3749 1730.81 52.7273 1730.81 51.2018C1730.81 50.5142 1706.44 50.0201 1706.44 51.3952C1706.44 47.7426 1685.51 54.9403 1685.51 56.4873C1685.51 63.7709 1665.09 64.8022 1665.09 67.2301C1665.09 69.658 1639.45 58.2061 1639.45 60.4406C1639.45 56.6377 1613.8 58.2921 1613.8 61.2356C1613.8 60.0969 1589.5 70.0877 1589.5 67.1442C1589.5 68.9919 1566.84 66.7144 1566.84 68.9275C1566.84 71.8495 1550.46 78.5531 1550.46 78.2093C1550.46 78.8754 1534.43 85.9871 1534.43 87.3622C1534.43 91.0793 1511.57 88.4795 1511.57 87.6416C1511.57 86.0516 1489.97 89.167 1489.97 88.8662C1489.97 87.9853 1468.1 97.7183 1468.1 98.3844C1468.1 96.687 1445.37 93.7865 1445.37 91.9387C1445.37 95.0541 1423.09 98.5133 1423.09 94.9467C1423.09 98.2125 1400.66 97.525 1400.66 92.7981C1400.66 92.7981 1378.22 90.2413 1378.22 93.0989C1370.58 95.0576 1363.2 97.4214 1356.13 100.168C1356.13 99.8884 1333.69 98.0192 1333.69 101.887C1333.69 102.961 1312.92 98.5993 1312.92 99.738C1312.92 99.3298 1294.13 90.5851 1294.13 93.5931C1294.13 92.0247 1275.6 86.6962 1275.6 84.9988C1275.6 87.4912 1261.3 74.1056 1261.3 73.0313C1261.3 73.4825 1242.78 69.3787 1242.78 64.437C1242.78 63.8569 1220.85 63.8569 1220.85 61.6009C1220.85 60.2044 1196.55 59.9465 1196.55 59.4524C1196.55 58.9582 1178.82 70.7753 1178.82 71.6777C1178.82 67.2087 1159.84 81.733 1159.84 80.7017C1159.84 77.4789 1137.41 82.4205 1137.41 86.245C1137.41 87.749 1117.95 87.7705 1117.95 91.8743C1117.95 92.1536 1100.73 102.617 1100.73 101.178C1100.73 96.8805 1079.61 100.597 1079.61 104.035C1079.61 106.184 1057.74 100.189 1057.74 103.67C1057.74 99.8669 1037.97 108.311 1037.97 109.041C1037.97 111.942 1016.2 103.756 1016.2 105.969C1016.2 109.664 996.516 116.239 996.516 114.563C996.516 114.262 975.583 118.087 975.583 116.862C975.583 118.774 954.329 117.056 954.329 113.919C954.329 119.097 933.236 107.065 933.236 108.203C933.236 112.092 912.591 120.708 912.591 117.7C912.591 117.936 891.754 113.639 891.754 115.551C891.754 122.234 870.437 118.194 870.437 116.733C870.437 114.456 852.421 103.842 852.421 105.647C852.421 100.168 835.142 97.4391 835.142 98.8786C835.142 97.8688 815.043 94.4311 815.043 95.5483C815.043 94.3666 795.296 96.816 795.296 90.6496C795.296 86.9541 773.112 93.1635 773.112 88.6515C767.757 84.5343 762.727 80.2312 758.046 75.7601C758.046 77.9086 736.952 68.6698 736.952 70.5605C736.952 73.7404 715.859 65.275 715.859 65.4684C715.859 64.0718 692.554 68.0037 692.554 66.3708C692.554 68.5193 670.563 65.6403 670.563 65.4899C670.563 66.5427 649.341 63.5776 649.341 60.8275C649.341 59.6887 627.447 55.2412 627.447 54.8759C627.447 56.1006 605.007 56.8527 605.007 57.7121C605.007 57.7121 583.369 67.4021 583.369 62.267C583.369 68.4334 562.275 65.2965 562.275 66.5642C562.275 65.7692 537.335 60.1185 537.335 60.8275C537.335 62.6967 517.107 68.9705 517.107 67.9177C517.107 71.8496 499.38 80.3795 499.38 79.2837C499.38 78.6391 478.222 82.3347 478.222 84.4832C478.222 87.0615 453.891 83.7527 453.891 82.0554C453.891 83.323 432.509 86.8037 432.509 86.9541C432.509 89.1027 410.07 83.9676 410.07 84.3973C410.07 85.2782 389.041 82.1198 389.041 79.8853C389.041 77.2211 366.601 76.9633 366.601 79.563C366.601 79.1333 345.411 71.6778 345.411 74.9866C345.411 73.9983 321.08 81.5827 321.08 77.9516C321.08 73.9338 301.333 69.9804 301.333 69.9589C301.333 70.2812 279.631 65.8337 279.631 61.9233C279.631 60.14 256.518 73.2462 256.518 69.0136C256.518 66.113 235.617 77.0492 235.617 76.598C235.617 74.4495 209.491 73.1818 209.491 70.7109C209.491 66.4138 189.648 84.3329 189.648 80.401C189.648 79.6705 165.284 78.811 165.284 78.2524C165.284 76.6195 146.339 82.0124 146.339 82.5496C146.339 81.6257 126.624 80.7662 126.624 81.6472C126.624 80.2076 105.755 85.9443 105.755 84.9774C105.755 85.5146 83.5398 87.4913 83.5398 84.3329C83.5398 84.0321 69.9796 75.7386 69.9796 72.043C69.9796 65.5973 49.4636 69.5077 49.4636 65.5973C49.4636 67.617 27.8573 68.1757 27.8573 60.5912C27.8573 61.1069 15.5795 43.8753 15.5795 45.5512C15.5795 48.903 6.44338 46.0239 -2.86019e-05 43.9183L-1.4782e-05 202L1921 202Z" fill="white"/>
</svg>
