<svg width="77" height="74" viewBox="0 0 77 74" fill="none" xmlns="http://www.w3.org/2000/svg">
<path d="M38.5 28.2489C36.6869 28.2496 34.9148 28.7633 33.4076 29.7253C31.9004 30.6873 30.7259 32.0543 30.0325 33.6534C29.3391 35.2525 29.1581 37.0119 29.5122 38.7093C29.8663 40.4066 30.7398 41.9656 32.022 43.1891C33.3043 44.4127 34.9379 45.2458 36.7161 45.5832C38.4944 45.9206 40.3376 45.7471 42.0126 45.0846C43.6876 44.4222 45.1192 43.3005 46.1264 41.8615C47.1337 40.4225 47.6712 38.7307 47.6712 37C47.6694 34.679 46.7025 32.4537 44.9828 30.8128C43.2632 29.1719 40.9315 28.2498 38.5 28.2489V28.2489ZM59.9345 21.5223C59.4678 20.3933 58.763 19.3679 57.8639 18.5097C56.9648 17.6514 55.8906 16.9787 54.7078 16.5332C51.0984 15.1731 42.5047 15.4783 38.5 15.4783C34.4953 15.4783 25.9102 15.1616 22.2905 16.5332C21.1077 16.9787 20.0334 17.6514 19.1343 18.5097C18.2352 19.3679 17.5305 20.3933 17.0637 21.5223C15.6406 24.9677 15.9586 33.179 15.9586 36.9984C15.9586 40.8177 15.6406 49.0192 17.0706 52.476C17.5373 53.605 18.2421 54.6305 19.1412 55.4887C20.0403 56.3469 21.1146 57.0197 22.2973 57.4652C25.9067 58.8252 34.5005 58.5201 38.5069 58.5201C42.5133 58.5201 51.095 58.8367 54.7147 57.4652C55.8975 57.0197 56.9717 56.3469 57.8708 55.4887C58.7699 54.6305 59.4747 53.605 59.9414 52.476C61.3766 49.0307 61.0466 40.8194 61.0466 37C61.0466 33.1806 61.3766 24.9808 59.9414 21.524L59.9345 21.5223ZM38.5 50.4531C35.7125 50.4531 32.9876 49.6641 30.6699 48.1859C28.3522 46.7076 26.5458 44.6065 25.4791 42.1483C24.4123 39.6901 24.1332 36.9851 24.6771 34.3754C25.2209 31.7658 26.5632 29.3687 28.5342 27.4872C30.5053 25.6058 33.0165 24.3245 35.7504 23.8054C38.4844 23.2863 41.3181 23.5527 43.8934 24.5709C46.4687 25.5892 48.6699 27.3135 50.2185 29.5258C51.7672 31.7382 52.5938 34.3392 52.5938 37C52.596 38.7673 52.233 40.5177 51.5255 42.1508C50.8181 43.784 49.78 45.2679 48.4708 46.5176C47.1617 47.7673 45.6071 48.7581 43.8961 49.4335C42.1852 50.1088 40.3515 50.4553 38.5 50.4531V50.4531ZM53.1747 26.1227C52.524 26.123 51.8878 25.9391 51.3466 25.5942C50.8054 25.2494 50.3834 24.7591 50.1342 24.1853C49.8849 23.6116 49.8195 22.9801 49.9463 22.3709C50.073 21.7617 50.3862 21.202 50.8462 20.7627C51.3062 20.3233 51.8924 20.0241 52.5306 19.9028C53.1687 19.7815 53.8303 19.8436 54.4315 20.0812C55.0327 20.3188 55.5466 20.7213 55.9081 21.2378C56.2697 21.7542 56.4627 22.3614 56.4627 22.9825C56.4645 23.395 56.3809 23.8037 56.2169 24.1853C56.0528 24.5669 55.8115 24.9138 55.5066 25.2062C55.2018 25.4985 54.8395 25.7306 54.4405 25.889C54.0415 26.0474 53.6137 26.129 53.1816 26.1292L53.1747 26.1227ZM68.75 0.25H8.25C6.06196 0.25 3.96354 1.07969 2.41637 2.55653C0.869194 4.03338 0 6.03642 0 8.125L0 65.875C0 67.9636 0.869194 69.9666 2.41637 71.4435C3.96354 72.9203 6.06196 73.75 8.25 73.75H68.75C70.938 73.75 73.0365 72.9203 74.5836 71.4435C76.1308 69.9666 77 67.9636 77 65.875V8.125C77 6.03642 76.1308 4.03338 74.5836 2.55653C73.0365 1.07969 70.938 0.25 68.75 0.25V0.25ZM65.8075 47.8281C65.5858 52.033 64.5803 55.7589 61.3645 58.8203C58.1488 61.8817 54.2489 62.8612 49.8489 63.0613C45.3097 63.3058 31.7006 63.3058 27.1614 63.0613C22.7562 62.8497 18.8667 61.8883 15.6458 58.8203C12.4248 55.7523 11.4125 52.0248 11.2028 47.8281C10.9467 43.4936 10.9467 30.5015 11.2028 26.1719C11.4245 21.967 12.418 18.2411 15.6458 15.1797C18.8736 12.1183 22.7734 11.1503 27.1614 10.9502C31.7006 10.7057 45.3097 10.7057 49.8489 10.9502C54.2541 11.1618 58.1556 12.1232 61.3645 15.1912C64.5734 18.2591 65.5978 21.9866 65.8075 26.1916C66.0636 30.5097 66.0636 43.4903 65.8075 47.8281Z" fill="#C74C4D"/>
</svg>
