<svg width="82" height="77" viewBox="0 0 82 77" fill="none" xmlns="http://www.w3.org/2000/svg">
<path d="M41 0.234375C18.3508 0.234375 0 17.3613 0 38.5C0 59.6387 18.3508 76.7656 41 76.7656C63.6492 76.7656 82 59.6387 82 38.5C82 17.3613 63.6492 0.234375 41 0.234375ZM61.1363 26.4494L54.4077 56.0436C53.9117 58.142 52.5726 58.6512 50.7044 57.6637L40.4544 50.6123L35.5113 55.0561C34.9657 55.5652 34.5028 55.9973 33.4448 55.9973L34.1722 46.2611L53.1677 30.2451C53.9944 29.5662 52.9859 29.1805 51.8948 29.8594L28.419 43.6535L18.3012 40.7064C16.1024 40.0584 16.0528 38.6543 18.7641 37.6668L58.2927 23.4406C60.1278 22.8234 61.7315 23.8572 61.1363 26.4494V26.4494Z" fill="#3089F1"/>
</svg>
