<svg width="90" height="53" viewBox="0 0 90 53" fill="none" xmlns="http://www.w3.org/2000/svg">
<path d="M74.6813 30.3123C73.2263 28.4952 73.6425 27.6868 74.6813 26.0625C74.7 26.044 86.7113 9.63089 87.9488 4.06467L87.9563 4.06096C88.5713 2.0325 87.9563 0.541748 84.9825 0.541748H75.1425C72.6375 0.541748 71.4825 1.82112 70.8638 3.25254C70.8638 3.25254 65.8538 15.1118 58.7663 22.7992C56.4788 25.0205 55.4213 25.7325 54.1725 25.7325C53.5575 25.7325 52.6013 25.0205 52.6013 22.992V4.06096C52.6013 1.62829 51.9 0.541748 49.8263 0.541748H34.3538C32.7825 0.541748 31.8488 1.6765 31.8488 2.73338C31.8488 5.03996 35.3925 5.57026 35.76 12.0598V26.1404C35.76 29.2258 35.1938 29.7931 33.9375 29.7931C30.5925 29.7931 22.4738 17.8857 17.6625 4.2575C16.6913 1.61346 15.7425 0.545456 13.2188 0.545456H3.375C0.56625 0.545456 0 1.82483 0 3.25625C0 5.78534 3.345 18.3603 15.555 34.9737C23.6925 46.3138 35.1525 52.4585 45.5775 52.4585C51.8438 52.4585 52.6088 51.0938 52.6088 48.7465C52.6088 37.9107 52.0425 36.8872 55.1813 36.8872C56.6363 36.8872 59.1413 37.5992 64.9912 43.069C71.6775 49.5549 72.7763 52.4585 76.5188 52.4585H86.3587C89.1637 52.4585 90.585 51.0938 89.7675 48.4016C87.8963 42.7389 75.2513 31.091 74.6813 30.3123Z" fill="#2881E9"/>
</svg>
