<svg width="76" height="72" viewBox="0 0 76 72" fill="none" xmlns="http://www.w3.org/2000/svg">
<path d="M38.0095 0H37.9905C17.0383 0 0 16.146 0 36C0 43.875 2.679 51.174 7.23425 57.1005L2.4985 70.4745L17.1047 66.051C23.1135 69.822 30.2812 72 38.0095 72C58.9618 72 76 55.8495 76 36C76 16.1505 58.9618 0 38.0095 0Z" fill="#22C729"/>
<path d="M60.1207 50.8366C59.2039 53.2891 55.5654 55.3231 52.6631 55.9171C50.6776 56.3176 48.0841 56.6371 39.3536 53.2081C28.1864 48.8251 20.9949 38.0746 20.4344 37.3771C19.8976 36.6796 15.9219 31.6846 15.9219 26.5186C15.9219 21.3526 18.6911 18.8371 19.8074 17.7571C20.7241 16.8706 22.2394 16.4656 23.6929 16.4656C24.1631 16.4656 24.5859 16.4881 24.9659 16.5061C26.0821 16.5511 26.6426 16.6141 27.3789 18.2836C28.2956 20.3761 30.5281 25.5421 30.7941 26.0731C31.0649 26.6041 31.3356 27.3241 30.9556 28.0216C30.5994 28.7416 30.2859 29.0611 29.7254 29.6731C29.1649 30.2851 28.6329 30.7531 28.0724 31.4101C27.5594 31.9816 26.9799 32.5936 27.6259 33.6511C28.2719 34.6861 30.5044 38.1376 33.7914 40.9096C38.0331 44.4871 41.4721 45.6301 42.7024 46.1161C43.6191 46.4761 44.7116 46.3906 45.3814 45.7156C46.2316 44.8471 47.2814 43.4071 48.3501 41.9896C49.1101 40.9726 50.0696 40.8466 51.0766 41.2066C52.1027 41.5441 57.5319 44.0866 58.6482 44.6131C59.7644 45.1441 60.5007 45.3961 60.7714 45.8416C61.0374 46.2871 61.0374 48.3796 60.1207 50.8366Z" fill="#FAFAFA"/>
</svg>
